<svg width="271" height="101" viewBox="0 0 271 101" fill="none" xmlns="http://www.w3.org/2000/svg">
<rect x="126.046" y="24.0459" width="21.727" height="55.8695" fill="white"/>
<path fill-rule="evenodd" clip-rule="evenodd" d="M133.563 2.85454C134.793 2.14476 136.308 2.14476 137.537 2.85454L176.825 25.5373C178.054 26.2471 178.811 27.5588 178.811 28.9784V74.3438C178.811 75.7634 178.054 77.0751 176.825 77.7849L137.537 100.468C136.308 101.177 134.793 101.177 133.563 100.468L94.2758 77.7849C93.0465 77.0751 92.2891 75.7634 92.2891 74.3438V28.9784C92.2891 27.5588 93.0465 26.2471 94.2758 25.5373L133.563 2.85454ZM140.308 70.6909C140.308 73.3184 138.178 75.4484 135.55 75.4484C132.923 75.4484 130.793 73.3184 130.793 70.6909C130.793 68.0634 132.923 65.9334 135.55 65.9334C138.178 65.9334 140.308 68.0634 140.308 70.6909ZM134.766 27.8735C132.572 27.8735 130.793 29.6524 130.793 31.8469V57.2024C130.793 59.3969 132.572 61.1759 134.766 61.1759H136.334C138.529 61.1759 140.308 59.3969 140.308 57.2024V31.8469C140.308 29.6524 138.529 27.8735 136.334 27.8735H134.766Z" fill="#D94747"/>
<path fill-rule="evenodd" clip-rule="evenodd" d="M224.197 2.37107C224.94 1.93742 225.857 1.93743 226.6 2.37107L267.904 26.4552C268.648 26.8889 269.106 27.6903 269.106 28.5576V76.7259C269.106 77.5932 268.648 78.3946 267.904 78.8283L251.745 88.2505C250.861 88.7659 249.748 87.9964 249.787 86.9663C249.797 86.7141 249.802 86.4607 249.802 86.206V82.6714C249.802 72.0816 241.302 63.4968 230.817 63.4968H219.733C209.247 63.4968 200.747 72.0816 200.747 82.6714V86.2061C200.747 86.4156 200.75 86.6244 200.757 86.8324C200.79 87.8578 199.681 88.6175 198.801 88.1045L182.893 78.8283C182.149 78.3946 181.691 77.5932 181.691 76.7259V28.5576C181.691 27.6903 182.149 26.8889 182.893 26.4552L224.197 2.37107ZM238.388 45.4473C238.388 52.6928 232.573 58.5664 225.399 58.5664C218.224 58.5664 212.409 52.6928 212.409 45.4473C212.409 38.2017 218.224 32.3281 225.399 32.3281C232.573 32.3281 238.388 38.2017 238.388 45.4473Z" stroke="#D94747" stroke-width="1.98671"/>
<path d="M244.077 6.87757V3.43141C244.077 1.54544 246.113 0.379773 247.715 1.34861L258.118 7.6396C258.844 8.07806 259.287 8.86888 259.287 9.7224V13.1139C259.287 14.9958 257.259 16.162 255.657 15.2015L245.253 8.96514C244.524 8.52779 244.077 7.73441 244.077 6.87757Z" stroke="#D94747" stroke-width="1.98671"/>
<path fill-rule="evenodd" clip-rule="evenodd" d="M44.3997 2.37107C45.1434 1.93742 46.0597 1.93743 46.8034 2.37107L88.1073 26.4552C88.851 26.8889 89.3091 27.6903 89.3091 28.5576V76.7259C89.3091 77.5932 88.851 78.3946 88.1073 78.8283L71.9483 88.2505C71.0644 88.7659 69.9508 87.9964 69.9906 86.9663C70.0003 86.7141 70.0053 86.4607 70.0053 86.206V82.6714C70.0053 72.0816 61.5052 63.4968 51.0197 63.4968H39.9357C29.4503 63.4968 20.9501 72.0816 20.9501 82.6714V86.2061C20.9501 86.4156 20.9535 86.6244 20.9601 86.8324C20.9927 87.8578 19.8842 88.6175 19.0045 88.1045L3.09588 78.8283C2.35218 78.3946 1.89404 77.5932 1.89404 76.7259V28.5576C1.89404 27.6903 2.35218 26.8889 3.09588 26.4552L44.3997 2.37107ZM58.5915 45.4473C58.5915 52.6928 52.7757 58.5664 45.6016 58.5664C38.4275 58.5664 32.6118 52.6928 32.6118 45.4473C32.6118 38.2017 38.4275 32.3281 45.6016 32.3281C52.7757 32.3281 58.5915 38.2017 58.5915 45.4473Z" stroke="#D94747" stroke-width="1.98671"/>
<path d="M64.2798 6.87757V3.43141C64.2798 1.54544 66.3161 0.379773 67.9183 1.34861L78.3216 7.6396C79.0467 8.07806 79.4905 8.86888 79.4905 9.7224V13.1139C79.4905 14.9958 77.4622 16.162 75.8599 15.2015L65.4566 8.96514C64.727 8.52779 64.2798 7.73441 64.2798 6.87757Z" stroke="#D94747" stroke-width="1.98671"/>
</svg>
