<svg width="16" height="16" viewBox="0 0 16 16" fill="none" xmlns="http://www.w3.org/2000/svg">
<path fill-rule="evenodd" clip-rule="evenodd" d="M8 16C3.58172 16 0 12.4183 0 8C0 3.58172 3.58172 0 8 0C12.4183 0 16 3.58172 16 8C16 12.4183 12.4183 16 8 16ZM9.10353 4.84609C8.90826 4.65083 8.59168 4.65083 8.39642 4.84609L5.35345 7.88906C5.15819 8.08432 5.15819 8.40091 5.35345 8.59617L5.89637 9.13909L5.89977 9.14246L8.3965 11.6392C8.59176 11.8344 8.90834 11.8344 9.1036 11.6392L9.64652 11.0963C9.84178 10.901 9.84178 10.5844 9.64652 10.3892L7.49996 8.2426L9.64644 6.09612C9.84171 5.90086 9.84171 5.58427 9.64645 5.38901L9.10353 4.84609Z" fill="white"/>
</svg>
