<svg width="187" height="187" viewBox="0 0 187 187" fill="none" xmlns="http://www.w3.org/2000/svg">
<rect x="93.3379" width="132" height="132" rx="10" transform="rotate(45 93.3379 0)" fill="#FFC224"/>
<rect x="93.3379" y="7.7521" width="121.037" height="121.037" rx="9" transform="rotate(45 93.3379 7.7521)" stroke="black" stroke-width="2"/>
<path fill-rule="evenodd" clip-rule="evenodd" d="M92.3847 96.6837C92.7653 96.4674 93.2342 96.4674 93.6148 96.6837L114.753 108.693C115.134 108.91 115.368 109.309 115.368 109.742V133.761C115.368 134.193 115.134 134.593 114.753 134.809L106.483 139.508C106.031 139.765 105.461 139.381 105.481 138.867C105.486 138.742 105.489 138.615 105.489 138.488V136.726C105.489 131.445 101.139 127.164 95.7726 127.164H90.1001C84.7339 127.164 80.3838 131.445 80.3838 136.726V138.488C80.3838 138.593 80.3855 138.697 80.3889 138.8C80.4055 139.312 79.8383 139.691 79.388 139.435L71.2464 134.809C70.8658 134.593 70.6313 134.193 70.6313 133.761V109.742C70.6313 109.309 70.8658 108.91 71.2464 108.693L92.3847 96.6837ZM99.6477 118.164C99.6477 121.777 96.6713 124.706 92.9998 124.706C89.3283 124.706 86.3519 121.777 86.3519 118.164C86.3519 114.551 89.3283 111.622 92.9998 111.622C96.6713 111.622 99.6477 114.551 99.6477 118.164Z" fill="black"/>
<path d="M102.559 98.9308V97.2124C102.559 96.272 103.601 95.6907 104.421 96.1738L109.745 99.3108C110.116 99.5295 110.344 99.9238 110.344 100.349V102.041C110.344 102.979 109.306 103.561 108.486 103.082L103.161 99.9718C102.788 99.7537 102.559 99.3581 102.559 98.9308Z" fill="black"/>
<path d="M71.584 69.16C70.6987 69.16 69.9093 68.968 69.216 68.584C68.5333 68.1893 67.9947 67.6507 67.6 66.968C67.2053 66.2853 67.008 65.512 67.008 64.648V57.752H69.184V64.712C69.184 65.2133 69.2853 65.6453 69.488 66.008C69.7013 66.3707 69.9893 66.6533 70.352 66.856C70.7253 67.048 71.136 67.144 71.584 67.144C72.0427 67.144 72.448 67.048 72.8 66.856C73.152 66.6533 73.4293 66.3707 73.632 66.008C73.8453 65.6453 73.952 65.2187 73.952 64.728V57.752H76.144V64.664C76.144 65.528 75.9467 66.3013 75.552 66.984C75.1573 67.656 74.6187 68.1893 73.936 68.584C73.264 68.968 72.48 69.16 71.584 69.16ZM78.2926 69V57.752H79.8126L80.4686 59.928V69H78.2926ZM86.0686 69L79.3966 60.36L79.8126 57.752L86.4846 66.392L86.0686 69ZM86.0686 69L85.4446 66.888V57.752H87.6366V69H86.0686ZM91.4056 69V67.064H94.2696C94.995 67.064 95.6296 66.9147 96.1736 66.616C96.7176 66.3067 97.139 65.8747 97.4376 65.32C97.747 64.7653 97.9016 64.1093 97.9016 63.352C97.9016 62.616 97.747 61.976 97.4376 61.432C97.1283 60.8773 96.7016 60.4507 96.1576 60.152C95.6136 59.8427 94.9843 59.688 94.2696 59.688H91.3576V57.752H94.3016C95.1336 57.752 95.9016 57.8907 96.6056 58.168C97.3203 58.4453 97.939 58.84 98.4616 59.352C98.995 59.8533 99.4056 60.4453 99.6936 61.128C99.9923 61.8107 100.142 62.5573 100.142 63.368C100.142 64.1787 99.9923 64.9307 99.6936 65.624C99.4056 66.3067 99.0003 66.904 98.4776 67.416C97.955 67.9173 97.3363 68.3067 96.6216 68.584C95.9176 68.8613 95.155 69 94.3336 69H91.4056ZM89.9176 69V57.752H92.0936V69H89.9176ZM101.871 69V57.752H104.047V69H101.871ZM103.471 69V67.08H109.695V69H103.471ZM103.471 64.184V62.328H109.135V64.184H103.471ZM103.471 59.672V57.752H109.615V59.672H103.471ZM113.096 64.296V62.6H115.704C116.237 62.6 116.648 62.4667 116.936 62.2C117.234 61.9227 117.384 61.544 117.384 61.064C117.384 60.6267 117.234 60.264 116.936 59.976C116.648 59.6773 116.237 59.528 115.704 59.528H113.096V57.752H115.896C116.621 57.752 117.256 57.896 117.8 58.184C118.354 58.4613 118.781 58.8453 119.08 59.336C119.389 59.8267 119.544 60.392 119.544 61.032C119.544 61.6933 119.389 62.2693 119.08 62.76C118.781 63.24 118.354 63.6187 117.8 63.896C117.245 64.1627 116.6 64.296 115.864 64.296H113.096ZM111.496 69V57.752H113.672V69H111.496ZM117.64 69L113.928 64.136L115.928 63.512L120.28 69H117.64Z" fill="black"/>
<path d="M37.368 89.16C36.5467 89.16 35.784 89.016 35.08 88.728C34.376 88.4293 33.7573 88.0187 33.224 87.496C32.7013 86.9627 32.296 86.344 32.008 85.64C31.7307 84.936 31.592 84.1787 31.592 83.368C31.592 82.5573 31.7307 81.8 32.008 81.096C32.296 80.392 32.7013 79.7787 33.224 79.256C33.7573 78.7333 34.3707 78.3227 35.064 78.024C35.768 77.7253 36.536 77.576 37.368 77.576C38.264 77.576 39.0533 77.7253 39.736 78.024C40.4187 78.312 41.0213 78.712 41.544 79.224L40.072 80.696C39.7627 80.3547 39.384 80.088 38.936 79.896C38.488 79.704 37.9653 79.608 37.368 79.608C36.8453 79.608 36.3653 79.6987 35.928 79.88C35.5013 80.0507 35.128 80.3067 34.808 80.648C34.488 80.9787 34.2427 81.3787 34.072 81.848C33.9013 82.3067 33.816 82.8133 33.816 83.368C33.816 83.9333 33.9013 84.4453 34.072 84.904C34.2427 85.3627 34.488 85.7627 34.808 86.104C35.128 86.4347 35.5013 86.6907 35.928 86.872C36.3653 87.0533 36.8453 87.144 37.368 87.144C37.9973 87.144 38.536 87.048 38.984 86.856C39.4427 86.664 39.8267 86.392 40.136 86.04L41.608 87.512C41.0853 88.0347 40.4773 88.44 39.784 88.728C39.0907 89.016 38.2853 89.16 37.368 89.16ZM47.9316 89.176C47.1103 89.176 46.3423 89.0267 45.6276 88.728C44.9236 88.4293 44.305 88.0187 43.7716 87.496C43.249 86.9627 42.8383 86.344 42.5396 85.64C42.241 84.9253 42.0916 84.1627 42.0916 83.352C42.0916 82.5413 42.2356 81.7893 42.5236 81.096C42.8223 80.392 43.233 79.7787 43.7556 79.256C44.289 78.7227 44.9076 78.312 45.6116 78.024C46.3156 77.7253 47.0783 77.576 47.8996 77.576C48.7316 77.576 49.4996 77.7253 50.2036 78.024C50.9076 78.312 51.521 78.7227 52.0436 79.256C52.577 79.7787 52.993 80.392 53.2916 81.096C53.5903 81.8 53.7396 82.5573 53.7396 83.368C53.7396 84.1787 53.5903 84.936 53.2916 85.64C52.993 86.344 52.577 86.9627 52.0436 87.496C51.521 88.0187 50.9076 88.4293 50.2036 88.728C49.5103 89.0267 48.753 89.176 47.9316 89.176ZM47.8996 87.144C48.625 87.144 49.2543 86.984 49.7876 86.664C50.321 86.344 50.737 85.9013 51.0356 85.336C51.345 84.7707 51.4996 84.1093 51.4996 83.352C51.4996 82.7973 51.4143 82.2907 51.2436 81.832C51.073 81.3733 50.8276 80.9787 50.5076 80.648C50.1876 80.3067 49.809 80.0453 49.3716 79.864C48.9343 79.6827 48.4436 79.592 47.8996 79.592C47.1956 79.592 46.5716 79.752 46.0276 80.072C45.4943 80.3813 45.073 80.8187 44.7636 81.384C44.465 81.9493 44.3156 82.6053 44.3156 83.352C44.3156 83.9173 44.401 84.4347 44.5716 84.904C44.753 85.3733 44.9983 85.7733 45.3076 86.104C45.6276 86.4347 46.0063 86.6907 46.4436 86.872C46.8916 87.0533 47.377 87.144 47.8996 87.144ZM55.4645 89V77.752H56.9845L57.6405 79.928V89H55.4645ZM63.2405 89L56.5685 80.36L56.9845 77.752L63.6565 86.392L63.2405 89ZM63.2405 89L62.6165 86.888V77.752H64.8085V89H63.2405ZM70.1348 89.16C69.2281 89.16 68.4494 89.0053 67.7988 88.696C67.1588 88.3867 66.5774 87.9227 66.0548 87.304L67.4948 85.864C67.8254 86.3013 68.2094 86.6427 68.6468 86.888C69.0841 87.1227 69.6174 87.24 70.2468 87.24C70.8121 87.24 71.2601 87.128 71.5908 86.904C71.9321 86.68 72.1028 86.3707 72.1028 85.976C72.1028 85.6347 72.0068 85.3573 71.8148 85.144C71.6228 84.9307 71.3668 84.7493 71.0468 84.6C70.7374 84.4507 70.3908 84.3173 70.0068 84.2C69.6334 84.072 69.2548 83.928 68.8708 83.768C68.4974 83.608 68.1508 83.4107 67.8307 83.176C67.5214 82.9307 67.2708 82.6213 67.0788 82.248C66.8868 81.864 66.7908 81.384 66.7908 80.808C66.7908 80.1253 66.9561 79.544 67.2868 79.064C67.6174 78.584 68.0708 78.216 68.6468 77.96C69.2228 77.704 69.8734 77.576 70.5988 77.576C71.3668 77.576 72.0601 77.72 72.6788 78.008C73.2974 78.296 73.8041 78.6693 74.1988 79.128L72.7588 80.568C72.4281 80.2053 72.0868 79.9387 71.7348 79.768C71.3934 79.5973 71.0041 79.512 70.5668 79.512C70.0654 79.512 69.6708 79.608 69.3828 79.8C69.0948 79.992 68.9508 80.2693 68.9508 80.632C68.9508 80.9413 69.0468 81.192 69.2388 81.384C69.4308 81.576 69.6814 81.7413 69.9908 81.88C70.3108 82.0187 70.6574 82.152 71.0308 82.28C71.4148 82.408 71.7934 82.552 72.1668 82.712C72.5508 82.872 72.8974 83.08 73.2068 83.336C73.5268 83.592 73.7828 83.9227 73.9748 84.328C74.1668 84.7227 74.2628 85.2133 74.2628 85.8C74.2628 86.8453 73.8948 87.6667 73.1588 88.264C72.4228 88.8613 71.4148 89.16 70.1348 89.16ZM78.311 89V77.992H80.503V89H78.311ZM74.727 79.688V77.752H84.087V79.688H74.727ZM87.1895 84.296V82.6H89.7975C90.3308 82.6 90.7415 82.4667 91.0295 82.2C91.3282 81.9227 91.4775 81.544 91.4775 81.064C91.4775 80.6267 91.3282 80.264 91.0295 79.976C90.7415 79.6773 90.3308 79.528 89.7975 79.528H87.1895V77.752H89.9895C90.7148 77.752 91.3495 77.896 91.8935 78.184C92.4482 78.4613 92.8748 78.8453 93.1735 79.336C93.4828 79.8267 93.6375 80.392 93.6375 81.032C93.6375 81.6933 93.4828 82.2693 93.1735 82.76C92.8748 83.24 92.4482 83.6187 91.8935 83.896C91.3388 84.1627 90.6935 84.296 89.9575 84.296H87.1895ZM85.5895 89V77.752H87.7655V89H85.5895ZM91.7335 89L88.0215 84.136L90.0215 83.512L94.3735 89H91.7335ZM100.006 89.16C99.1205 89.16 98.3312 88.968 97.6379 88.584C96.9552 88.1893 96.4165 87.6507 96.0219 86.968C95.6272 86.2853 95.4299 85.512 95.4299 84.648V77.752H97.6059V84.712C97.6059 85.2133 97.7072 85.6453 97.9099 86.008C98.1232 86.3707 98.4112 86.6533 98.7739 86.856C99.1472 87.048 99.5579 87.144 100.006 87.144C100.465 87.144 100.87 87.048 101.222 86.856C101.574 86.6533 101.851 86.3707 102.054 86.008C102.267 85.6453 102.374 85.2187 102.374 84.728V77.752H104.566V84.664C104.566 85.528 104.369 86.3013 103.974 86.984C103.579 87.656 103.041 88.1893 102.358 88.584C101.686 88.968 100.902 89.16 100.006 89.16ZM111.931 89.16C111.109 89.16 110.347 89.016 109.643 88.728C108.939 88.4293 108.32 88.0187 107.787 87.496C107.264 86.9627 106.859 86.344 106.571 85.64C106.293 84.936 106.155 84.1787 106.155 83.368C106.155 82.5573 106.293 81.8 106.571 81.096C106.859 80.392 107.264 79.7787 107.787 79.256C108.32 78.7333 108.933 78.3227 109.627 78.024C110.331 77.7253 111.099 77.576 111.931 77.576C112.827 77.576 113.616 77.7253 114.299 78.024C114.981 78.312 115.584 78.712 116.107 79.224L114.635 80.696C114.325 80.3547 113.947 80.088 113.499 79.896C113.051 79.704 112.528 79.608 111.931 79.608C111.408 79.608 110.928 79.6987 110.491 79.88C110.064 80.0507 109.691 80.3067 109.371 80.648C109.051 80.9787 108.805 81.3787 108.635 81.848C108.464 82.3067 108.379 82.8133 108.379 83.368C108.379 83.9333 108.464 84.4453 108.635 84.904C108.805 85.3627 109.051 85.7627 109.371 86.104C109.691 86.4347 110.064 86.6907 110.491 86.872C110.928 87.0533 111.408 87.144 111.931 87.144C112.56 87.144 113.099 87.048 113.547 86.856C114.005 86.664 114.389 86.392 114.699 86.04L116.171 87.512C115.648 88.0347 115.04 88.44 114.347 88.728C113.653 89.016 112.848 89.16 111.931 89.16ZM120.28 89V77.992H122.472V89H120.28ZM116.696 79.688V77.752H126.056V79.688H116.696ZM127.558 89V77.752H129.734V89H127.558ZM137.307 89.176C136.485 89.176 135.717 89.0267 135.003 88.728C134.299 88.4293 133.68 88.0187 133.147 87.496C132.624 86.9627 132.213 86.344 131.915 85.64C131.616 84.9253 131.467 84.1627 131.467 83.352C131.467 82.5413 131.611 81.7893 131.899 81.096C132.197 80.392 132.608 79.7787 133.131 79.256C133.664 78.7227 134.283 78.312 134.987 78.024C135.691 77.7253 136.453 77.576 137.275 77.576C138.107 77.576 138.875 77.7253 139.579 78.024C140.283 78.312 140.896 78.7227 141.419 79.256C141.952 79.7787 142.368 80.392 142.667 81.096C142.965 81.8 143.115 82.5573 143.115 83.368C143.115 84.1787 142.965 84.936 142.667 85.64C142.368 86.344 141.952 86.9627 141.419 87.496C140.896 88.0187 140.283 88.4293 139.579 88.728C138.885 89.0267 138.128 89.176 137.307 89.176ZM137.275 87.144C138 87.144 138.629 86.984 139.163 86.664C139.696 86.344 140.112 85.9013 140.411 85.336C140.72 84.7707 140.875 84.1093 140.875 83.352C140.875 82.7973 140.789 82.2907 140.619 81.832C140.448 81.3733 140.203 80.9787 139.883 80.648C139.563 80.3067 139.184 80.0453 138.747 79.864C138.309 79.6827 137.819 79.592 137.275 79.592C136.571 79.592 135.947 79.752 135.403 80.072C134.869 80.3813 134.448 80.8187 134.139 81.384C133.84 81.9493 133.691 82.6053 133.691 83.352C133.691 83.9173 133.776 84.4347 133.947 84.904C134.128 85.3733 134.373 85.7733 134.683 86.104C135.003 86.4347 135.381 86.6907 135.819 86.872C136.267 87.0533 136.752 87.144 137.275 87.144ZM144.84 89V77.752H146.36L147.016 79.928V89H144.84ZM152.616 89L145.944 80.36L146.36 77.752L153.032 86.392L152.616 89ZM152.616 89L151.992 86.888V77.752H154.184V89H152.616Z" fill="black"/>
</svg>
