<svg width="433" height="196" viewBox="0 0 433 196" fill="none" xmlns="http://www.w3.org/2000/svg">
<path d="M48.8816 81.2493C49.5004 80.8921 50.2628 80.8921 50.8816 81.2493L92.0803 105.035C92.6991 105.393 93.0803 106.053 93.0803 106.767V154.34C93.0803 155.054 92.6991 155.714 92.0803 156.072L50.8816 179.858C50.2628 180.215 49.5004 180.215 48.8816 179.858L7.68287 156.072C7.06407 155.714 6.68287 155.054 6.68287 154.34V106.767C6.68287 106.053 7.06407 105.393 7.68287 105.035L48.8816 81.2493Z" fill="#B9B9B9" stroke="black" stroke-width="2"/>
<path d="M149.338 9.89095C149.956 9.53368 150.719 9.53368 151.338 9.89095L221.935 50.6506C222.554 51.0079 222.935 51.6682 222.935 52.3827V133.902C222.935 134.617 222.554 135.277 221.935 135.634L151.338 176.394C150.719 176.751 149.956 176.751 149.338 176.394L78.7397 135.634C78.1209 135.277 77.7397 134.617 77.7397 133.902V52.3827C77.7397 51.6682 78.1209 51.0079 78.7397 50.6506L149.338 9.89095Z" fill="#82B3DF" stroke="black" stroke-width="2"/>
<path d="M236.284 90.9486C236.903 90.5913 237.665 90.5913 238.284 90.9486L281.583 115.947C282.201 116.304 282.583 116.965 282.583 117.679V167.676C282.583 168.391 282.201 169.051 281.583 169.408L238.284 194.407C237.665 194.764 236.903 194.764 236.284 194.407L192.985 169.408C192.367 169.051 191.985 168.391 191.985 167.676V117.679C191.985 116.965 192.367 116.304 192.985 115.947L236.284 90.9486Z" fill="#F8F8F8" stroke="black" stroke-width="2"/>
<path d="M304.178 1.57735C304.797 1.22008 305.56 1.22008 306.178 1.57735L349.477 26.5758C350.096 26.9331 350.477 27.5934 350.477 28.3079V78.3049C350.477 79.0194 350.096 79.6797 349.477 80.0369L306.178 105.035C305.56 105.393 304.797 105.393 304.178 105.035L260.88 80.0369C260.261 79.6797 259.88 79.0194 259.88 78.3049V28.3079C259.88 27.5934 260.261 26.9331 260.88 26.5758L304.178 1.57735Z" fill="black" stroke="black" stroke-width="2"/>
<path d="M379.694 84.0206C380.312 83.6633 381.075 83.6633 381.694 84.0206L424.992 109.019C425.611 109.376 425.992 110.037 425.992 110.751V160.748C425.992 161.463 425.611 162.123 424.992 162.48L381.694 187.479C381.075 187.836 380.312 187.836 379.694 187.479L336.395 162.48C335.776 162.123 335.395 161.463 335.395 160.748V110.751C335.395 110.037 335.776 109.376 336.395 109.019L379.694 84.0206Z" fill="#FFB5D4" stroke="black" stroke-width="2"/>
<path d="M268.846 73.6285C269.464 73.2712 270.227 73.2712 270.846 73.6285L293.745 86.8494C294.364 87.2067 294.745 87.8669 294.745 88.5814V115.023C294.745 115.738 294.364 116.398 293.745 116.755L270.846 129.976C270.227 130.333 269.464 130.333 268.846 129.976L245.946 116.755C245.328 116.398 244.946 115.738 244.946 115.023V88.5814C244.946 87.8669 245.328 87.2067 245.946 86.8494L268.846 73.6285Z" fill="#82DFB2" stroke="black" stroke-width="2"/>
<rect x="201.537" y="72.2257" width="16.2885" height="41.8848" fill="white"/>
<path fill-rule="evenodd" clip-rule="evenodd" d="M207.662 56.0561C208.281 55.6988 209.043 55.6988 209.662 56.0561L240.095 73.6262C240.713 73.9835 241.095 74.6438 241.095 75.3583V110.499C241.095 111.213 240.713 111.873 240.095 112.231L209.662 129.801C209.043 130.158 208.281 130.158 207.662 129.801L177.23 112.231C176.611 111.873 176.23 111.213 176.23 110.499V75.3583C176.23 74.6438 176.611 73.9835 177.23 73.6262L207.662 56.0561ZM212.229 107.195C212.229 109.165 210.632 110.762 208.662 110.762C206.692 110.762 205.095 109.165 205.095 107.195C205.095 105.225 206.692 103.628 208.662 103.628C210.632 103.628 212.229 105.225 212.229 107.195ZM208.662 75.0952C206.692 75.0952 205.095 76.692 205.095 78.6618V96.495C205.095 98.4648 206.692 100.062 208.662 100.062C210.632 100.062 212.229 98.4648 212.229 96.495V78.6618C212.229 76.692 210.632 75.0952 208.662 75.0952Z" fill="#FF5B5B"/>
<path d="M209.662 56.0561L209.162 56.9221V56.9221L209.662 56.0561ZM207.662 56.0561L208.162 56.9221V56.9221L207.662 56.0561ZM240.095 73.6262L239.595 74.4923L240.095 73.6262ZM240.095 112.231L239.595 111.365V111.365L240.095 112.231ZM209.662 129.801L210.162 130.667H210.162L209.662 129.801ZM207.662 129.801L207.162 130.667H207.162L207.662 129.801ZM177.23 112.231L177.73 111.365H177.73L177.23 112.231ZM177.23 73.6262L177.73 74.4923H177.73L177.23 73.6262ZM210.162 55.1901C209.234 54.6542 208.09 54.6542 207.162 55.1901L208.162 56.9221C208.472 56.7435 208.853 56.7435 209.162 56.9221L210.162 55.1901ZM240.595 72.7602L210.162 55.1901L209.162 56.9221L239.595 74.4923L240.595 72.7602ZM242.095 75.3583C242.095 74.2865 241.523 73.2961 240.595 72.7602L239.595 74.4923C239.904 74.6709 240.095 75.001 240.095 75.3583H242.095ZM242.095 110.499V75.3583H240.095V110.499H242.095ZM240.595 113.097C241.523 112.561 242.095 111.57 242.095 110.499H240.095C240.095 110.856 239.904 111.186 239.595 111.365L240.595 113.097ZM210.162 130.667L240.595 113.097L239.595 111.365L209.162 128.935L210.162 130.667ZM207.162 130.667C208.09 131.203 209.234 131.203 210.162 130.667L209.162 128.935C208.853 129.113 208.472 129.113 208.162 128.935L207.162 130.667ZM176.73 113.097L207.162 130.667L208.162 128.935L177.73 111.365L176.73 113.097ZM175.23 110.499C175.23 111.57 175.802 112.561 176.73 113.097L177.73 111.365C177.42 111.186 177.23 110.856 177.23 110.499H175.23ZM175.23 75.3583V110.499H177.23V75.3583H175.23ZM176.73 72.7602C175.802 73.2961 175.23 74.2865 175.23 75.3583H177.23C177.23 75.001 177.42 74.6709 177.73 74.4923L176.73 72.7602ZM207.162 55.1901L176.73 72.7602L177.73 74.4923L208.162 56.9221L207.162 55.1901ZM208.662 111.762C211.184 111.762 213.229 109.717 213.229 107.195H211.229C211.229 108.613 210.08 109.762 208.662 109.762V111.762ZM204.095 107.195C204.095 109.717 206.14 111.762 208.662 111.762V109.762C207.245 109.762 206.095 108.613 206.095 107.195H204.095ZM208.662 102.628C206.14 102.628 204.095 104.673 204.095 107.195H206.095C206.095 105.778 207.245 104.628 208.662 104.628V102.628ZM213.229 107.195C213.229 104.673 211.184 102.628 208.662 102.628V104.628C210.08 104.628 211.229 105.778 211.229 107.195H213.229ZM206.095 78.6618C206.095 77.2443 207.245 76.0952 208.662 76.0952V74.0952C206.14 74.0952 204.095 76.1398 204.095 78.6618H206.095ZM206.095 96.495V78.6618H204.095V96.495H206.095ZM208.662 99.0617C207.245 99.0617 206.095 97.9125 206.095 96.495H204.095C204.095 99.0171 206.14 101.062 208.662 101.062V99.0617ZM211.229 96.495C211.229 97.9125 210.08 99.0617 208.662 99.0617V101.062C211.184 101.062 213.229 99.0171 213.229 96.495H211.229ZM211.229 78.6618V96.495H213.229V78.6618H211.229ZM208.662 76.0952C210.08 76.0952 211.229 77.2443 211.229 78.6618H213.229C213.229 76.1398 211.184 74.0952 208.662 74.0952V76.0952Z" fill="black"/>
<path d="M175.318 125.589C175.936 125.231 176.699 125.231 177.318 125.589L194.817 135.692C195.436 136.049 195.817 136.709 195.817 137.424V157.631C195.817 158.345 195.436 159.005 194.817 159.363L177.318 169.466C176.699 169.823 175.936 169.823 175.318 169.466L157.818 159.363C157.199 159.005 156.818 158.345 156.818 157.631V137.424C156.818 136.709 157.199 136.049 157.818 135.692L175.318 125.589Z" fill="#3684C9" stroke="black" stroke-width="2"/>
<path d="M239.748 32.0605C240.367 31.7032 241.129 31.7032 241.748 32.0605L252.648 38.3534C253.266 38.7107 253.648 39.3709 253.648 40.0855V52.6713C253.648 53.3858 253.266 54.046 252.648 54.4033L241.748 60.6962C241.129 61.0535 240.367 61.0535 239.748 60.6962L228.848 54.4033C228.23 54.046 227.848 53.3858 227.848 52.6713V40.0855C227.848 39.3709 228.23 38.7107 228.848 38.3534L239.748 32.0605Z" fill="#F8C67C" stroke="black" stroke-width="2"/>
</svg>
