<svg width="446" height="129" viewBox="0 0 446 129" fill="none" xmlns="http://www.w3.org/2000/svg">
<line x1="182.813" y1="123.81" x2="273.042" y2="123.81" stroke="black" stroke-width="2"/>
<rect x="197.347" y="69.8677" width="25.0689" height="53.9424" fill="#1D5DA7" stroke="black" stroke-width="2"/>
<rect x="233.439" y="39.1896" width="25.0689" height="84.6205" fill="#82B3DF" stroke="black" stroke-width="2"/>
<circle cx="355.603" cy="47.6637" r="41.8591" fill="#DADADA" stroke="black" stroke-width="2"/>
<mask id="path-5-inside-1_297_1172" fill="white">
<path d="M371.455 7.84386C362.617 4.32548 352.859 3.84739 343.719 6.4849C334.58 9.12242 326.577 14.7256 320.972 22.4119C315.368 30.0981 312.479 39.4305 312.763 48.939C313.046 58.4474 316.484 67.5915 322.536 74.9307C328.588 82.27 336.91 87.3872 346.19 89.4764C355.47 91.5656 365.182 90.5079 373.795 86.47C382.408 82.4321 389.433 75.6435 393.764 67.1735C398.094 58.7036 399.483 49.0338 397.713 39.6873L355.603 47.6637L371.455 7.84386Z"/>
</mask>
<path d="M371.455 7.84386C362.617 4.32548 352.859 3.84739 343.719 6.4849C334.58 9.12242 326.577 14.7256 320.972 22.4119C315.368 30.0981 312.479 39.4305 312.763 48.939C313.046 58.4474 316.484 67.5915 322.536 74.9307C328.588 82.27 336.91 87.3872 346.19 89.4764C355.47 91.5656 365.182 90.5079 373.795 86.47C382.408 82.4321 389.433 75.6435 393.764 67.1735C398.094 58.7036 399.483 49.0338 397.713 39.6873L355.603 47.6637L371.455 7.84386Z" fill="#3684C9" stroke="black" stroke-width="4" mask="url(#path-5-inside-1_297_1172)"/>
<path d="M289.284 97.29L301.014 86.9136L324.925 126.615L345.677 89.1694" stroke="black" stroke-width="2"/>
<path d="M386.732 17.4368L394.401 3L420.117 51.724L442.223 13.3764" stroke="black" stroke-width="2"/>
<path d="M289.284 97.29L259.508 72.4769M232.89 86.0113L222.965 90.974" stroke="black" stroke-width="2"/>
<path d="M196.798 78.7929L149.436 27.362L122.81 64.8073M58.747 48.566L1 16.5344" stroke="black" stroke-width="2"/>
<rect x="431.524" y="96.8389" width="18.0459" height="18.0459" transform="rotate(45 431.524 96.8389)" fill="#FFC582" stroke="black" stroke-width="2"/>
<rect width="13.1231" height="13.1231" transform="matrix(0.707106 0.707108 -0.707106 0.707108 160.061 81.4998)" fill="#FFC582" stroke="black" stroke-width="2"/>
<rect width="13.1231" height="13.1231" transform="matrix(0.707105 0.707108 -0.707105 0.707108 15.6932 94.132)" fill="#FFC582" stroke="black" stroke-width="2"/>
<rect width="8.83827" height="8.83827" transform="matrix(0.707106 0.707108 -0.707106 0.707108 48.7552 13.8276)" fill="#FFC582" stroke="black" stroke-width="2"/>
<rect x="289.863" y="16.9191" width="9.84562" height="9.84562" transform="rotate(45 289.863 16.9191)" fill="#FFC582" stroke="black" stroke-width="2"/>
<circle cx="82.6579" cy="46.7614" r="24.8132" fill="#3684C9" fill-opacity="0.75"/>
<circle cx="97.9969" cy="72.0257" r="24.8132" fill="#82DFB2" fill-opacity="0.75"/>
<circle cx="66.4165" cy="72.0257" r="24.8132" fill="#43BFDA" fill-opacity="0.75"/>
<circle cx="97.9969" cy="72.0257" r="24.8132" stroke="black" stroke-width="2"/>
<circle cx="66.4165" cy="72.0257" r="24.8132" stroke="black" stroke-width="2"/>
<circle cx="82.6579" cy="46.7614" r="24.8132" stroke="black" stroke-width="2"/>
</svg>
