<svg width="31" height="30" viewBox="0 0 31 30" fill="none" xmlns="http://www.w3.org/2000/svg">
<path fill-rule="evenodd" clip-rule="evenodd" d="M14.9522 0.470627C15.2138 0.321803 15.5362 0.321803 15.7978 0.470627L30.3272 8.73607C30.5888 8.8849 30.75 9.15993 30.75 9.45758V25.9885C30.75 26.2861 30.5888 26.5612 30.3272 26.71L24.643 29.9436C24.332 30.1205 23.9403 29.8564 23.9543 29.5029C23.9578 29.4163 23.9595 29.3294 23.9595 29.242V28.0289C23.9595 24.3946 20.9694 21.4484 17.2809 21.4484H13.3819C9.69345 21.4484 6.70337 24.3946 6.70337 28.0289V29.242C6.70337 29.3139 6.70454 29.3856 6.70686 29.4569C6.71832 29.8088 6.32841 30.0696 6.01893 29.8935L0.422771 26.71C0.161159 26.5612 0 26.2861 0 25.9885V9.45758C0 9.15993 0.161159 8.8849 0.422771 8.73607L14.9522 0.470627ZM19.9445 15.254C19.9445 17.7405 17.8987 19.7563 15.375 19.7563C12.8514 19.7563 10.8056 17.7405 10.8056 15.254C10.8056 12.7674 12.8514 10.7516 15.375 10.7516C17.8987 10.7516 19.9445 12.7674 19.9445 15.254Z" fill="#3684C9"/>
<path d="M21.9454 2.0171V0.834414C21.9454 0.187169 22.6618 -0.212877 23.2253 0.119617L26.8849 2.27862C27.14 2.4291 27.2961 2.7005 27.2961 2.99342V4.15737C27.2961 4.80319 26.5826 5.20343 26.019 4.8738L22.3594 2.73354C22.1028 2.58344 21.9454 2.31116 21.9454 2.0171Z" fill="#3684C9"/>
</svg>
