<svg width="100" height="100" viewBox="0 0 100 100" fill="none" xmlns="http://www.w3.org/2000/svg">
<rect width="100" height="100" rx="6.77966" fill="#82B3DF"/>
<path d="M0 6.77965C0 3.03535 3.03536 0 6.77966 0H93.2203C96.9646 0 100 3.03536 100 6.77966V24.5763H0V6.77965Z" fill="#1D5DA7"/>
<path d="M30.4742 68.3051L39.6606 58.8136C40.2256 58.2486 40.6776 57.7288 41.0166 57.2542C41.3556 56.7797 41.6041 56.339 41.7623 55.9322C41.9205 55.5028 41.9996 55.0735 41.9996 54.6441C41.9996 53.7175 41.6945 52.9944 41.0844 52.4746C40.4968 51.9322 39.7171 51.661 38.7454 51.661C37.7962 51.661 36.9375 51.9209 36.1691 52.4407C35.4234 52.9379 34.7002 53.7627 33.9996 54.9153L30.4403 51.8305C31.3895 50.226 32.5985 49.017 34.0674 48.2034C35.5364 47.3898 37.22 46.9831 39.1183 46.9831C40.768 46.9831 42.1917 47.2881 43.3895 47.8983C44.6098 48.5085 45.5477 49.3785 46.203 50.5085C46.881 51.6384 47.22 52.9605 47.22 54.4746C47.22 55.4237 47.0957 56.3051 46.8471 57.1187C46.5985 57.9096 46.1917 58.7006 45.6267 59.4915C45.0844 60.2599 44.3499 61.1074 43.4234 62.0339L37.0505 68.3729L30.4742 68.3051ZM30.4742 71.2881V68.3051L34.9827 66.7458H47.6945V71.2881H30.4742ZM51.3031 68.3051L60.4896 58.8136C61.0545 58.2486 61.5065 57.7288 61.8455 57.2542C62.1845 56.7797 62.4331 56.339 62.5913 55.9322C62.7495 55.5028 62.8286 55.0735 62.8286 54.6441C62.8286 53.7175 62.5235 52.9944 61.9133 52.4746C61.3257 51.9322 60.5461 51.661 59.5743 51.661C58.6252 51.661 57.7664 51.9209 56.998 52.4407C56.2523 52.9379 55.5291 53.7627 54.8286 54.9153L51.2692 51.8305C52.2184 50.226 53.4274 49.017 54.8963 48.2034C56.3653 47.3898 58.0489 46.9831 59.9472 46.9831C61.5969 46.9831 63.0206 47.2881 64.2184 47.8983C65.4387 48.5085 66.3766 49.3785 67.0319 50.5085C67.7099 51.6384 68.0489 52.9605 68.0489 54.4746C68.0489 55.4237 67.9246 56.3051 67.676 57.1187C67.4274 57.9096 67.0206 58.7006 66.4557 59.4915C65.9133 60.2599 65.1788 61.1074 64.2523 62.0339L57.8794 68.3729L51.3031 68.3051ZM51.3031 71.2881V68.3051L55.8116 66.7458H68.5235V71.2881H51.3031Z" fill="white"/>
<circle cx="20.7628" cy="12.2881" r="3.81356" fill="white"/>
<circle cx="79.2374" cy="12.2881" r="3.81356" fill="white"/>
</svg>
