<svg width="433" height="196" viewBox="0 0 433 196" fill="none" xmlns="http://www.w3.org/2000/svg">
<path d="M48.8816 81.2492C49.5004 80.892 50.2628 80.892 50.8816 81.2492L92.0803 105.035C92.6991 105.393 93.0803 106.053 93.0803 106.767V154.34C93.0803 155.054 92.6991 155.714 92.0803 156.072L50.8816 179.858C50.2628 180.215 49.5004 180.215 48.8816 179.858L7.68287 156.072C7.06407 155.714 6.68287 155.054 6.68287 154.34V106.767C6.68287 106.053 7.06407 105.393 7.68287 105.035L48.8816 81.2492Z" fill="#B9B9B9" stroke="black" stroke-width="2"/>
<path d="M149.338 9.89107C149.956 9.53381 150.719 9.53381 151.338 9.89107L221.935 50.6508C222.554 51.008 222.935 51.6683 222.935 52.3828V133.902C222.935 134.617 222.554 135.277 221.935 135.634L151.338 176.394C150.719 176.751 149.956 176.751 149.338 176.394L78.7397 135.634C78.1209 135.277 77.7397 134.617 77.7397 133.902V52.3828C77.7397 51.6683 78.1209 51.008 78.7397 50.6508L149.338 9.89107Z" fill="#82B3DF" stroke="black" stroke-width="2"/>
<path d="M236.284 90.9484C236.903 90.5912 237.665 90.5912 238.284 90.9484L281.583 115.947C282.201 116.304 282.583 116.964 282.583 117.679V167.676C282.583 168.391 282.201 169.051 281.583 169.408L238.284 194.407C237.665 194.764 236.903 194.764 236.284 194.407L192.985 169.408C192.366 169.051 191.985 168.391 191.985 167.676V117.679C191.985 116.964 192.366 116.304 192.985 115.947L236.284 90.9484Z" fill="#F8F8F8" stroke="black" stroke-width="2"/>
<path d="M304.178 1.57735C304.797 1.22008 305.56 1.22008 306.178 1.57735L349.477 26.5758C350.096 26.9331 350.477 27.5934 350.477 28.3079V78.3049C350.477 79.0194 350.096 79.6797 349.477 80.0369L306.178 105.035C305.56 105.393 304.797 105.393 304.178 105.035L260.88 80.0369C260.261 79.6797 259.88 79.0194 259.88 78.3049V28.3079C259.88 27.5934 260.261 26.9331 260.88 26.5758L304.178 1.57735Z" fill="black" stroke="black" stroke-width="2"/>
<path d="M379.694 84.0205C380.312 83.6632 381.075 83.6632 381.694 84.0205L424.992 109.019C425.611 109.376 425.992 110.036 425.992 110.751V160.748C425.992 161.463 425.611 162.123 424.992 162.48L381.694 187.479C381.075 187.836 380.312 187.836 379.694 187.479L336.395 162.48C335.776 162.123 335.395 161.463 335.395 160.748V110.751C335.395 110.036 335.776 109.376 336.395 109.019L379.694 84.0205Z" fill="#FFB5D4" stroke="black" stroke-width="2"/>
<path d="M268.846 73.6286C269.464 73.2714 270.227 73.2714 270.846 73.6286L293.745 86.8495C294.364 87.2068 294.745 87.867 294.745 88.5816V115.023C294.745 115.738 294.364 116.398 293.745 116.755L270.846 129.976C270.227 130.334 269.464 130.334 268.846 129.976L245.946 116.755C245.328 116.398 244.946 115.738 244.946 115.023V88.5816C244.946 87.867 245.328 87.2068 245.946 86.8495L268.846 73.6286Z" fill="#82DFB2" stroke="black" stroke-width="2"/>
<rect x="201.537" y="72.2256" width="16.2885" height="41.8848" fill="white"/>
<path fill-rule="evenodd" clip-rule="evenodd" d="M207.662 56.056C208.281 55.6988 209.044 55.6988 209.662 56.056L240.095 73.6262C240.714 73.9834 241.095 74.6437 241.095 75.3582V110.499C241.095 111.213 240.714 111.873 240.095 112.231L209.662 129.801C209.044 130.158 208.281 130.158 207.662 129.801L177.23 112.231C176.611 111.873 176.23 111.213 176.23 110.499V75.3582C176.23 74.6437 176.611 73.9834 177.23 73.6262L207.662 56.056ZM212.229 107.195C212.229 109.165 210.632 110.762 208.662 110.762C206.692 110.762 205.096 109.165 205.096 107.195C205.096 105.225 206.692 103.628 208.662 103.628C210.632 103.628 212.229 105.225 212.229 107.195ZM208.662 75.0951C206.692 75.0951 205.096 76.6919 205.096 78.6617V96.4949C205.096 98.4647 206.692 100.062 208.662 100.062C210.632 100.062 212.229 98.4647 212.229 96.4949V78.6617C212.229 76.6919 210.632 75.0951 208.662 75.0951Z" fill="#FF5B5B"/>
<path d="M209.662 56.056L209.162 56.9221L209.162 56.9221L209.662 56.056ZM207.662 56.056L207.162 55.19V55.19L207.662 56.056ZM240.095 73.6262L240.595 72.7602L240.095 73.6262ZM240.095 112.231L239.595 111.365L239.595 111.365L240.095 112.231ZM209.662 129.801L210.162 130.667H210.162L209.662 129.801ZM207.662 129.801L207.162 130.667H207.162L207.662 129.801ZM177.23 112.231L177.73 111.365H177.73L177.23 112.231ZM177.23 73.6262L177.73 74.4922H177.73L177.23 73.6262ZM210.162 55.19C209.234 54.6541 208.091 54.6541 207.162 55.19L208.162 56.9221C208.472 56.7434 208.853 56.7434 209.162 56.9221L210.162 55.19ZM240.595 72.7602L210.162 55.19L209.162 56.9221L239.595 74.4922L240.595 72.7602ZM242.095 75.3582C242.095 74.2864 241.523 73.2961 240.595 72.7602L239.595 74.4922C239.904 74.6708 240.095 75.001 240.095 75.3582H242.095ZM242.095 110.499V75.3582H240.095V110.499H242.095ZM240.595 113.097C241.523 112.561 242.095 111.57 242.095 110.499H240.095C240.095 110.856 239.904 111.186 239.595 111.365L240.595 113.097ZM210.162 130.667L240.595 113.097L239.595 111.365L209.162 128.935L210.162 130.667ZM207.162 130.667C208.091 131.203 209.234 131.203 210.162 130.667L209.162 128.935C208.853 129.113 208.472 129.113 208.162 128.935L207.162 130.667ZM176.73 113.097L207.162 130.667L208.162 128.935L177.73 111.365L176.73 113.097ZM175.23 110.499C175.23 111.57 175.802 112.561 176.73 113.097L177.73 111.365C177.421 111.186 177.23 110.856 177.23 110.499H175.23ZM175.23 75.3582V110.499H177.23V75.3582H175.23ZM176.73 72.7602C175.802 73.296 175.23 74.2864 175.23 75.3582H177.23C177.23 75.001 177.421 74.6708 177.73 74.4922L176.73 72.7602ZM207.162 55.19L176.73 72.7602L177.73 74.4922L208.162 56.9221L207.162 55.19ZM208.662 111.762C211.184 111.762 213.229 109.717 213.229 107.195H211.229C211.229 108.612 210.08 109.762 208.662 109.762V111.762ZM204.096 107.195C204.096 109.717 206.14 111.762 208.662 111.762V109.762C207.245 109.762 206.096 108.612 206.096 107.195H204.096ZM208.662 102.628C206.14 102.628 204.096 104.673 204.096 107.195H206.096C206.096 105.777 207.245 104.628 208.662 104.628V102.628ZM213.229 107.195C213.229 104.673 211.184 102.628 208.662 102.628V104.628C210.08 104.628 211.229 105.777 211.229 107.195H213.229ZM206.096 78.6617C206.096 77.2442 207.245 76.0951 208.662 76.0951V74.0951C206.14 74.0951 204.096 76.1397 204.096 78.6617H206.096ZM206.096 96.4949V78.6617H204.096V96.4949H206.096ZM208.662 99.0616C207.245 99.0616 206.096 97.9124 206.096 96.4949H204.096C204.096 99.017 206.14 101.062 208.662 101.062V99.0616ZM211.229 96.4949C211.229 97.9124 210.08 99.0616 208.662 99.0616V101.062C211.184 101.062 213.229 99.017 213.229 96.4949H211.229ZM211.229 78.6617V96.4949H213.229V78.6617H211.229ZM208.662 76.0951C210.08 76.0951 211.229 77.2442 211.229 78.6617H213.229C213.229 76.1397 211.184 74.0951 208.662 74.0951V76.0951Z" fill="black"/>
<path d="M175.318 125.589C175.936 125.231 176.699 125.231 177.318 125.589L194.817 135.692C195.436 136.049 195.817 136.709 195.817 137.424V157.631C195.817 158.345 195.436 159.005 194.817 159.363L177.318 169.466C176.699 169.823 175.936 169.823 175.318 169.466L157.818 159.363C157.199 159.005 156.818 158.345 156.818 157.631V137.424C156.818 136.709 157.199 136.049 157.818 135.692L175.318 125.589Z" fill="#3684C9" stroke="black" stroke-width="2"/>
<path d="M239.748 32.0605C240.367 31.7032 241.129 31.7032 241.748 32.0605L252.648 38.3534C253.266 38.7107 253.648 39.3709 253.648 40.0855V52.6713C253.648 53.3858 253.266 54.046 252.648 54.4033L241.748 60.6962C241.129 61.0535 240.367 61.0535 239.748 60.6962L228.848 54.4033C228.23 54.046 227.848 53.3858 227.848 52.6713V40.0855C227.848 39.3709 228.23 38.7107 228.848 38.3534L239.748 32.0605Z" fill="#F8C67C" stroke="black" stroke-width="2"/>
</svg>
