<svg width="33" height="32" viewBox="0 0 33 32" fill="none" xmlns="http://www.w3.org/2000/svg">
<path fill-rule="evenodd" clip-rule="evenodd" d="M15.9695 0.501872C16.2489 0.343126 16.5932 0.343126 16.8726 0.501872L32.3906 9.31835C32.67 9.47709 32.8421 9.77047 32.8421 10.088V27.7209C32.8421 28.0384 32.67 28.3318 32.3906 28.4905L26.3196 31.9397C25.9875 32.1284 25.5691 31.8467 25.5841 31.4696C25.5877 31.3773 25.5896 31.2845 25.5896 31.1913V29.8974C25.5896 26.0208 22.3961 22.8782 18.4567 22.8782H14.2924C10.353 22.8782 7.15944 26.0208 7.15944 29.8974V31.1913C7.15944 31.268 7.16069 31.3445 7.16317 31.4206C7.17541 31.796 6.75897 32.0741 6.42843 31.8863L0.451534 28.4905C0.172124 28.3318 0 28.0384 0 27.7209V10.088C0 9.77047 0.172124 9.47709 0.451535 9.31835L15.9695 0.501872ZM21.3014 16.2708C21.3014 18.9231 19.1164 21.0733 16.4211 21.0733C13.7257 21.0733 11.5407 18.9231 11.5407 16.2708C11.5407 13.6184 13.7257 11.4682 16.4211 11.4682C19.1164 11.4682 21.3014 13.6184 21.3014 16.2708Z" fill="black"/>
<path d="M23.4385 2.15158V0.890042C23.4385 0.199647 24.2035 -0.227069 24.8055 0.127592L28.714 2.43053C28.9864 2.59104 29.1532 2.88053 29.1532 3.19298V4.43453C29.1532 5.1234 28.3912 5.55033 27.7892 5.19872L23.8806 2.91577C23.6065 2.75567 23.4385 2.46524 23.4385 2.15158Z" fill="black"/>
</svg>
