<svg width="444" height="106" viewBox="0 0 444 106" fill="none" xmlns="http://www.w3.org/2000/svg">
<path fill-rule="evenodd" clip-rule="evenodd" d="M107.664 37.1644C107.946 37.0038 108.294 37.0038 108.576 37.1644L124.25 46.081C124.533 46.2415 124.706 46.5382 124.706 46.8593V64.6925C124.706 65.0136 124.533 65.3103 124.25 65.4709L118.118 68.9592C117.783 69.1501 117.36 68.8652 117.375 68.4838C117.379 68.3904 117.381 68.2966 117.381 68.2023V66.8937C117.381 62.9731 114.155 59.7948 110.176 59.7948H105.97C101.991 59.7948 98.7654 62.9731 98.7654 66.8937V68.2023C98.7654 68.2799 98.7667 68.3572 98.7692 68.4342C98.7815 68.8139 98.3609 69.0951 98.027 68.9052L91.99 65.4709C91.7078 65.3103 91.5339 65.0136 91.5339 64.6925V46.8593C91.5339 46.5382 91.7078 46.2415 91.99 46.081L107.664 37.1644ZM113.05 53.1123C113.05 55.7948 110.843 57.9694 108.12 57.9694C105.398 57.9694 103.191 55.7948 103.191 53.1123C103.191 50.4298 105.398 48.2553 108.12 48.2553C110.843 48.2553 113.05 50.4298 113.05 53.1123Z" fill="#3684C9" stroke="black" stroke-width="1.16303"/>
<path d="M115.208 38.8325V37.5566C115.208 36.8584 115.981 36.4268 116.589 36.7855L120.537 39.1146C120.812 39.277 120.98 39.5697 120.98 39.8857V41.1414C120.98 41.8381 120.211 42.2699 119.603 41.9143L115.655 39.6054C115.378 39.4435 115.208 39.1497 115.208 38.8325Z" fill="#3684C9" stroke="black" stroke-width="1.16303"/>
<path opacity="0.5" fill-rule="evenodd" clip-rule="evenodd" d="M243.59 37.1644C243.873 37.0038 244.22 37.0038 244.503 37.1644L260.177 46.081C260.459 46.2415 260.633 46.5382 260.633 46.8593V64.6925C260.633 65.0136 260.459 65.3103 260.177 65.4709L254.045 68.9592C253.709 69.1501 253.287 68.8652 253.302 68.4838C253.305 68.3904 253.307 68.2966 253.307 68.2023V66.8937C253.307 62.9731 250.082 59.7948 246.103 59.7948H241.896C237.917 59.7948 234.692 62.9731 234.692 66.8937V68.2023C234.692 68.2799 234.693 68.3572 234.695 68.4342C234.708 68.8139 234.287 69.0951 233.953 68.9052L227.916 65.4709C227.634 65.3103 227.46 65.0136 227.46 64.6925V46.8593C227.46 46.5382 227.634 46.2415 227.916 46.081L243.59 37.1644ZM248.976 53.1123C248.976 55.7948 246.769 57.9694 244.046 57.9694C241.324 57.9694 239.117 55.7948 239.117 53.1123C239.117 50.4298 241.324 48.2553 244.046 48.2553C246.769 48.2553 248.976 50.4298 248.976 53.1123Z" fill="#82B3DF" stroke="black" stroke-width="1.16303"/>
<path opacity="0.5" d="M251.135 38.8325V37.5566C251.135 36.8584 251.907 36.4268 252.515 36.7855L256.463 39.1146C256.738 39.277 256.907 39.5697 256.907 39.8857V41.1414C256.907 41.8381 256.137 42.2699 255.529 41.9143L251.581 39.6054C251.304 39.4435 251.135 39.1497 251.135 38.8325Z" fill="#82B3DF" stroke="black" stroke-width="1.16303"/>
<path opacity="0.5" fill-rule="evenodd" clip-rule="evenodd" d="M175.627 72.7642C175.909 72.6037 176.257 72.6037 176.539 72.7642L192.213 81.6808C192.495 81.8414 192.669 82.1381 192.669 82.4592V100.292C192.669 100.613 192.495 100.91 192.213 101.071L186.081 104.559C185.746 104.75 185.323 104.465 185.338 104.084C185.342 103.99 185.344 103.896 185.344 103.802V102.494C185.344 98.5729 182.118 95.3946 178.139 95.3946H173.933C169.954 95.3946 166.728 98.5729 166.728 102.494V103.802C166.728 103.88 166.729 103.957 166.732 104.034C166.744 104.414 166.324 104.695 165.99 104.505L159.953 101.071C159.67 100.91 159.497 100.613 159.497 100.292V82.4592C159.497 82.1381 159.67 81.8414 159.953 81.6808L175.627 72.7642ZM181.012 88.7122C181.012 91.3947 178.805 93.5693 176.083 93.5693C173.36 93.5693 171.153 91.3947 171.153 88.7122C171.153 86.0297 173.36 83.8551 176.083 83.8551C178.805 83.8551 181.012 86.0297 181.012 88.7122Z" fill="#82B3DF" stroke="black" stroke-width="1.16303"/>
<path opacity="0.5" d="M183.171 74.4326V73.1567C183.171 72.4585 183.944 72.0269 184.552 72.3856L188.5 74.7147C188.775 74.8771 188.943 75.1698 188.943 75.4858V76.7415C188.943 77.4382 188.173 77.87 187.565 77.5144L183.617 75.2055C183.341 75.0436 183.171 74.7498 183.171 74.4326Z" fill="#82B3DF" stroke="black" stroke-width="1.16303"/>
<path opacity="0.5" fill-rule="evenodd" clip-rule="evenodd" d="M220.936 72.7642C221.218 72.6037 221.566 72.6037 221.848 72.7642L237.522 81.6808C237.804 81.8414 237.978 82.1381 237.978 82.4592V100.292C237.978 100.613 237.804 100.91 237.522 101.071L231.39 104.559C231.055 104.75 230.632 104.465 230.647 104.084C230.651 103.99 230.653 103.896 230.653 103.802V102.494C230.653 98.5729 227.427 95.3946 223.448 95.3946H219.242C215.263 95.3946 212.037 98.5729 212.037 102.494V103.802C212.037 103.88 212.038 103.957 212.041 104.034C212.053 104.414 211.633 104.695 211.299 104.505L205.262 101.071C204.98 100.91 204.806 100.613 204.806 100.292V82.4592C204.806 82.1381 204.98 81.8414 205.262 81.6808L220.936 72.7642ZM226.321 88.7122C226.321 91.3947 224.114 93.5693 221.392 93.5693C218.669 93.5693 216.463 91.3947 216.463 88.7122C216.463 86.0297 218.669 83.8551 221.392 83.8551C224.114 83.8551 226.321 86.0297 226.321 88.7122Z" fill="#82B3DF" stroke="black" stroke-width="1.16303"/>
<path opacity="0.5" d="M228.48 74.4326V73.1567C228.48 72.4585 229.253 72.0269 229.861 72.3856L233.809 74.7147C234.084 74.8771 234.252 75.1698 234.252 75.4858V76.7415C234.252 77.4382 233.482 77.87 232.874 77.5144L228.927 75.2055C228.65 75.0436 228.48 74.7498 228.48 74.4326Z" fill="#82B3DF" stroke="black" stroke-width="1.16303"/>
<path fill-rule="evenodd" clip-rule="evenodd" d="M222.015 1.5645C222.297 1.40395 222.645 1.40395 222.927 1.5645L238.601 10.4811C238.883 10.6417 239.057 10.9384 239.057 11.2595V29.0927C239.057 29.4138 238.883 29.7105 238.601 29.871L232.469 33.3594C232.133 33.5502 231.711 33.2653 231.726 32.8839C231.73 32.7906 231.732 32.6967 231.732 32.6025V31.2938C231.732 27.3732 228.506 24.1949 224.527 24.1949H220.321C216.342 24.1949 213.116 27.3732 213.116 31.2938V32.6025C213.116 32.6801 213.117 32.7574 213.12 32.8344C213.132 33.214 212.711 33.4953 212.378 33.3053L206.341 29.871C206.058 29.7105 205.885 29.4138 205.885 29.0927V11.2595C205.885 10.9384 206.058 10.6417 206.341 10.4811L222.015 1.5645ZM227.4 17.5125C227.4 20.195 225.193 22.3695 222.471 22.3695C219.748 22.3695 217.541 20.195 217.541 17.5125C217.541 14.83 219.748 12.6554 222.471 12.6554C225.193 12.6554 227.4 14.83 227.4 17.5125Z" fill="#43BFDA" stroke="black" stroke-width="1.16303"/>
<path d="M229.559 3.2329V1.95703C229.559 1.2588 230.332 0.827237 230.94 1.18593L234.887 3.51502C235.163 3.67735 235.331 3.97013 235.331 4.28613V5.54177C235.331 6.23847 234.561 6.67025 233.953 6.31465L230.005 4.00577C229.729 3.84385 229.559 3.55012 229.559 3.2329Z" fill="#43BFDA" stroke="black" stroke-width="1.16303"/>
<path opacity="0.5" fill-rule="evenodd" clip-rule="evenodd" d="M175.627 1.5645C175.909 1.40395 176.257 1.40395 176.539 1.5645L192.213 10.4811C192.495 10.6417 192.669 10.9384 192.669 11.2595V29.0927C192.669 29.4138 192.495 29.7105 192.213 29.871L186.081 33.3594C185.746 33.5502 185.323 33.2653 185.338 32.8839C185.342 32.7906 185.344 32.6967 185.344 32.6025V31.2938C185.344 27.3732 182.118 24.1949 178.139 24.1949H173.933C169.954 24.1949 166.728 27.3732 166.728 31.2938V32.6025C166.728 32.6801 166.729 32.7574 166.732 32.8344C166.744 33.214 166.324 33.4953 165.99 33.3053L159.953 29.871C159.67 29.7105 159.497 29.4138 159.497 29.0927V11.2595C159.497 10.9384 159.67 10.6417 159.953 10.4811L175.627 1.5645ZM181.012 17.5125C181.012 20.195 178.805 22.3695 176.083 22.3695C173.36 22.3695 171.153 20.195 171.153 17.5125C171.153 14.83 173.36 12.6554 176.083 12.6554C178.805 12.6554 181.012 14.83 181.012 17.5125Z" fill="#82B3DF" stroke="black" stroke-width="1.16303"/>
<path opacity="0.5" d="M183.171 3.2329V1.95703C183.171 1.2588 183.944 0.827237 184.552 1.18593L188.5 3.51502C188.775 3.67735 188.943 3.97013 188.943 4.28613V5.54177C188.943 6.23847 188.173 6.67025 187.565 6.31465L183.617 4.00577C183.341 3.84385 183.171 3.55012 183.171 3.2329Z" fill="#82B3DF" stroke="black" stroke-width="1.16303"/>
<path opacity="0.5" fill-rule="evenodd" clip-rule="evenodd" d="M152.973 37.1644C153.255 37.0038 153.603 37.0038 153.885 37.1644L169.559 46.081C169.841 46.2415 170.015 46.5382 170.015 46.8593V64.6925C170.015 65.0136 169.841 65.3103 169.559 65.4709L163.427 68.9592C163.091 69.1501 162.669 68.8652 162.684 68.4838C162.688 68.3904 162.69 68.2966 162.69 68.2023V66.8937C162.69 62.9731 159.464 59.7948 155.485 59.7948H151.279C147.3 59.7948 144.074 62.9731 144.074 66.8937V68.2023C144.074 68.2799 144.075 68.3572 144.078 68.4342C144.09 68.8139 143.669 69.0951 143.336 68.9052L137.299 65.4709C137.016 65.3103 136.843 65.0136 136.843 64.6925V46.8593C136.843 46.5382 137.016 46.2415 137.299 46.081L152.973 37.1644ZM158.358 53.1123C158.358 55.7948 156.151 57.9694 153.429 57.9694C150.706 57.9694 148.499 55.7948 148.499 53.1123C148.499 50.4298 150.706 48.2553 153.429 48.2553C156.151 48.2553 158.358 50.4298 158.358 53.1123Z" fill="#82B3DF" stroke="black" stroke-width="1.16303"/>
<path opacity="0.5" d="M160.517 38.8325V37.5566C160.517 36.8584 161.29 36.4268 161.898 36.7855L165.845 39.1146C166.121 39.277 166.289 39.5697 166.289 39.8857V41.1414C166.289 41.8381 165.519 42.2699 164.911 41.9143L160.963 39.6054C160.687 39.4435 160.517 39.1497 160.517 38.8325Z" fill="#82B3DF" stroke="black" stroke-width="1.16303"/>
<path opacity="0.5" fill-rule="evenodd" clip-rule="evenodd" d="M130.318 1.5645C130.6 1.40395 130.948 1.40395 131.23 1.5645L146.904 10.4811C147.187 10.6417 147.36 10.9384 147.36 11.2595V29.0927C147.36 29.4138 147.187 29.7105 146.904 29.871L140.772 33.3594C140.437 33.5502 140.014 33.2653 140.029 32.8839C140.033 32.7906 140.035 32.6967 140.035 32.6025V31.2938C140.035 27.3732 136.809 24.1949 132.83 24.1949H128.624C124.645 24.1949 121.419 27.3732 121.419 31.2938V32.6025C121.419 32.6801 121.421 32.7574 121.423 32.8344C121.436 33.214 121.015 33.4953 120.681 33.3053L114.644 29.871C114.362 29.7105 114.188 29.4138 114.188 29.0927V11.2595C114.188 10.9384 114.362 10.6417 114.644 10.4811L130.318 1.5645ZM135.704 17.5125C135.704 20.195 133.497 22.3695 130.774 22.3695C128.052 22.3695 125.845 20.195 125.845 17.5125C125.845 14.83 128.052 12.6554 130.774 12.6554C133.497 12.6554 135.704 14.83 135.704 17.5125Z" fill="#82B3DF" stroke="black" stroke-width="1.16303"/>
<path opacity="0.5" d="M137.862 3.2329V1.95703C137.862 1.2588 138.635 0.827237 139.243 1.18593L143.191 3.51502C143.466 3.67735 143.634 3.97013 143.634 4.28613V5.54177C143.634 6.23847 142.865 6.67025 142.257 6.31465L138.309 4.00577C138.032 3.84385 137.862 3.55012 137.862 3.2329Z" fill="#82B3DF" stroke="black" stroke-width="1.16303"/>
<path opacity="0.5" fill-rule="evenodd" clip-rule="evenodd" d="M85.0096 72.7642C85.2918 72.6037 85.6395 72.6037 85.9217 72.7642L101.596 81.6808C101.878 81.8414 102.052 82.1381 102.052 82.4592V100.292C102.052 100.613 101.878 100.91 101.596 101.071L95.4638 104.559C95.1283 104.75 94.7058 104.465 94.7209 104.084C94.7246 103.99 94.7264 103.896 94.7264 103.802V102.494C94.7264 98.5729 91.5008 95.3946 87.5217 95.3946H83.3155C79.3365 95.3946 76.1109 98.5729 76.1109 102.494V103.802C76.1109 103.88 76.1121 103.957 76.1146 104.034C76.127 104.414 75.7064 104.695 75.3725 104.505L69.3355 101.071C69.0532 100.91 68.8794 100.613 68.8794 100.292V82.4592C68.8794 82.1381 69.0533 81.8414 69.3355 81.6808L85.0096 72.7642ZM90.3951 88.7122C90.3951 91.3947 88.1881 93.5693 85.4657 93.5693C82.7432 93.5693 80.5362 91.3947 80.5362 88.7122C80.5362 86.0297 82.7432 83.8551 85.4657 83.8551C88.1881 83.8551 90.3951 86.0297 90.3951 88.7122Z" fill="#82B3DF" stroke="black" stroke-width="1.16303"/>
<path opacity="0.5" d="M92.5537 74.4326V73.1567C92.5537 72.4585 93.3265 72.0269 93.9344 72.3856L97.8823 74.7147C98.1575 74.8771 98.3259 75.1698 98.3259 75.4858V76.7415C98.3259 77.4382 97.5562 77.87 96.9482 77.5144L93.0003 75.2055C92.7234 75.0436 92.5537 74.7498 92.5537 74.4326Z" fill="#82B3DF" stroke="black" stroke-width="1.16303"/>
<path opacity="0.5" fill-rule="evenodd" clip-rule="evenodd" d="M39.5591 72.7642C39.8414 72.6037 40.1891 72.6037 40.4713 72.7642L56.1454 81.6808C56.4276 81.8414 56.6015 82.1381 56.6015 82.4592V100.292C56.6015 100.613 56.4276 100.91 56.1454 101.071L50.0133 104.559C49.6779 104.75 49.2553 104.465 49.2704 104.084C49.2741 103.99 49.276 103.896 49.276 103.802V102.494C49.276 98.5729 46.0503 95.3946 42.0713 95.3946H37.8651C33.8861 95.3946 30.6604 98.5729 30.6604 102.494V103.802C30.6604 103.88 30.6617 103.957 30.6642 104.034C30.6766 104.414 30.2559 104.695 29.9221 104.505L23.885 101.071C23.6028 100.91 23.429 100.613 23.429 100.292V82.4592C23.429 82.1381 23.6028 81.8414 23.885 81.6808L39.5591 72.7642ZM44.9447 88.7122C44.9447 91.3947 42.7377 93.5693 40.0152 93.5693C37.2928 93.5693 35.0858 91.3947 35.0858 88.7122C35.0858 86.0297 37.2928 83.8551 40.0152 83.8551C42.7377 83.8551 44.9447 86.0297 44.9447 88.7122Z" fill="#82B3DF" stroke="black" stroke-width="1.16303"/>
<path opacity="0.5" d="M47.1033 74.4326V73.1567C47.1033 72.4585 47.876 72.0269 48.484 72.3856L52.4319 74.7147C52.707 74.8771 52.8755 75.1698 52.8755 75.4858V76.7415C52.8755 77.4382 52.1058 77.87 51.4977 77.5144L47.5499 75.2055C47.273 75.0436 47.1033 74.7498 47.1033 74.4326Z" fill="#82B3DF" stroke="black" stroke-width="1.16303"/>
<path opacity="0.5" fill-rule="evenodd" clip-rule="evenodd" d="M312.796 72.7642C313.078 72.6037 313.426 72.6037 313.708 72.7642L329.382 81.6808C329.664 81.8414 329.838 82.1381 329.838 82.4592V100.292C329.838 100.613 329.664 100.91 329.382 101.071L323.25 104.559C322.914 104.75 322.492 104.465 322.507 104.084C322.511 103.99 322.513 103.896 322.513 103.802V102.494C322.513 98.5729 319.287 95.3946 315.308 95.3946H311.102C307.123 95.3946 303.897 98.5729 303.897 102.494V103.802C303.897 103.88 303.898 103.957 303.901 104.034C303.913 104.414 303.492 104.695 303.159 104.505L297.122 101.071C296.839 100.91 296.666 100.613 296.666 100.292V82.4592C296.666 82.1381 296.839 81.8414 297.122 81.6808L312.796 72.7642ZM318.181 88.7122C318.181 91.3947 315.974 93.5693 313.252 93.5693C310.529 93.5693 308.322 91.3947 308.322 88.7122C308.322 86.0297 310.529 83.8551 313.252 83.8551C315.974 83.8551 318.181 86.0297 318.181 88.7122Z" fill="#82B3DF" stroke="black" stroke-width="1.16303"/>
<path opacity="0.5" d="M320.34 74.4326V73.1567C320.34 72.4585 321.113 72.0269 321.721 72.3856L325.668 74.7147C325.944 74.8771 326.112 75.1698 326.112 75.4858V76.7415C326.112 77.4382 325.342 77.87 324.734 77.5144L320.786 75.2055C320.51 75.0436 320.34 74.7498 320.34 74.4326Z" fill="#82B3DF" stroke="black" stroke-width="1.16303"/>
<path opacity="0.5" fill-rule="evenodd" clip-rule="evenodd" d="M358.246 72.7642C358.528 72.6037 358.876 72.6037 359.158 72.7642L374.832 81.6808C375.115 81.8414 375.288 82.1381 375.288 82.4592V100.292C375.288 100.613 375.115 100.91 374.832 101.071L368.7 104.559C368.365 104.75 367.942 104.465 367.957 104.084C367.961 103.99 367.963 103.896 367.963 103.802V102.494C367.963 98.5729 364.737 95.3946 360.758 95.3946H356.552C352.573 95.3946 349.347 98.5729 349.347 102.494V103.802C349.347 103.88 349.349 103.957 349.351 104.034C349.364 104.414 348.943 104.695 348.609 104.505L342.572 101.071C342.29 100.91 342.116 100.613 342.116 100.292V82.4592C342.116 82.1381 342.29 81.8414 342.572 81.6808L358.246 72.7642ZM363.632 88.7122C363.632 91.3947 361.425 93.5693 358.702 93.5693C355.98 93.5693 353.773 91.3947 353.773 88.7122C353.773 86.0297 355.98 83.8551 358.702 83.8551C361.425 83.8551 363.632 86.0297 363.632 88.7122Z" fill="#82B3DF" stroke="black" stroke-width="1.16303"/>
<path opacity="0.5" d="M365.79 74.4326V73.1567C365.79 72.4585 366.563 72.0269 367.171 72.3856L371.119 74.7147C371.394 74.8771 371.562 75.1698 371.562 75.4858V76.7415C371.562 77.4382 370.793 77.87 370.185 77.5144L366.237 75.2055C365.96 75.0436 365.79 74.7498 365.79 74.4326Z" fill="#82B3DF" stroke="black" stroke-width="1.16303"/>
<path opacity="0.5" fill-rule="evenodd" clip-rule="evenodd" d="M403.697 72.7642C403.979 72.6037 404.327 72.6037 404.609 72.7642L420.283 81.6808C420.565 81.8414 420.739 82.1381 420.739 82.4592V100.292C420.739 100.613 420.565 100.91 420.283 101.071L414.151 104.559C413.815 104.75 413.393 104.465 413.408 104.084C413.412 103.99 413.413 103.896 413.413 103.802V102.494C413.413 98.5729 410.188 95.3946 406.209 95.3946H402.003C398.024 95.3946 394.798 98.5729 394.798 102.494V103.802C394.798 103.88 394.799 103.957 394.802 104.034C394.814 104.414 394.393 104.695 394.06 104.505L388.022 101.071C387.74 100.91 387.566 100.613 387.566 100.292V82.4592C387.566 82.1381 387.74 81.8414 388.022 81.6808L403.697 72.7642ZM409.082 88.7122C409.082 91.3947 406.875 93.5693 404.153 93.5693C401.43 93.5693 399.223 91.3947 399.223 88.7122C399.223 86.0297 401.43 83.8551 404.153 83.8551C406.875 83.8551 409.082 86.0297 409.082 88.7122Z" fill="#82B3DF" stroke="black" stroke-width="1.16303"/>
<path opacity="0.5" d="M411.241 74.4326V73.1567C411.241 72.4585 412.013 72.0269 412.621 72.3856L416.569 74.7147C416.844 74.8771 417.013 75.1698 417.013 75.4858V76.7415C417.013 77.4382 416.243 77.87 415.635 77.5144L411.687 75.2055C411.41 75.0436 411.241 74.7498 411.241 74.4326Z" fill="#82B3DF" stroke="black" stroke-width="1.16303"/>
<path opacity="0.5" fill-rule="evenodd" clip-rule="evenodd" d="M62.355 37.1644C62.6373 37.0038 62.985 37.0038 63.2672 37.1644L78.9413 46.081C79.2235 46.2415 79.3974 46.5382 79.3974 46.8593V64.6925C79.3974 65.0136 79.2235 65.3103 78.9413 65.4709L72.8092 68.9592C72.4738 69.1501 72.0512 68.8652 72.0663 68.4838C72.07 68.3904 72.0719 68.2966 72.0719 68.2023V66.8937C72.0719 62.9731 68.8462 59.7948 64.8672 59.7948H60.661C56.682 59.7948 53.4563 62.9731 53.4563 66.8937V68.2023C53.4563 68.2799 53.4576 68.3572 53.4601 68.4342C53.4725 68.8139 53.0518 69.0951 52.718 68.9052L46.6809 65.4709C46.3987 65.3103 46.2249 65.0136 46.2249 64.6925V46.8593C46.2249 46.5382 46.3987 46.2415 46.6809 46.081L62.355 37.1644ZM67.7406 53.1123C67.7406 55.7948 65.5336 57.9694 62.8111 57.9694C60.0887 57.9694 57.8817 55.7948 57.8817 53.1123C57.8817 50.4298 60.0887 48.2553 62.8111 48.2553C65.5336 48.2553 67.7406 50.4298 67.7406 53.1123Z" fill="#82B3DF" stroke="black" stroke-width="1.16303"/>
<path opacity="0.5" d="M69.8992 38.8325V37.5566C69.8992 36.8584 70.6719 36.4268 71.2799 36.7855L75.2278 39.1146C75.5029 39.277 75.6714 39.5697 75.6714 39.8857V41.1414C75.6714 41.8381 74.9017 42.2699 74.2936 41.9143L70.3457 39.6054C70.0689 39.4435 69.8992 39.1497 69.8992 38.8325Z" fill="#82B3DF" stroke="black" stroke-width="1.16303"/>
<path opacity="0.5" fill-rule="evenodd" clip-rule="evenodd" d="M16.9046 37.1644C17.1868 37.0038 17.5345 37.0038 17.8167 37.1644L33.4908 46.081C33.7731 46.2415 33.9469 46.5382 33.9469 46.8593V64.6925C33.9469 65.0136 33.7731 65.3103 33.4908 65.4709L27.3588 68.9592C27.0233 69.1501 26.6008 68.8652 26.6159 68.4838C26.6196 68.3904 26.6214 68.2966 26.6214 68.2023V66.8937C26.6214 62.9731 23.3958 59.7948 19.4168 59.7948H15.2106C11.2315 59.7948 8.00588 62.9731 8.00588 66.8937V68.2023C8.00588 68.2799 8.00714 68.3572 8.00965 68.4342C8.02201 68.8139 7.60138 69.0951 7.26752 68.9052L1.23049 65.4709C0.948269 65.3103 0.774414 65.0136 0.774414 64.6925V46.8593C0.774414 46.5382 0.94827 46.2415 1.23049 46.081L16.9046 37.1644ZM22.2901 53.1123C22.2901 55.7948 20.0831 57.9694 17.3607 57.9694C14.6382 57.9694 12.4313 55.7948 12.4313 53.1123C12.4313 50.4298 14.6382 48.2553 17.3607 48.2553C20.0831 48.2553 22.2901 50.4298 22.2901 53.1123Z" fill="#82B3DF" stroke="black" stroke-width="1.16303"/>
<path opacity="0.5" d="M24.4487 38.8325V37.5566C24.4487 36.8584 25.2215 36.4268 25.8295 36.7855L29.7773 39.1146C30.0525 39.277 30.2209 39.5697 30.2209 39.8857V41.1414C30.2209 41.8381 29.4512 42.2699 28.8432 41.9143L24.8953 39.6054C24.6185 39.4435 24.4487 39.1497 24.4487 38.8325Z" fill="#82B3DF" stroke="black" stroke-width="1.16303"/>
<path fill-rule="evenodd" clip-rule="evenodd" d="M335.592 37.1644C335.874 37.0038 336.222 37.0038 336.504 37.1644L352.178 46.081C352.46 46.2415 352.634 46.5382 352.634 46.8593V64.6925C352.634 65.0136 352.46 65.3103 352.178 65.4709L346.046 68.9592C345.71 69.1501 345.288 68.8652 345.303 68.4838C345.307 68.3904 345.308 68.2966 345.308 68.2023V66.8937C345.308 62.9731 342.083 59.7948 338.104 59.7948H333.898C329.919 59.7948 326.693 62.9731 326.693 66.8937V68.2023C326.693 68.2799 326.694 68.3572 326.697 68.4342C326.709 68.8139 326.288 69.0951 325.955 68.9052L319.918 65.4709C319.635 65.3103 319.461 65.0136 319.461 64.6925V46.8593C319.461 46.5382 319.635 46.2415 319.918 46.081L335.592 37.1644ZM340.977 53.1123C340.977 55.7948 338.77 57.9694 336.048 57.9694C333.325 57.9694 331.118 55.7948 331.118 53.1123C331.118 50.4298 333.325 48.2553 336.048 48.2553C338.77 48.2553 340.977 50.4298 340.977 53.1123Z" fill="black" stroke="black" stroke-width="1.16303"/>
<path d="M343.136 38.8325V37.5566C343.136 36.8584 343.908 36.4268 344.516 36.7855L348.464 39.1146C348.74 39.277 348.908 39.5697 348.908 39.8857V41.1414C348.908 41.8381 348.138 42.2699 347.53 41.9143L343.582 39.6054C343.305 39.4435 343.136 39.1497 343.136 38.8325Z" fill="black" stroke="black" stroke-width="1.16303"/>
<path opacity="0.5" fill-rule="evenodd" clip-rule="evenodd" d="M381.042 37.1644C381.324 37.0038 381.672 37.0038 381.954 37.1644L397.628 46.081C397.911 46.2415 398.084 46.5382 398.084 46.8593V64.6925C398.084 65.0136 397.911 65.3103 397.628 65.4709L391.496 68.9592C391.161 69.1501 390.738 68.8652 390.753 68.4838C390.757 68.3904 390.759 68.2966 390.759 68.2023V66.8937C390.759 62.9731 387.533 59.7948 383.554 59.7948H379.348C375.369 59.7948 372.143 62.9731 372.143 66.8937V68.2023C372.143 68.2799 372.145 68.3572 372.147 68.4342C372.159 68.8139 371.739 69.0951 371.405 68.9052L365.368 65.4709C365.086 65.3103 364.912 65.0136 364.912 64.6925V46.8593C364.912 46.5382 365.086 46.2415 365.368 46.081L381.042 37.1644ZM386.428 53.1123C386.428 55.7948 384.221 57.9694 381.498 57.9694C378.776 57.9694 376.569 55.7948 376.569 53.1123C376.569 50.4298 378.776 48.2553 381.498 48.2553C384.221 48.2553 386.428 50.4298 386.428 53.1123Z" fill="#82B3DF" stroke="black" stroke-width="1.16303"/>
<path opacity="0.5" d="M388.586 38.8325V37.5566C388.586 36.8584 389.359 36.4268 389.967 36.7855L393.915 39.1146C394.19 39.277 394.358 39.5697 394.358 39.8857V41.1414C394.358 41.8381 393.589 42.2699 392.981 41.9143L389.033 39.6054C388.756 39.4435 388.586 39.1497 388.586 38.8325Z" fill="#82B3DF" stroke="black" stroke-width="1.16303"/>
<path opacity="0.5" fill-rule="evenodd" clip-rule="evenodd" d="M425.958 37.1644C426.24 37.0038 426.588 37.0038 426.87 37.1644L442.544 46.081C442.827 46.2415 443 46.5382 443 46.8593V64.6925C443 65.0136 442.827 65.3103 442.544 65.4709L436.412 68.9592C436.077 69.1501 435.654 68.8652 435.669 68.4838C435.673 68.3904 435.675 68.2966 435.675 68.2023V66.8937C435.675 62.9731 432.449 59.7948 428.47 59.7948H424.264C420.285 59.7948 417.059 62.9731 417.059 66.8937V68.2023C417.059 68.2799 417.061 68.3572 417.063 68.4342C417.075 68.8139 416.655 69.0951 416.321 68.9052L410.284 65.4709C410.002 65.3103 409.828 65.0136 409.828 64.6925V46.8593C409.828 46.5382 410.002 46.2415 410.284 46.081L425.958 37.1644ZM431.344 53.1123C431.344 55.7948 429.137 57.9694 426.414 57.9694C423.692 57.9694 421.485 55.7948 421.485 53.1123C421.485 50.4298 423.692 48.2553 426.414 48.2553C429.137 48.2553 431.344 50.4298 431.344 53.1123Z" fill="#82B3DF" stroke="black" stroke-width="1.16303"/>
<path opacity="0.5" d="M433.502 38.8325V37.5566C433.502 36.8584 434.275 36.4268 434.883 36.7855L438.831 39.1146C439.106 39.277 439.274 39.5697 439.274 39.8857V41.1414C439.274 41.8381 438.504 42.2699 437.896 41.9143L433.949 39.6054C433.672 39.4435 433.502 39.1497 433.502 38.8325Z" fill="#82B3DF" stroke="black" stroke-width="1.16303"/>
<g opacity="0.5">
<path fill-rule="evenodd" clip-rule="evenodd" d="M85.0096 1.5645C85.2918 1.40395 85.6395 1.40395 85.9217 1.5645L101.596 10.4811C101.878 10.6417 102.052 10.9384 102.052 11.2595V29.0927C102.052 29.4138 101.878 29.7105 101.596 29.871L95.4638 33.3594C95.1283 33.5502 94.7058 33.2653 94.7209 32.8839C94.7246 32.7906 94.7264 32.6967 94.7264 32.6025V31.2938C94.7264 27.3732 91.5008 24.1949 87.5217 24.1949H83.3155C79.3365 24.1949 76.1109 27.3732 76.1109 31.2938V32.6025C76.1109 32.6801 76.1121 32.7574 76.1146 32.8344C76.127 33.214 75.7064 33.4953 75.3725 33.3053L69.3355 29.871C69.0532 29.7105 68.8794 29.4138 68.8794 29.0927V11.2595C68.8794 10.9384 69.0533 10.6417 69.3355 10.4811L85.0096 1.5645ZM90.3951 17.5125C90.3951 20.195 88.1881 22.3695 85.4657 22.3695C82.7432 22.3695 80.5362 20.195 80.5362 17.5125C80.5362 14.83 82.7432 12.6554 85.4657 12.6554C88.1881 12.6554 90.3951 14.83 90.3951 17.5125Z" fill="#82B3DF" stroke="black" stroke-width="1.16303"/>
<path d="M92.5537 3.2329V1.95703C92.5537 1.2588 93.3265 0.827237 93.9344 1.18593L97.8823 3.51502C98.1575 3.67735 98.3259 3.97013 98.3259 4.28613V5.54177C98.3259 6.23847 97.5562 6.67025 96.9482 6.31465L93.0003 4.00577C92.7234 3.84385 92.5537 3.55012 92.5537 3.2329Z" fill="#82B3DF" stroke="black" stroke-width="1.16303"/>
</g>
<path fill-rule="evenodd" clip-rule="evenodd" d="M39.3394 1.5645C39.6216 1.40395 39.9693 1.40395 40.2516 1.5645L55.9257 10.4811C56.2079 10.6417 56.3817 10.9384 56.3817 11.2595V29.0927C56.3817 29.4138 56.2079 29.7105 55.9257 29.871L49.7936 33.3594C49.4582 33.5502 49.0356 33.2653 49.0507 32.8839C49.0544 32.7906 49.0563 32.6967 49.0563 32.6025V31.2938C49.0563 27.3732 45.8306 24.1949 41.8516 24.1949H37.6454C33.6663 24.1949 30.4407 27.3732 30.4407 31.2938V32.6025C30.4407 32.6801 30.442 32.7574 30.4445 32.8344C30.4568 33.214 30.0362 33.4953 29.7023 33.3053L23.6653 29.871C23.3831 29.7105 23.2092 29.4138 23.2092 29.0927V11.2595C23.2092 10.9384 23.3831 10.6417 23.6653 10.4811L39.3394 1.5645ZM44.7249 17.5125C44.7249 20.195 42.518 22.3695 39.7955 22.3695C37.0731 22.3695 34.8661 20.195 34.8661 17.5125C34.8661 14.83 37.0731 12.6554 39.7955 12.6554C42.518 12.6554 44.7249 14.83 44.7249 17.5125Z" fill="white" stroke="black" stroke-width="1.16303"/>
<path d="M46.8835 3.2329V1.95703C46.8835 1.2588 47.6563 0.827237 48.2643 1.18593L52.2122 3.51502C52.4873 3.67735 52.6557 3.97013 52.6557 4.28613V5.54177C52.6557 6.23847 51.886 6.67025 51.278 6.31465L47.3301 4.00577C47.0533 3.84385 46.8835 3.55012 46.8835 3.2329Z" fill="white" stroke="black" stroke-width="1.16303"/>
<g opacity="0.5">
<path fill-rule="evenodd" clip-rule="evenodd" d="M312.796 1.5645C313.078 1.40395 313.426 1.40395 313.708 1.5645L329.382 10.4811C329.664 10.6417 329.838 10.9384 329.838 11.2595V29.0927C329.838 29.4138 329.664 29.7105 329.382 29.871L323.25 33.3594C322.914 33.5502 322.492 33.2653 322.507 32.8839C322.511 32.7906 322.513 32.6967 322.513 32.6025V31.2938C322.513 27.3732 319.287 24.1949 315.308 24.1949H311.102C307.123 24.1949 303.897 27.3732 303.897 31.2938V32.6025C303.897 32.6801 303.898 32.7574 303.901 32.8344C303.913 33.214 303.492 33.4953 303.159 33.3053L297.122 29.871C296.839 29.7105 296.666 29.4138 296.666 29.0927V11.2595C296.666 10.9384 296.839 10.6417 297.122 10.4811L312.796 1.5645ZM318.181 17.5125C318.181 20.195 315.974 22.3695 313.252 22.3695C310.529 22.3695 308.322 20.195 308.322 17.5125C308.322 14.83 310.529 12.6554 313.252 12.6554C315.974 12.6554 318.181 14.83 318.181 17.5125Z" fill="#82B3DF" stroke="black" stroke-width="1.16303"/>
<path d="M320.34 3.2329V1.95703C320.34 1.2588 321.113 0.827237 321.721 1.18593L325.668 3.51502C325.944 3.67735 326.112 3.97013 326.112 4.28613V5.54177C326.112 6.23847 325.342 6.67025 324.734 6.31465L320.786 4.00577C320.51 3.84385 320.34 3.55012 320.34 3.2329Z" fill="#82B3DF" stroke="black" stroke-width="1.16303"/>
</g>
<g opacity="0.5">
<path fill-rule="evenodd" clip-rule="evenodd" d="M358.246 1.5645C358.528 1.40395 358.876 1.40395 359.158 1.5645L374.832 10.4811C375.115 10.6417 375.288 10.9384 375.288 11.2595V29.0927C375.288 29.4138 375.115 29.7105 374.832 29.871L368.7 33.3594C368.365 33.5502 367.942 33.2653 367.957 32.8839C367.961 32.7906 367.963 32.6967 367.963 32.6025V31.2938C367.963 27.3732 364.737 24.1949 360.758 24.1949H356.552C352.573 24.1949 349.347 27.3732 349.347 31.2938V32.6025C349.347 32.6801 349.349 32.7574 349.351 32.8344C349.364 33.214 348.943 33.4953 348.609 33.3053L342.572 29.871C342.29 29.7105 342.116 29.4138 342.116 29.0927V11.2595C342.116 10.9384 342.29 10.6417 342.572 10.4811L358.246 1.5645ZM363.632 17.5125C363.632 20.195 361.425 22.3695 358.702 22.3695C355.98 22.3695 353.773 20.195 353.773 17.5125C353.773 14.83 355.98 12.6554 358.702 12.6554C361.425 12.6554 363.632 14.83 363.632 17.5125Z" fill="#82B3DF" stroke="black" stroke-width="1.16303"/>
<path d="M365.79 3.2329V1.95703C365.79 1.2588 366.563 0.827237 367.171 1.18593L371.119 3.51502C371.394 3.67735 371.562 3.97013 371.562 4.28613V5.54177C371.562 6.23847 370.793 6.67025 370.185 6.31465L366.237 4.00577C365.96 3.84385 365.79 3.55012 365.79 3.2329Z" fill="#82B3DF" stroke="black" stroke-width="1.16303"/>
</g>
<g opacity="0.5">
<path fill-rule="evenodd" clip-rule="evenodd" d="M403.697 1.5645C403.979 1.40395 404.327 1.40395 404.609 1.5645L420.283 10.4811C420.565 10.6417 420.739 10.9384 420.739 11.2595V29.0927C420.739 29.4138 420.565 29.7105 420.283 29.871L414.151 33.3594C413.815 33.5502 413.393 33.2653 413.408 32.8839C413.412 32.7906 413.413 32.6967 413.413 32.6025V31.2938C413.413 27.3732 410.188 24.1949 406.209 24.1949H402.003C398.024 24.1949 394.798 27.3732 394.798 31.2938V32.6025C394.798 32.6801 394.799 32.7574 394.802 32.8344C394.814 33.214 394.393 33.4953 394.06 33.3053L388.022 29.871C387.74 29.7105 387.566 29.4138 387.566 29.0927V11.2595C387.566 10.9384 387.74 10.6417 388.022 10.4811L403.697 1.5645ZM409.082 17.5125C409.082 20.195 406.875 22.3695 404.153 22.3695C401.43 22.3695 399.223 20.195 399.223 17.5125C399.223 14.83 401.43 12.6554 404.153 12.6554C406.875 12.6554 409.082 14.83 409.082 17.5125Z" fill="#82B3DF" stroke="black" stroke-width="1.16303"/>
<path d="M411.241 3.2329V1.95703C411.241 1.2588 412.013 0.827237 412.621 1.18593L416.569 3.51502C416.844 3.67735 417.013 3.97013 417.013 4.28613V5.54177C417.013 6.23847 416.243 6.67025 415.635 6.31465L411.687 4.00577C411.41 3.84385 411.241 3.55012 411.241 3.2329Z" fill="#82B3DF" stroke="black" stroke-width="1.16303"/>
</g>
<path fill-rule="evenodd" clip-rule="evenodd" d="M266.244 72.7642C266.527 72.6037 266.874 72.6037 267.157 72.7642L282.831 81.6808C283.113 81.8414 283.287 82.1381 283.287 82.4592V100.292C283.287 100.613 283.113 100.91 282.831 101.071L276.699 104.559C276.363 104.75 275.941 104.465 275.956 104.084C275.959 103.99 275.961 103.896 275.961 103.802V102.494C275.961 98.5729 272.736 95.3946 268.757 95.3946H264.55C260.571 95.3946 257.346 98.5729 257.346 102.494V103.802C257.346 103.88 257.347 103.957 257.349 104.034C257.362 104.414 256.941 104.695 256.607 104.505L250.57 101.071C250.288 100.91 250.114 100.613 250.114 100.292V82.4592C250.114 82.1381 250.288 81.8414 250.57 81.6808L266.244 72.7642ZM271.63 88.7122C271.63 91.3947 269.423 93.5693 266.701 93.5693C263.978 93.5693 261.771 91.3947 261.771 88.7122C261.771 86.0297 263.978 83.8551 266.701 83.8551C269.423 83.8551 271.63 86.0297 271.63 88.7122Z" fill="#DD4C80" stroke="black" stroke-width="1.16303"/>
<path d="M273.789 74.4326V73.1567C273.789 72.4585 274.561 72.0269 275.169 72.3856L279.117 74.7147C279.392 74.8771 279.561 75.1698 279.561 75.4858V76.7415C279.561 77.4382 278.791 77.87 278.183 77.5144L274.235 75.2055C273.958 75.0436 273.789 74.7498 273.789 74.4326Z" fill="#DD4C80" stroke="black" stroke-width="1.16303"/>
<path opacity="0.5" fill-rule="evenodd" clip-rule="evenodd" d="M288.899 37.1644C289.181 37.0038 289.529 37.0038 289.811 37.1644L305.485 46.081C305.767 46.2415 305.941 46.5382 305.941 46.8593V64.6925C305.941 65.0136 305.767 65.3103 305.485 65.4709L299.353 68.9592C299.018 69.1501 298.595 68.8652 298.61 68.4838C298.614 68.3904 298.616 68.2966 298.616 68.2023V66.8937C298.616 62.9731 295.39 59.7948 291.411 59.7948H287.205C283.226 59.7948 280 62.9731 280 66.8937V68.2023C280 68.2799 280.002 68.3572 280.004 68.4342C280.016 68.8139 279.596 69.0951 279.262 68.9052L273.225 65.4709C272.943 65.3103 272.769 65.0136 272.769 64.6925V46.8593C272.769 46.5382 272.943 46.2415 273.225 46.081L288.899 37.1644ZM294.285 53.1123C294.285 55.7948 292.078 57.9694 289.355 57.9694C286.633 57.9694 284.426 55.7948 284.426 53.1123C284.426 50.4298 286.633 48.2553 289.355 48.2553C292.078 48.2553 294.285 50.4298 294.285 53.1123Z" fill="#82B3DF" stroke="black" stroke-width="1.16303"/>
<path opacity="0.5" d="M296.443 38.8325V37.5566C296.443 36.8584 297.216 36.4268 297.824 36.7855L301.772 39.1146C302.047 39.277 302.215 39.5697 302.215 39.8857V41.1414C302.215 41.8381 301.446 42.2699 300.838 41.9143L296.89 39.6054C296.613 39.4435 296.443 39.1497 296.443 38.8325Z" fill="#82B3DF" stroke="black" stroke-width="1.16303"/>
<path opacity="0.5" fill-rule="evenodd" clip-rule="evenodd" d="M267.323 1.5645C267.605 1.40395 267.953 1.40395 268.235 1.5645L283.909 10.4811C284.192 10.6417 284.365 10.9384 284.365 11.2595V29.0927C284.365 29.4138 284.192 29.7105 283.909 29.871L277.777 33.3594C277.442 33.5502 277.019 33.2653 277.034 32.8839C277.038 32.7906 277.04 32.6967 277.04 32.6025V31.2938C277.04 27.3732 273.814 24.1949 269.835 24.1949H265.629C261.65 24.1949 258.424 27.3732 258.424 31.2938V32.6025C258.424 32.6801 258.426 32.7574 258.428 32.8344C258.44 33.214 258.02 33.4953 257.686 33.3053L251.649 29.871C251.367 29.7105 251.193 29.4138 251.193 29.0927V11.2595C251.193 10.9384 251.367 10.6417 251.649 10.4811L267.323 1.5645ZM272.709 17.5125C272.709 20.195 270.502 22.3695 267.779 22.3695C265.057 22.3695 262.85 20.195 262.85 17.5125C262.85 14.83 265.057 12.6554 267.779 12.6554C270.502 12.6554 272.709 14.83 272.709 17.5125Z" fill="#82B3DF" stroke="black" stroke-width="1.16303"/>
<path opacity="0.5" d="M274.867 3.2329V1.95703C274.867 1.2588 275.64 0.827237 276.248 1.18593L280.196 3.51502C280.471 3.67735 280.64 3.97013 280.64 4.28613V5.54177C280.64 6.23847 279.87 6.67025 279.262 6.31465L275.314 4.00577C275.037 3.84385 274.867 3.55012 274.867 3.2329Z" fill="#82B3DF" stroke="black" stroke-width="1.16303"/>
<path fill-rule="evenodd" clip-rule="evenodd" d="M130.318 72.7642C130.6 72.6037 130.948 72.6037 131.23 72.7642L146.904 81.6808C147.187 81.8414 147.36 82.1381 147.36 82.4592V100.292C147.36 100.613 147.187 100.91 146.904 101.071L140.772 104.559C140.437 104.75 140.014 104.465 140.029 104.084C140.033 103.99 140.035 103.896 140.035 103.802V102.494C140.035 98.5729 136.809 95.3946 132.83 95.3946H128.624C124.645 95.3946 121.419 98.5729 121.419 102.494V103.802C121.419 103.88 121.421 103.957 121.423 104.034C121.436 104.414 121.015 104.695 120.681 104.505L114.644 101.071C114.362 100.91 114.188 100.613 114.188 100.292V82.4592C114.188 82.1381 114.362 81.8414 114.644 81.6808L130.318 72.7642ZM135.704 88.7122C135.704 91.3947 133.497 93.5693 130.774 93.5693C128.052 93.5693 125.845 91.3947 125.845 88.7122C125.845 86.0297 128.052 83.8551 130.774 83.8551C133.497 83.8551 135.704 86.0297 135.704 88.7122Z" fill="#82DFB2" stroke="black" stroke-width="1.16303"/>
<path d="M137.862 74.4326V73.1567C137.862 72.4585 138.635 72.0269 139.243 72.3856L143.191 74.7147C143.466 74.8771 143.634 75.1698 143.634 75.4858V76.7415C143.634 77.4382 142.865 77.87 142.257 77.5144L138.309 75.2055C138.032 75.0436 137.862 74.7498 137.862 74.4326Z" fill="#82DFB2" stroke="black" stroke-width="1.16303"/>
<path fill-rule="evenodd" clip-rule="evenodd" d="M198.281 37.1644C198.564 37.0038 198.911 37.0038 199.193 37.1644L214.868 46.081C215.15 46.2415 215.324 46.5382 215.324 46.8593V64.6925C215.324 65.0136 215.15 65.3103 214.868 65.4709L208.735 68.9592C208.4 69.1501 207.977 68.8652 207.993 68.4838C207.996 68.3904 207.998 68.2966 207.998 68.2023V66.8937C207.998 62.9731 204.773 59.7948 200.793 59.7948H196.587C192.608 59.7948 189.383 62.9731 189.383 66.8937V68.2023C189.383 68.2799 189.384 68.3572 189.386 68.4342C189.399 68.8139 188.978 69.0951 188.644 68.9052L182.607 65.4709C182.325 65.3103 182.151 65.0136 182.151 64.6925V46.8593C182.151 46.5382 182.325 46.2415 182.607 46.081L198.281 37.1644ZM203.667 53.1123C203.667 55.7948 201.46 57.9694 198.737 57.9694C196.015 57.9694 193.808 55.7948 193.808 53.1123C193.808 50.4298 196.015 48.2553 198.737 48.2553C201.46 48.2553 203.667 50.4298 203.667 53.1123Z" fill="#FFBF60" stroke="black" stroke-width="1.16303"/>
<path d="M205.825 38.8325V37.5566C205.825 36.8584 206.598 36.4268 207.206 36.7855L211.154 39.1146C211.429 39.277 211.598 39.5697 211.598 39.8857V41.1414C211.598 41.8381 210.828 42.2699 210.22 41.9143L206.272 39.6054C205.995 39.4435 205.825 39.1497 205.825 38.8325Z" fill="#FFBF60" stroke="black" stroke-width="1.16303"/>
</svg>
