<svg width="102" height="115" viewBox="0 0 102 115" fill="none" xmlns="http://www.w3.org/2000/svg">
<circle cx="51" cy="64" r="50" fill="#82DFB2" stroke="black" stroke-width="2"/>
<path fill-rule="evenodd" clip-rule="evenodd" d="M74.7142 45.9613C76.3885 47.4025 76.5775 49.9281 75.1364 51.6024L50.3466 80.4029C50.2566 80.5076 50.1623 80.6064 50.0642 80.6994C48.5931 82.0945 46.2752 82.1762 44.7056 80.8251L28.0316 66.4731C26.3573 65.0319 26.1683 62.5063 27.6094 60.832C29.0506 59.1577 31.5762 58.9687 33.2505 60.4098L46.8928 72.1524L69.0731 46.3835C70.5143 44.7092 73.0399 44.5202 74.7142 45.9613Z" fill="white"/>
<path d="M75.1364 51.6024L74.3785 50.9501L74.3785 50.9501L75.1364 51.6024ZM50.3466 80.4029L51.1046 81.0553L50.3466 80.4029ZM50.0642 80.6994L49.3761 79.9738L49.3761 79.9738L50.0642 80.6994ZM44.7056 80.8251L44.0532 81.583L44.0532 81.583L44.7056 80.8251ZM28.0316 66.4731L28.684 65.7152L28.684 65.7152L28.0316 66.4731ZM33.2505 60.4098L32.5981 61.1677L32.5981 61.1677L33.2505 60.4098ZM46.8928 72.1524L47.6507 72.8047L46.9984 73.5627L46.2405 72.9103L46.8928 72.1524ZM69.0731 46.3835L68.3152 45.7312L68.3152 45.7312L69.0731 46.3835ZM74.3785 50.9501C75.4594 49.6943 75.3176 47.8001 74.0618 46.7192L75.3666 45.2034C77.4595 47.0049 77.6957 50.1619 75.8943 52.2548L74.3785 50.9501ZM49.5887 79.7505L74.3785 50.9501L75.8943 52.2548L51.1046 81.0553L49.5887 79.7505ZM49.3761 79.9738C49.4497 79.904 49.5207 79.8296 49.5887 79.7505L51.1046 81.0553C50.9924 81.1855 50.8748 81.3088 50.7523 81.425L49.3761 79.9738ZM45.3579 80.0672C46.5347 81.0801 48.2735 81.0194 49.3761 79.9738L50.7523 81.425C48.9127 83.1696 46.0158 83.2723 44.0532 81.583L45.3579 80.0672ZM28.684 65.7152L45.3579 80.0672L44.0532 81.583L27.3792 67.231L28.684 65.7152ZM28.3673 61.4844C27.2865 62.7401 27.4282 64.6343 28.684 65.7152L27.3793 67.231C25.2863 65.4296 25.0501 62.2726 26.8515 60.1797L28.3673 61.4844ZM32.5981 61.1677C31.3424 60.0869 29.4482 60.2286 28.3673 61.4844L26.8515 60.1797C28.653 58.0867 31.81 57.8505 33.9029 59.6519L32.5981 61.1677ZM46.2405 72.9103L32.5981 61.1677L33.9029 59.6519L47.5452 71.3945L46.2405 72.9103ZM69.831 47.0359L47.6507 72.8047L46.1349 71.5L68.3152 45.7312L69.831 47.0359ZM74.0618 46.7192C72.8061 45.6384 70.9119 45.7801 69.831 47.0359L68.3152 45.7312C70.1167 43.6383 73.2737 43.402 75.3666 45.2034L74.0618 46.7192Z" fill="black"/>
<rect x="42" width="18" height="8" rx="2" fill="black"/>
<rect x="46" y="5" width="10" height="9" rx="2" fill="black"/>
<rect width="10.1183" height="8.34676" rx="2" transform="matrix(0.753173 0.657822 -0.657823 0.753172 87.4087 18.2769)" fill="black"/>
<rect width="10.0593" height="8.54248" rx="2" transform="matrix(-0.75317 0.657826 0.65782 0.753175 15.0603 17.2961)" fill="black"/>
<rect x="50" y="17" width="2" height="8" rx="1" fill="black"/>
<rect x="50" y="103" width="2" height="8" rx="1" fill="black"/>
<rect x="12" y="63" width="2" height="8" rx="1" transform="rotate(90 12 63)" fill="black"/>
<rect x="98" y="63" width="2" height="8" rx="1" transform="rotate(90 98 63)" fill="black"/>
<rect width="2" height="8" rx="1" transform="matrix(-0.70711 0.707104 -0.70711 -0.707104 84.5356 96.1213)" fill="black"/>
<rect width="2" height="8" rx="1" transform="matrix(0.70711 0.707104 0.70711 -0.707104 17 96.1213)" fill="black"/>
<rect width="2" height="8" rx="1" transform="matrix(-0.70711 0.707104 -0.70711 -0.707104 24.071 35.6567)" fill="black"/>
<rect width="2" height="8" rx="1" transform="matrix(0.70711 0.707104 0.70711 -0.707104 78 35.6567)" fill="black"/>
</svg>
