<svg width="30" height="30" viewBox="0 0 30 30" fill="none" xmlns="http://www.w3.org/2000/svg">
<path d="M12.3107 6.43934C11.7249 5.85355 10.7751 5.85355 10.1893 6.43934C9.60355 7.02513 9.60355 7.97487 10.1893 8.56066L12.3107 6.43934ZM18.75 15L19.8107 16.0607C20.3964 15.4749 20.3964 14.5251 19.8107 13.9393L18.75 15ZM10.1893 21.4393C9.60355 22.0251 9.60355 22.9749 10.1893 23.5607C10.7751 24.1464 11.7249 24.1464 12.3107 23.5607L10.1893 21.4393ZM10.1893 8.56066L17.6893 16.0607L19.8107 13.9393L12.3107 6.43934L10.1893 8.56066ZM17.6893 13.9393L10.1893 21.4393L12.3107 23.5607L19.8107 16.0607L17.6893 13.9393Z" fill="white"/>
</svg>
