<svg width="30" height="30" viewBox="0 0 30 30" fill="none" xmlns="http://www.w3.org/2000/svg">
<path d="M17.6893 23.5607C18.2751 24.1464 19.2249 24.1464 19.8107 23.5607C20.3964 22.9749 20.3964 22.0251 19.8107 21.4393L17.6893 23.5607ZM11.25 15L10.1893 13.9393C9.60355 14.5251 9.60355 15.4749 10.1893 16.0607L11.25 15ZM19.8107 8.56066C20.3964 7.97487 20.3964 7.02513 19.8107 6.43934C19.2249 5.85355 18.2751 5.85355 17.6893 6.43934L19.8107 8.56066ZM19.8107 21.4393L12.3107 13.9393L10.1893 16.0607L17.6893 23.5607L19.8107 21.4393ZM12.3107 16.0607L19.8107 8.56066L17.6893 6.43934L10.1893 13.9393L12.3107 16.0607Z" fill="white"/>
</svg>
