<svg width="24" height="24" viewBox="0 0 24 24" fill="none" xmlns="http://www.w3.org/2000/svg">
<path d="M12.7071 14.2929C13.0976 14.6834 13.0976 15.3166 12.7071 15.7071C12.3166 16.0976 11.6834 16.0976 11.2929 15.7071L12.7071 14.2929ZM9 12L8.29289 12.7071C8.10536 12.5196 8 12.2652 8 12C8 11.7348 8.10536 11.4804 8.29289 11.2929L9 12ZM11.2929 8.29289C11.6834 7.90237 12.3166 7.90237 12.7071 8.29289C13.0976 8.68342 13.0976 9.31658 12.7071 9.70711L11.2929 8.29289ZM20 11C20.5523 11 21 11.4477 21 12C21 12.5523 20.5523 13 20 13L20 11ZM11.2929 15.7071L8.29289 12.7071L9.70711 11.2929L12.7071 14.2929L11.2929 15.7071ZM8.29289 11.2929L11.2929 8.29289L12.7071 9.70711L9.70711 12.7071L8.29289 11.2929ZM20 13L9 13L9 11L20 11L20 13Z" fill="#14181F"/>
<path d="M20 7V5C20 4.44772 19.5523 4 19 4H5C4.44771 4 4 4.44772 4 5V19C4 19.5523 4.44771 20 5 20H19C19.5523 20 20 19.5523 20 19V17" stroke="#14181F" stroke-width="2" stroke-linecap="round" stroke-linejoin="round"/>
</svg>
