<svg width="27" height="28" viewBox="0 0 27 28" fill="none" xmlns="http://www.w3.org/2000/svg">
<path d="M10.0286 0C12.6883 0 15.2391 1.09571 17.1198 3.04609C19.0006 4.99647 20.0571 7.64175 20.0571 10.4C20.0571 12.976 19.1469 15.344 17.6503 17.168L18.0669 17.6H19.2857L27 25.6L24.6857 28L16.9714 20V18.736L16.5549 18.304C14.796 19.856 12.5126 20.8 10.0286 20.8C7.36883 20.8 4.81802 19.7043 2.9373 17.7539C1.05658 15.8035 0 13.1583 0 10.4C0 7.64175 1.05658 4.99647 2.9373 3.04609C4.81802 1.09571 7.36883 0 10.0286 0ZM10.0286 3.2C6.17143 3.2 3.08571 6.4 3.08571 10.4C3.08571 14.4 6.17143 17.6 10.0286 17.6C13.8857 17.6 16.9714 14.4 16.9714 10.4C16.9714 6.4 13.8857 3.2 10.0286 3.2Z" fill="#3684C9"/>
</svg>
