<svg width="102" height="115" viewBox="0 0 102 115" fill="none" xmlns="http://www.w3.org/2000/svg">
<circle cx="51" cy="64" r="50" fill="#82DFB2" stroke="black" stroke-width="2"/>
<path fill-rule="evenodd" clip-rule="evenodd" d="M74.7142 45.9614C76.3885 47.4025 76.5776 49.9281 75.1364 51.6025L50.3466 80.4029C49.9864 80.8215 49.5583 81.1473 49.0927 81.3779C47.6959 82.0699 45.9613 81.906 44.7056 80.8251L28.0316 66.4731C26.3573 65.032 26.1683 62.5064 27.6094 60.832C29.0506 59.1577 31.5762 58.9687 33.2505 60.4099L46.8928 72.1524L69.0731 46.3836C70.5143 44.7092 73.0399 44.5202 74.7142 45.9614Z" fill="white"/>
<path d="M75.1364 51.6025L74.3785 50.9501L75.1364 51.6025ZM50.3466 80.4029L49.5887 79.7506L50.3466 80.4029ZM49.0927 81.3779L48.6488 80.4819L49.0927 81.3779ZM44.7056 80.8251L44.0532 81.583L44.0532 81.583L44.7056 80.8251ZM28.0316 66.4731L27.3792 67.231L28.0316 66.4731ZM27.6094 60.832L28.3673 61.4844L27.6094 60.832ZM33.2505 60.4099L32.5981 61.1678L33.2505 60.4099ZM46.8928 72.1524L47.6507 72.8048L46.9984 73.5627L46.2405 72.9103L46.8928 72.1524ZM69.0731 46.3836L68.3152 45.7312L68.3152 45.7312L69.0731 46.3836ZM74.3785 50.9501C75.4594 49.6943 75.3176 47.8002 74.0618 46.7193L75.3666 45.2035C77.4595 47.0049 77.6957 50.1619 75.8943 52.2548L74.3785 50.9501ZM49.5887 79.7506L74.3785 50.9501L75.8943 52.2548L51.1045 81.0553L49.5887 79.7506ZM48.6488 80.4819C48.9966 80.3095 49.3173 80.0659 49.5887 79.7506L51.1045 81.0553C50.6554 81.5771 50.1199 81.985 49.5366 82.274L48.6488 80.4819ZM45.3579 80.0672C46.2985 80.8768 47.5992 81.0018 48.6488 80.4819L49.5366 82.274C47.7925 83.138 45.6241 82.9351 44.0532 81.583L45.3579 80.0672ZM28.684 65.7152L45.3579 80.0672L44.0532 81.583L27.3792 67.231L28.684 65.7152ZM28.3673 61.4844C27.2865 62.7402 27.4282 64.6344 28.684 65.7152L27.3792 67.231C25.2863 65.4296 25.0501 62.2726 26.8515 60.1797L28.3673 61.4844ZM32.5981 61.1678C31.3424 60.0869 29.4482 60.2287 28.3673 61.4844L26.8515 60.1797C28.653 58.0868 31.81 57.8505 33.9029 59.652L32.5981 61.1678ZM46.2405 72.9103L32.5981 61.1678L33.9029 59.652L47.5452 71.3945L46.2405 72.9103ZM69.831 47.0359L47.6507 72.8048L46.1349 71.5001L68.3152 45.7312L69.831 47.0359ZM74.0618 46.7193C72.8061 45.6384 70.9119 45.7802 69.831 47.0359L68.3152 45.7312C70.1167 43.6383 73.2737 43.402 75.3666 45.2035L74.0618 46.7193Z" fill="black"/>
<rect x="42" width="18" height="8" rx="2" fill="black"/>
<rect x="46" y="5" width="10" height="9" rx="2" fill="black"/>
<rect width="10.1183" height="8.34676" rx="2" transform="matrix(0.753173 0.657822 -0.657823 0.753172 87.4087 18.2769)" fill="black"/>
<rect width="10.0593" height="8.54248" rx="2" transform="matrix(-0.75317 0.657826 0.65782 0.753175 15.0604 17.2961)" fill="black"/>
<rect x="50" y="17" width="2" height="8" rx="1" fill="black"/>
<rect x="50" y="103" width="2" height="8" rx="1" fill="black"/>
<rect x="12" y="63" width="2" height="8" rx="1" transform="rotate(90 12 63)" fill="black"/>
<rect x="98" y="63" width="2" height="8" rx="1" transform="rotate(90 98 63)" fill="black"/>
<rect width="2" height="8" rx="1" transform="matrix(-0.70711 0.707104 -0.70711 -0.707104 84.5355 96.1213)" fill="black"/>
<rect width="2" height="8" rx="1" transform="matrix(0.70711 0.707104 0.70711 -0.707104 17 96.1213)" fill="black"/>
<rect width="2" height="8" rx="1" transform="matrix(-0.70711 0.707104 -0.70711 -0.707104 24.071 35.6567)" fill="black"/>
<rect width="2" height="8" rx="1" transform="matrix(0.70711 0.707104 0.70711 -0.707104 78 35.6567)" fill="black"/>
</svg>
