<svg width="216" height="184" viewBox="0 0 216 184" fill="none" xmlns="http://www.w3.org/2000/svg">
<path d="M58.8647 93.1663H36.4757C36.4243 93.1663 36.3976 93.2298 36.4422 93.2553C38.2022 94.259 54.2076 103.467 54.2076 106.413C54.2076 111.088 44.0201 113.014 40.9609 119.66C38.8671 124.208 38.6486 131.959 38.6259 133.438C38.624 133.566 38.7425 133.659 38.8676 133.631L69.663 126.702C69.7412 126.684 69.8005 126.626 69.815 126.547C69.9997 125.542 71.2576 118.702 72.1296 114.205C73.0159 109.635 75.7137 107.002 74.4673 102.517C72.5939 95.7758 59.2698 93.2386 58.8912 93.1678C58.8793 93.1656 58.8769 93.1663 58.8647 93.1663Z" fill="#656762" stroke="#656762" stroke-width="0.4"/>
<path d="M0.622501 45.7423C-0.178311 46.5031 -0.210771 47.769 0.550001 48.5698C1.31077 49.3706 2.57669 49.4031 3.3775 48.6423L0.622501 45.7423ZM93.3372 48.6307C94.1316 49.3982 95.3978 49.3763 96.1653 48.5819C96.9327 47.7875 96.9109 46.5214 96.1165 45.7539L93.3372 48.6307ZM48.4058 3.10684L49.7833 4.55684L48.4058 3.10684ZM49.093 3.10537L47.7034 4.54375L49.093 3.10537ZM3.3775 48.6423L49.7833 4.55684L47.0283 1.65684L0.622501 45.7423L3.3775 48.6423ZM47.7034 4.54375C50.9387 7.66937 76.5422 32.405 93.3372 48.6307L96.1165 45.7539C79.3215 29.5282 53.7179 4.7926 50.4826 1.66699L47.7034 4.54375ZM49.7833 4.55684C49.2245 5.08767 48.3045 5.12449 47.7034 4.54375L50.4826 1.66699C49.4963 0.7141 47.9754 0.757095 47.0283 1.65684L49.7833 4.55684Z" fill="#3684C9"/>
<path d="M38.9029 92.387H16.5264C16.2502 92.387 16.0264 92.1632 16.0264 91.887V47.4065C16.0264 47.2698 16.0824 47.139 16.1813 47.0447L49.1877 15.5735C49.3808 15.3893 49.6846 15.3893 49.8778 15.5735L82.8841 47.0447C82.9831 47.139 83.0391 47.2698 83.0391 47.4065V91.887C83.0391 92.1632 82.8152 92.387 82.5391 92.387H60.1625C59.8864 92.387 59.6625 92.1632 59.6625 91.887V63.2768C59.6625 63.0006 59.4387 62.7768 59.1625 62.7768H39.9029C39.6267 62.7768 39.4029 63.0006 39.4029 63.2768V91.887C39.4029 92.1632 39.179 92.387 38.9029 92.387Z" fill="#3684C9" stroke="#3684C9" stroke-width="2"/>
<path d="M40.961 125.894C51.8524 118.483 74.4673 121.997 74.4673 121.997L100.961 96.2833H115.766H138.363L157.844 97.0625C157.844 97.0625 168.88 96.5077 174.986 99.4001C185.512 104.386 191.35 124.335 191.35 124.335C191.35 124.335 198.72 122.855 203.038 124.335C206.953 125.677 209.177 127.22 211.61 130.569C214.56 134.629 215.111 138.032 214.726 143.036C214.431 146.874 212.048 148.563 211.61 152.387C211.367 154.503 211.61 157.841 211.61 157.841C211.61 157.841 213.168 162.603 211.61 164.854C210.743 166.105 208.493 167.192 208.493 167.192L171.09 167.971H90.0517H51.87H38.6233C38.6233 167.971 34.8478 167.858 33.1688 166.413C31.6217 165.081 30.8311 161.738 30.8311 161.738C30.8311 161.738 30.0267 151.714 30.8311 145.374C31.5001 140.102 30.966 136.526 33.948 132.127C36.0041 129.094 37.9314 127.955 40.961 125.894Z" fill="#4B0000" stroke="#4B0000" stroke-width="0.5"/>
<path d="M125.661 155.504H104.212C103.695 155.504 103.263 155.109 103.216 154.594L100.981 130.014C100.968 129.866 100.988 129.717 101.039 129.578L111.629 100.833C111.774 100.44 112.148 100.179 112.567 100.179H124.91C125.457 100.179 125.902 100.618 125.91 101.165L126.661 154.489C126.669 155.047 126.219 155.504 125.661 155.504Z" fill="#2E2E2E" stroke="#2E2E2E" stroke-width="0.5"/>
<path d="M185.896 110.309C181.827 102.233 174.089 98.6717 174.207 99.3996L180.441 124.335H191.35C191.35 124.335 189.964 118.384 185.896 110.309Z" fill="#4A4A4A" stroke="#4A4A4A" stroke-width="0.5"/>
<path d="M172.409 124.71H132.35C131.798 124.71 131.35 124.262 131.35 123.71V111.463V101.5C131.35 100.969 131.759 100.532 132.289 100.506C135.692 100.339 147.521 99.8369 153.947 100.554C157.627 100.965 160.026 100.38 163.298 102.113C166.341 103.723 167.594 105.5 169.532 108.346C172.546 112.773 173.235 120.858 173.387 123.694C173.417 124.253 172.969 124.71 172.409 124.71Z" fill="#4A4A4A" stroke="#4A4A4A" stroke-width="0.5"/>
<path d="M79.9219 124.335L75.2466 121.997C75.2466 121.997 81.8931 113.013 86.9348 107.972C91.9766 102.93 100.961 96.2833 100.961 96.2833L79.9219 124.335Z" fill="#4A4A4A" stroke="#4A4A4A" stroke-width="0.5"/>
<circle cx="67.4541" cy="160.958" r="18.7012" fill="black"/>
<circle cx="67.454" cy="160.958" r="15.5843" fill="#4A4A4A"/>
<circle cx="185.896" cy="160.958" r="18.7012" fill="black"/>
<circle cx="185.896" cy="160.958" r="18.7012" fill="black"/>
<circle cx="185.896" cy="160.958" r="18.7012" fill="black"/>
<circle cx="185.896" cy="160.958" r="18.7012" fill="black"/>
<circle cx="185.895" cy="160.958" r="15.5843" fill="#4A4A4A"/>
<path d="M41.7406 132.906C42.5239 130.265 42.5198 125.893 42.5198 125.893V125.389C42.5198 125.253 42.3886 125.158 42.261 125.204C41.6965 125.407 40.3313 125.943 39.4029 126.673C37.1976 128.407 35.5231 129.026 33.9484 131.348C32.3281 133.737 31.4442 135.54 30.8314 138.361C30.2465 141.053 30.7156 145.219 30.8143 146.018C30.8226 146.086 30.8933 146.123 30.9542 146.093C31.4753 145.834 33.5331 144.789 34.7276 143.815C36.5702 142.314 37.3072 141.119 38.6237 139.14C40.1313 136.874 40.9668 135.516 41.7406 132.906Z" fill="#FFFCBE" stroke="#FFFCBE" stroke-width="0.5"/>
<path d="M115.766 95.5044H111.87L104.857 111.089L100.961 143.816L100.182 171.868L104.078 171.088C104.078 171.088 103.463 154.449 104.078 143.816C104.786 131.569 104.19 124.316 107.974 112.647C110.242 105.652 115.766 95.5044 115.766 95.5044Z" fill="#C0C2C1" stroke="#C0C2C1" stroke-width="0.5"/>
<path d="M94.727 164.075L84.5972 123.556L101.74 97.8417L111.85 95.5086C111.858 95.5067 111.866 95.5131 111.862 95.5206C111.695 95.8983 108.709 102.661 107.194 107.192C103.563 118.061 103.139 124.65 101.74 136.023C100.056 149.709 100.177 171.174 100.181 171.851C100.181 171.861 100.169 171.849 100.163 171.841L94.727 164.075Z" fill="#6A0700" stroke="#6A0700" stroke-width="0.5"/>
<path d="M98.6138 128.228L87.7258 124.339C87.7199 124.337 87.7174 124.33 87.7206 124.325L101.738 100.963C101.739 100.96 101.742 100.959 101.745 100.958L107.958 100.182C107.966 100.181 107.971 100.188 107.969 100.195L98.6266 128.222C98.6249 128.227 98.6191 128.23 98.6138 128.228Z" fill="#C0C2C1" stroke="#C0C2C1" stroke-width="0.5"/>
<path d="M97.8386 135.24L92.402 131.357C92.3963 131.353 92.3882 131.356 92.3865 131.363L91.6127 134.458C91.6116 134.462 91.6135 134.467 91.6174 134.469L97.0548 137.576C97.0602 137.579 97.0672 137.576 97.0692 137.57L97.8422 135.251C97.8436 135.247 97.8421 135.243 97.8386 135.24Z" fill="black" stroke="black" stroke-width="0.5"/>
<path d="M108.203 172.889L105.084 169.77C105.045 169.731 105.044 169.668 105.083 169.629L106.648 168.065C107.249 167.463 107.997 166.135 108.218 165.732C108.25 165.673 108.331 165.661 108.378 165.708L111.552 168.882L108.352 172.881C108.315 172.928 108.246 172.932 108.203 172.889Z" fill="#855D46" stroke="#855D46" stroke-width="0.5"/>
<path d="M155.686 175.42L152.417 171.334L155.686 168.882L158.078 174.463C158.106 174.529 158.058 174.603 157.986 174.603H156.503L155.686 175.42Z" fill="#855D46" stroke="#855D46" stroke-width="0.5"/>
<path d="M154.046 178.673C153.645 177.335 153.95 175.22 154.032 174.714C154.042 174.655 154.102 174.618 154.16 174.633C154.487 174.716 155.502 174.923 156.503 174.603C157.394 174.318 157.917 172.876 158.081 172.347C158.106 172.267 158.212 172.246 158.263 172.312L163.648 179.236C163.785 179.411 163.855 179.628 163.882 179.848C163.973 180.612 164.284 181.51 163.859 181.958C162.953 182.913 161.905 182.744 160.59 182.776C157.252 182.856 154.255 178.958 154.061 178.702C154.054 178.693 154.05 178.684 154.046 178.673Z" fill="black" stroke="black" stroke-width="0.5"/>
<path d="M109.916 177.866L109.113 173.051C109.106 173.003 109.065 172.968 109.017 172.965C108.672 172.949 107.339 172.842 106.647 172.151C105.932 171.435 105.185 169.372 105.039 168.956C105.023 168.912 104.981 168.885 104.935 168.891C104.478 168.948 102.151 169.296 101.744 170.516C101.56 171.068 101.711 171.97 101.74 172.127C101.742 172.143 101.749 172.157 101.759 172.17L108.246 180.279C108.269 180.307 108.304 180.321 108.339 180.314C108.591 180.267 109.608 180.048 109.917 179.507C110.221 178.975 109.942 177.958 109.918 177.877C109.917 177.873 109.917 177.87 109.916 177.866Z" fill="black" stroke="black" stroke-width="0.5"/>
<path d="M140.157 110.036L124.629 110.854C124.629 110.854 123.118 118.751 122.177 123.93C120.688 132.119 123.722 137.88 119.725 145.18C117.446 149.342 114.81 151.736 112.369 155.805C110.468 158.975 108.553 163.157 107.799 164.852C107.604 165.292 107.757 165.807 108.158 166.074L111.714 168.445C112.098 168.701 112.608 168.661 112.942 168.342C115.515 165.89 126.065 155.545 130.35 146.815C132.885 141.649 135.254 132.921 135.254 132.921C135.254 132.921 141.266 144.146 144.244 151.719C146.784 158.178 149.441 167.889 150.405 171.526C150.588 172.215 151.41 172.497 151.981 172.07L156.804 168.453C157.118 168.216 157.267 167.825 157.18 167.442C156.489 164.394 153.382 150.837 150.782 141.911C149.286 136.774 146.696 128.834 146.696 128.834C146.696 128.834 142.401 120.12 140.975 114.123C140.598 112.54 140.157 110.036 140.157 110.036Z" fill="#27407E" stroke="#254080" stroke-width="0.5"/>
<path d="M130.571 117.322C130.571 117.322 129.594 120.476 128.233 121.997C127.219 123.131 125.116 124.335 125.116 124.335" stroke="#7292AE" stroke-width="0.4" stroke-linecap="round"/>
<path d="M127.898 78.9788C128.48 80.0159 129.93 81.1223 130.275 81.3766C130.317 81.4076 130.376 81.3998 130.409 81.3596L138.469 71.6879C138.5 71.6505 138.5 71.5963 138.468 71.5598C138.335 71.409 137.987 71.0251 137.705 70.8058C137.349 70.5287 136.071 69.9885 135.253 69.9885H132.141C132.068 69.9885 132.019 69.9129 132.049 69.8461C132.243 69.4166 132.802 68.1266 132.802 67.5366C132.802 66.8229 132.489 66.4067 131.984 65.902C131.271 65.1883 130.534 65.2099 129.532 65.0847C128.899 65.0056 128.521 64.9463 127.898 65.0847C127.201 65.2396 126.768 65.3974 126.263 65.902C125.759 66.4067 125.634 66.8481 125.446 67.5366C125.194 68.4604 125.036 69.1232 125.446 69.9885C125.872 70.8876 127.394 71.4538 127.798 71.5908C127.853 71.6091 127.882 71.6675 127.863 71.7217C127.699 72.1958 127.012 74.277 127.081 75.7096C127.143 77.0241 127.254 77.8311 127.898 78.9788Z" fill="#3D210F" stroke="#3D210F" stroke-width="0.5"/>
<path d="M130.349 80.6127C130.129 82.3747 129.032 84.8313 128.771 85.3971C128.743 85.4575 128.78 85.5274 128.846 85.5384L133.534 86.3198C133.583 86.3279 133.63 86.2995 133.646 86.2528L134.428 83.9043C134.433 83.8896 134.442 83.8762 134.453 83.8652L135.224 83.0939C135.243 83.0752 135.268 83.0646 135.295 83.0646H138.461C138.499 83.0646 138.533 83.0432 138.55 83.0094L140.15 79.81C140.155 79.8003 140.161 79.7916 140.169 79.784L140.916 79.0361C140.95 79.0024 140.956 78.9498 140.93 78.9097C140.783 78.6804 140.315 77.9213 140.157 77.3435C139.905 76.4198 140.334 75.8328 140.157 74.8916C139.93 73.6834 138.882 72.1314 138.595 71.724C138.558 71.6713 138.483 71.6688 138.44 71.7173C138.199 71.9927 137.473 72.8021 136.888 73.257C135.761 74.1334 134.944 74.3615 133.619 74.8916C132.682 75.2665 131.88 74.9952 131.167 75.7089C130.698 76.1779 130.395 77.1866 130.354 77.3272C130.351 77.3384 130.35 77.3483 130.351 77.3599C130.365 77.5533 130.499 79.4129 130.349 80.6127Z" fill="#855D46" stroke="#855D46" stroke-width="0.5"/>
<circle cx="156.912" cy="98.1854" r="3.67785" fill="#855D46"/>
<circle cx="109.508" cy="125.156" r="3.67785" fill="#855D46"/>
<path d="M123.034 102.081L124.613 110.767C124.622 110.816 124.667 110.851 124.717 110.849L140.063 110.041C140.116 110.038 140.158 109.994 140.158 109.941V106.111C140.158 106.036 140.235 105.987 140.302 106.019C141.178 106.436 145.866 108.584 149.148 108.401C150.773 108.311 151.741 108.231 153.234 107.584C155.11 106.772 157.208 106.355 157.321 104.315C157.377 103.307 156.996 102.744 156.504 101.863C155.795 100.594 154.029 99.4772 153.067 98.9373C152.685 98.7231 152.214 98.8113 151.897 99.1127C151.26 99.7172 150.144 100.68 149.148 101.046C147.493 101.654 144.728 101.142 144.3 101.057C144.264 101.05 144.239 101.028 144.228 100.993C144.037 100.358 142.139 94.141 140.158 90.4207C139.283 88.7781 139.276 87.3334 137.706 86.3342C136.67 85.6753 134.722 85.5345 134.465 85.5186C134.446 85.5174 134.429 85.5214 134.412 85.5306C134.218 85.6373 132.917 86.3342 131.985 86.3342C130.688 86.3342 129.05 84.9862 128.76 84.7385C128.732 84.7146 128.695 84.7071 128.661 84.7199C128.158 84.9075 124.309 86.37 122.177 87.9688C118.148 90.9906 114.835 98.5627 114.821 98.5937L114.821 98.5952L109.919 110.85C109.918 110.852 109.918 110.852 109.917 110.854C109.887 110.916 108.531 113.776 108.283 115.757C108.125 117.024 107.964 117.79 108.283 119.026C108.806 121.055 111.46 122.533 113.221 123.31C114.195 123.738 115.32 123.503 116.007 122.69C116.515 122.089 117.043 121.35 117.273 120.661C117.778 119.147 117.17 118.167 117.273 116.574C117.484 113.326 117.685 111.418 118.908 108.401C119.894 105.968 122.268 102.807 122.859 102.037C122.912 101.969 123.019 101.996 123.034 102.081Z" fill="#DBE6EE" stroke="#DBE6EE" stroke-width="0.5"/>
<path d="M159.673 88.8601L150.223 95.9475C150.104 96.0367 150.121 96.2199 150.254 96.2864L153.123 97.721C153.191 97.7549 153.272 97.7475 153.332 97.7021L162.782 90.6147C162.901 90.5255 162.885 90.3423 162.752 90.2758L159.883 88.8412C159.815 88.8073 159.734 88.8147 159.673 88.8601Z" fill="#3684C9" stroke="black" stroke-width="0.4"/>
</svg>
