<svg viewBox="0 0 241 40" fill="none" xmlns="http://www.w3.org/2000/svg">
<path fill-rule="evenodd" clip-rule="evenodd" d="M19.9363 0.627409C20.2851 0.428976 20.7149 0.428976 21.0637 0.627409L40.4363 11.648C40.7851 11.8464 41 12.2132 41 12.61V34.6512C41 35.0481 40.7851 35.4148 40.4363 35.6132L32.8573 39.9247C32.4427 40.1606 31.9204 39.8084 31.9391 39.3371C31.9437 39.2217 31.946 39.1057 31.946 38.9892V37.3718C31.946 32.526 27.9592 28.5978 23.0412 28.5978H17.8426C12.9246 28.5978 8.93782 32.526 8.93782 37.3718V38.9892C8.93782 39.0851 8.93938 39.1806 8.94248 39.2758C8.95776 39.745 8.43788 40.0926 8.02524 39.8579L0.563694 35.6132C0.214879 35.4148 0 35.0481 0 34.6512V12.61C0 12.2132 0.214879 11.8464 0.563695 11.648L19.9363 0.627409ZM26.5926 20.3385C26.5926 23.654 23.8649 26.3417 20.5 26.3417C17.1352 26.3417 14.4074 23.654 14.4074 20.3385C14.4074 17.0231 17.1352 14.3354 20.5 14.3354C23.8649 14.3354 26.5926 17.0231 26.5926 20.3385Z" fill="#3684C9"/>
<path d="M29.2605 2.68949V1.11257C29.2605 0.249582 30.2156 -0.283813 30.9671 0.159513L35.8465 3.03819C36.1866 3.23882 36.3947 3.60069 36.3947 3.99125V5.54318C36.3947 6.40427 35.4434 6.93794 34.6919 6.49842L29.8125 3.64474C29.4703 3.44461 29.2605 3.08157 29.2605 2.68949Z" fill="#3684C9"/>
<path d="M61.48 32L70.44 9.408H74.984L83.848 32H78.536L71.752 13.248H73.576L66.696 32H61.48ZM66.568 27.904V23.808H78.888V27.904H66.568ZM86.0405 32V16.448H90.9365V32H86.0405ZM90.9365 23.456L88.8885 21.856C89.2938 20.0427 89.9765 18.6347 90.9365 17.632C91.8965 16.6293 93.2298 16.128 94.9365 16.128C95.6832 16.128 96.3338 16.2453 96.8885 16.48C97.4645 16.6933 97.9658 17.0347 98.3925 17.504L95.4805 21.184C95.2672 20.9493 95.0005 20.768 94.6805 20.64C94.3605 20.512 93.9978 20.448 93.5925 20.448C92.7818 20.448 92.1312 20.704 91.6405 21.216C91.1712 21.7067 90.9365 22.4533 90.9365 23.456ZM106.779 32.352C105.179 32.352 103.729 32 102.427 31.296C101.126 30.592 100.102 29.6213 99.3553 28.384C98.6086 27.1467 98.2353 25.76 98.2353 24.224C98.2353 22.6667 98.6086 21.28 99.3553 20.064C100.123 18.8267 101.158 17.856 102.459 17.152C103.761 16.448 105.222 16.096 106.843 16.096C108.059 16.096 109.169 16.3093 110.171 16.736C111.195 17.1413 112.102 17.76 112.891 18.592L109.755 21.728C109.393 21.3227 108.966 21.024 108.475 20.832C108.006 20.64 107.462 20.544 106.843 20.544C106.139 20.544 105.51 20.704 104.955 21.024C104.422 21.3227 103.995 21.7493 103.675 22.304C103.377 22.8373 103.227 23.4667 103.227 24.192C103.227 24.9173 103.377 25.5573 103.675 26.112C103.995 26.6667 104.433 27.104 104.987 27.424C105.542 27.744 106.161 27.904 106.843 27.904C107.483 27.904 108.049 27.7973 108.539 27.584C109.051 27.3493 109.489 27.0293 109.851 26.624L112.955 29.76C112.145 30.6133 111.227 31.264 110.203 31.712C109.179 32.1387 108.038 32.352 106.779 32.352ZM128.46 32.352C126.604 32.352 125.004 32.0533 123.66 31.456C122.337 30.8373 121.121 29.9093 120.012 28.672L123.276 25.44C124.001 26.272 124.801 26.9227 125.676 27.392C126.572 27.84 127.607 28.064 128.78 28.064C129.847 28.064 130.668 27.872 131.244 27.488C131.841 27.104 132.14 26.5707 132.14 25.888C132.14 25.2693 131.948 24.768 131.564 24.384C131.18 24 130.668 23.6693 130.028 23.392C129.409 23.1147 128.716 22.848 127.948 22.592C127.201 22.336 126.455 22.048 125.708 21.728C124.961 21.3867 124.268 20.9707 123.628 20.48C123.009 19.968 122.508 19.3387 122.124 18.592C121.74 17.824 121.548 16.864 121.548 15.712C121.548 14.3253 121.879 13.1307 122.54 12.128C123.223 11.1253 124.161 10.368 125.356 9.856C126.551 9.32267 127.927 9.056 129.484 9.056C131.063 9.056 132.503 9.33333 133.804 9.888C135.127 10.4427 136.215 11.2 137.068 12.16L133.804 15.392C133.121 14.688 132.428 14.1653 131.724 13.824C131.041 13.4827 130.263 13.312 129.388 13.312C128.513 13.312 127.82 13.4827 127.308 13.824C126.796 14.144 126.54 14.6133 126.54 15.232C126.54 15.808 126.732 16.2773 127.116 16.64C127.5 16.9813 128.001 17.28 128.62 17.536C129.26 17.792 129.953 18.048 130.7 18.304C131.468 18.56 132.225 18.8587 132.972 19.2C133.719 19.5413 134.401 19.9787 135.02 20.512C135.66 21.024 136.172 21.6853 136.556 22.496C136.94 23.2853 137.132 24.2667 137.132 25.44C137.132 27.5947 136.364 29.2907 134.828 30.528C133.292 31.744 131.169 32.352 128.46 32.352ZM147.47 32.352C145.785 32.352 144.281 32.0107 142.959 31.328C141.657 30.624 140.633 29.6533 139.887 28.416C139.14 27.1787 138.767 25.7813 138.767 24.224C138.767 22.6667 139.129 21.28 139.855 20.064C140.601 18.8267 141.604 17.856 142.863 17.152C144.121 16.448 145.54 16.096 147.119 16.096C148.655 16.096 150.009 16.4267 151.183 17.088C152.356 17.7493 153.273 18.6667 153.935 19.84C154.617 21.0133 154.958 22.3573 154.958 23.872C154.958 24.1493 154.937 24.448 154.895 24.768C154.873 25.0667 154.82 25.4187 154.735 25.824L141.327 25.856V22.496L152.655 22.464L150.543 23.872C150.521 22.976 150.383 22.24 150.127 21.664C149.871 21.0667 149.487 20.6187 148.975 20.32C148.484 20 147.876 19.84 147.151 19.84C146.383 19.84 145.711 20.0213 145.135 20.384C144.58 20.7253 144.143 21.216 143.823 21.856C143.524 22.496 143.375 23.2747 143.375 24.192C143.375 25.1093 143.535 25.8987 143.855 26.56C144.196 27.2 144.665 27.7013 145.263 28.064C145.881 28.4053 146.607 28.576 147.439 28.576C148.207 28.576 148.9 28.448 149.519 28.192C150.137 27.9147 150.681 27.5093 151.151 26.976L153.839 29.664C153.071 30.56 152.143 31.232 151.055 31.68C149.967 32.128 148.772 32.352 147.47 32.352ZM164.842 32.352C163.242 32.352 161.791 32 160.49 31.296C159.188 30.592 158.164 29.6213 157.418 28.384C156.671 27.1467 156.298 25.76 156.298 24.224C156.298 22.6667 156.671 21.28 157.418 20.064C158.186 18.8267 159.22 17.856 160.522 17.152C161.823 16.448 163.284 16.096 164.906 16.096C166.122 16.096 167.231 16.3093 168.234 16.736C169.258 17.1413 170.164 17.76 170.954 18.592L167.818 21.728C167.455 21.3227 167.028 21.024 166.538 20.832C166.068 20.64 165.524 20.544 164.906 20.544C164.202 20.544 163.572 20.704 163.018 21.024C162.484 21.3227 162.058 21.7493 161.738 22.304C161.439 22.8373 161.29 23.4667 161.29 24.192C161.29 24.9173 161.439 25.5573 161.738 26.112C162.058 26.6667 162.495 27.104 163.05 27.424C163.604 27.744 164.223 27.904 164.906 27.904C165.546 27.904 166.111 27.7973 166.602 27.584C167.114 27.3493 167.551 27.0293 167.914 26.624L171.018 29.76C170.207 30.6133 169.29 31.264 168.266 31.712C167.242 32.1387 166.1 32.352 164.842 32.352ZM180.109 32.352C178.679 32.352 177.41 32.064 176.301 31.488C175.213 30.8907 174.359 30.08 173.741 29.056C173.122 28.0107 172.813 26.816 172.813 25.472V16.448H177.709V25.408C177.709 25.9413 177.794 26.4 177.965 26.784C178.157 27.168 178.434 27.4667 178.797 27.68C179.159 27.8933 179.597 28 180.109 28C180.834 28 181.41 27.776 181.837 27.328C182.263 26.8587 182.477 26.2187 182.477 25.408V16.448H187.373V25.44C187.373 26.8053 187.063 28.0107 186.445 29.056C185.826 30.08 184.973 30.8907 183.885 31.488C182.797 32.064 181.538 32.352 180.109 32.352ZM190.447 32V16.448H195.343V32H190.447ZM195.343 23.456L193.295 21.856C193.7 20.0427 194.383 18.6347 195.343 17.632C196.303 16.6293 197.636 16.128 199.343 16.128C200.089 16.128 200.74 16.2453 201.295 16.48C201.871 16.6933 202.372 17.0347 202.799 17.504L199.887 21.184C199.673 20.9493 199.407 20.768 199.087 20.64C198.767 20.512 198.404 20.448 197.999 20.448C197.188 20.448 196.537 20.704 196.047 21.216C195.577 21.7067 195.343 22.4533 195.343 23.456ZM204.103 32V16.448H208.999V32H204.103ZM206.567 14.304C205.799 14.304 205.159 14.048 204.647 13.536C204.156 13.0027 203.911 12.3627 203.911 11.616C203.911 10.848 204.156 10.208 204.647 9.696C205.159 9.184 205.799 8.928 206.567 8.928C207.335 8.928 207.964 9.184 208.455 9.696C208.946 10.208 209.191 10.848 209.191 11.616C209.191 12.3627 208.946 13.0027 208.455 13.536C207.964 14.048 207.335 14.304 206.567 14.304ZM214.655 32V10.016H219.551V32H214.655ZM211.135 20.608V16.448H223.071V20.608H211.135ZM230.028 32.064L223.628 16.448H228.908L232.972 28.832H231.02L235.18 16.448H240.46L233.804 32.064H230.028ZM226.028 38.56L230.7 28.48L233.804 32.064L231.052 38.56H226.028Z" fill="#3684C9"/>
</svg>
