<svg width="313" height="47" viewBox="0 0 313 47" fill="none" xmlns="http://www.w3.org/2000/svg">
<path fill-rule="evenodd" clip-rule="evenodd" d="M19.9363 0.627409C20.2851 0.428976 20.7149 0.428976 21.0637 0.627409L40.4363 11.648C40.7851 11.8464 41 12.2132 41 12.61V34.6512C41 35.0481 40.7851 35.4148 40.4363 35.6132L32.8573 39.9247C32.4427 40.1606 31.9204 39.8084 31.9391 39.3371C31.9437 39.2217 31.946 39.1057 31.946 38.9892V37.3718C31.946 32.526 27.9592 28.5978 23.0412 28.5978H17.8426C12.9246 28.5978 8.93782 32.526 8.93782 37.3718V38.9892C8.93782 39.0851 8.93938 39.1806 8.94248 39.2758C8.95776 39.745 8.43788 40.0926 8.02524 39.8579L0.563694 35.6132C0.214879 35.4148 0 35.0481 0 34.6512V12.61C0 12.2132 0.214879 11.8464 0.563695 11.648L19.9363 0.627409ZM26.5926 20.3385C26.5926 23.654 23.8649 26.3417 20.5 26.3417C17.1352 26.3417 14.4074 23.654 14.4074 20.3385C14.4074 17.0231 17.1352 14.3354 20.5 14.3354C23.8649 14.3354 26.5926 17.0231 26.5926 20.3385Z" fill="#3684C9"/>
<path d="M29.2605 2.68949V1.11257C29.2605 0.249582 30.2156 -0.283813 30.9671 0.159513L35.8465 3.03819C36.1866 3.23882 36.3947 3.60069 36.3947 3.99125V5.54318C36.3947 6.40427 35.4434 6.93794 34.6919 6.49842L29.8125 3.64474C29.4703 3.44461 29.2605 3.08157 29.2605 2.68949Z" fill="#3684C9"/>
<path d="M60.675 37L73.275 5.23H79.665L92.13 37H84.66L75.12 10.63H77.685L68.01 37H60.675ZM67.83 31.24V25.48H85.155V31.24H67.83ZM95.2132 37V15.13H102.098V37H95.2132ZM102.098 24.985L99.2182 22.735C99.7882 20.185 100.748 18.205 102.098 16.795C103.448 15.385 105.323 14.68 107.723 14.68C108.773 14.68 109.688 14.845 110.468 15.175C111.278 15.475 111.983 15.955 112.583 16.615L108.488 21.79C108.188 21.46 107.813 21.205 107.363 21.025C106.913 20.845 106.403 20.755 105.833 20.755C104.693 20.755 103.778 21.115 103.088 21.835C102.428 22.525 102.098 23.575 102.098 24.985ZM124.377 37.495C122.127 37.495 120.087 37 118.257 36.01C116.427 35.02 114.987 33.655 113.937 31.915C112.887 30.175 112.362 28.225 112.362 26.065C112.362 23.875 112.887 21.925 113.937 20.215C115.017 18.475 116.472 17.11 118.302 16.12C120.132 15.13 122.187 14.635 124.467 14.635C126.177 14.635 127.737 14.935 129.147 15.535C130.587 16.105 131.862 16.975 132.972 18.145L128.562 22.555C128.052 21.985 127.452 21.565 126.762 21.295C126.102 21.025 125.337 20.89 124.467 20.89C123.477 20.89 122.592 21.115 121.812 21.565C121.062 21.985 120.462 22.585 120.012 23.365C119.592 24.115 119.382 25 119.382 26.02C119.382 27.04 119.592 27.94 120.012 28.72C120.462 29.5 121.077 30.115 121.857 30.565C122.637 31.015 123.507 31.24 124.467 31.24C125.367 31.24 126.162 31.09 126.852 30.79C127.572 30.46 128.187 30.01 128.697 29.44L133.062 33.85C131.922 35.05 130.632 35.965 129.192 36.595C127.752 37.195 126.147 37.495 124.377 37.495ZM154.866 37.495C152.256 37.495 150.006 37.075 148.116 36.235C146.256 35.365 144.546 34.06 142.986 32.32L147.576 27.775C148.596 28.945 149.721 29.86 150.951 30.52C152.211 31.15 153.666 31.465 155.316 31.465C156.816 31.465 157.971 31.195 158.781 30.655C159.621 30.115 160.041 29.365 160.041 28.405C160.041 27.535 159.771 26.83 159.231 26.29C158.691 25.75 157.971 25.285 157.071 24.895C156.201 24.505 155.226 24.13 154.146 23.77C153.096 23.41 152.046 23.005 150.996 22.555C149.946 22.075 148.971 21.49 148.071 20.8C147.201 20.08 146.496 19.195 145.956 18.145C145.416 17.065 145.146 15.715 145.146 14.095C145.146 12.145 145.611 10.465 146.541 9.055C147.501 7.645 148.821 6.58 150.501 5.86C152.181 5.11 154.116 4.735 156.306 4.735C158.526 4.735 160.551 5.125 162.381 5.905C164.241 6.685 165.771 7.75 166.971 9.1L162.381 13.645C161.421 12.655 160.446 11.92 159.456 11.44C158.496 10.96 157.401 10.72 156.171 10.72C154.941 10.72 153.966 10.96 153.246 11.44C152.526 11.89 152.166 12.55 152.166 13.42C152.166 14.23 152.436 14.89 152.976 15.4C153.516 15.88 154.221 16.3 155.091 16.66C155.991 17.02 156.966 17.38 158.016 17.74C159.096 18.1 160.161 18.52 161.211 19C162.261 19.48 163.221 20.095 164.091 20.845C164.991 21.565 165.711 22.495 166.251 23.635C166.791 24.745 167.061 26.125 167.061 27.775C167.061 30.805 165.981 33.19 163.821 34.93C161.661 36.64 158.676 37.495 154.866 37.495ZM181.599 37.495C179.229 37.495 177.114 37.015 175.254 36.055C173.424 35.065 171.984 33.7 170.934 31.96C169.884 30.22 169.359 28.255 169.359 26.065C169.359 23.875 169.869 21.925 170.889 20.215C171.939 18.475 173.349 17.11 175.119 16.12C176.889 15.13 178.884 14.635 181.104 14.635C183.264 14.635 185.169 15.1 186.819 16.03C188.469 16.96 189.759 18.25 190.689 19.9C191.649 21.55 192.129 23.44 192.129 25.57C192.129 25.96 192.099 26.38 192.039 26.83C192.009 27.25 191.934 27.745 191.814 28.315L172.959 28.36V23.635L188.889 23.59L185.919 25.57C185.889 24.31 185.694 23.275 185.334 22.465C184.974 21.625 184.434 20.995 183.714 20.575C183.024 20.125 182.169 19.9 181.149 19.9C180.069 19.9 179.124 20.155 178.314 20.665C177.534 21.145 176.919 21.835 176.469 22.735C176.049 23.635 175.839 24.73 175.839 26.02C175.839 27.31 176.064 28.42 176.514 29.35C176.994 30.25 177.654 30.955 178.494 31.465C179.364 31.945 180.384 32.185 181.554 32.185C182.634 32.185 183.609 32.005 184.479 31.645C185.349 31.255 186.114 30.685 186.774 29.935L190.554 33.715C189.474 34.975 188.169 35.92 186.639 36.55C185.109 37.18 183.429 37.495 181.599 37.495ZM206.027 37.495C203.777 37.495 201.737 37 199.907 36.01C198.077 35.02 196.637 33.655 195.587 31.915C194.537 30.175 194.012 28.225 194.012 26.065C194.012 23.875 194.537 21.925 195.587 20.215C196.667 18.475 198.122 17.11 199.952 16.12C201.782 15.13 203.837 14.635 206.117 14.635C207.827 14.635 209.387 14.935 210.797 15.535C212.237 16.105 213.512 16.975 214.622 18.145L210.212 22.555C209.702 21.985 209.102 21.565 208.412 21.295C207.752 21.025 206.987 20.89 206.117 20.89C205.127 20.89 204.242 21.115 203.462 21.565C202.712 21.985 202.112 22.585 201.662 23.365C201.242 24.115 201.032 25 201.032 26.02C201.032 27.04 201.242 27.94 201.662 28.72C202.112 29.5 202.727 30.115 203.507 30.565C204.287 31.015 205.157 31.24 206.117 31.24C207.017 31.24 207.812 31.09 208.502 30.79C209.222 30.46 209.837 30.01 210.347 29.44L214.712 33.85C213.572 35.05 212.282 35.965 210.842 36.595C209.402 37.195 207.797 37.495 206.027 37.495ZM227.497 37.495C225.487 37.495 223.702 37.09 222.142 36.28C220.612 35.44 219.412 34.3 218.542 32.86C217.672 31.39 217.237 29.71 217.237 27.82V15.13H224.122V27.73C224.122 28.48 224.242 29.125 224.482 29.665C224.752 30.205 225.142 30.625 225.652 30.925C226.162 31.225 226.777 31.375 227.497 31.375C228.517 31.375 229.327 31.06 229.927 30.43C230.527 29.77 230.827 28.87 230.827 27.73V15.13H237.712V27.775C237.712 29.695 237.277 31.39 236.407 32.86C235.537 34.3 234.337 35.44 232.807 36.28C231.277 37.09 229.507 37.495 227.497 37.495ZM242.034 37V15.13H248.919V37H242.034ZM248.919 24.985L246.039 22.735C246.609 20.185 247.569 18.205 248.919 16.795C250.269 15.385 252.144 14.68 254.544 14.68C255.594 14.68 256.509 14.845 257.289 15.175C258.099 15.475 258.804 15.955 259.404 16.615L255.309 21.79C255.009 21.46 254.634 21.205 254.184 21.025C253.734 20.845 253.224 20.755 252.654 20.755C251.514 20.755 250.599 21.115 249.909 21.835C249.249 22.525 248.919 23.575 248.919 24.985ZM261.239 37V15.13H268.124V37H261.239ZM264.704 12.115C263.624 12.115 262.724 11.755 262.004 11.035C261.314 10.285 260.969 9.385 260.969 8.335C260.969 7.255 261.314 6.355 262.004 5.635C262.724 4.915 263.624 4.555 264.704 4.555C265.784 4.555 266.669 4.915 267.359 5.635C268.049 6.355 268.394 7.255 268.394 8.335C268.394 9.385 268.049 10.285 267.359 11.035C266.669 11.755 265.784 12.115 264.704 12.115ZM276.077 37V6.085H282.962V37H276.077ZM271.127 20.98V15.13H287.912V20.98H271.127ZM297.696 37.09L288.696 15.13H296.121L301.836 32.545H299.091L304.941 15.13H312.366L303.006 37.09H297.696ZM292.071 46.225L298.641 32.05L303.006 37.09L299.136 46.225H292.071Z" fill="#3684C9"/>
</svg>
