<svg width="444" height="106" viewBox="0 0 444 106" fill="none" xmlns="http://www.w3.org/2000/svg">
<path fill-rule="evenodd" clip-rule="evenodd" d="M107.89 37.1074C108.172 36.9469 108.52 36.9469 108.802 37.1074L124.476 46.024C124.758 46.1846 124.932 46.4813 124.932 46.8024V64.6356C124.932 64.9567 124.758 65.2534 124.476 65.4139L118.344 68.9023C118.008 69.0931 117.586 68.8082 117.601 68.4269C117.605 68.3335 117.606 68.2396 117.606 68.1454V66.8367C117.606 62.9161 114.381 59.7378 110.402 59.7378H106.196C102.217 59.7378 98.9909 62.9161 98.9909 66.8368V68.1454C98.9909 68.223 98.9922 68.3003 98.9947 68.3773C99.007 68.7569 98.5864 69.0382 98.2525 68.8482L92.2155 65.4139C91.9333 65.2534 91.7594 64.9567 91.7594 64.6356V46.8024C91.7594 46.4813 91.9333 46.1846 92.2155 46.024L107.89 37.1074ZM113.275 53.0554C113.275 55.7379 111.068 57.9125 108.346 57.9125C105.623 57.9125 103.416 55.7379 103.416 53.0554C103.416 50.3729 105.623 48.1983 108.346 48.1983C111.068 48.1983 113.275 50.3729 113.275 53.0554Z" fill="#3684C9" stroke="black" stroke-width="1.16303"/>
<path d="M115.434 38.7757V37.4998C115.434 36.8016 116.206 36.37 116.814 36.7287L120.762 39.0578C121.037 39.2201 121.206 39.5129 121.206 39.8289V41.0845C121.206 41.7812 120.436 42.213 119.828 41.8574L115.88 39.5485C115.603 39.3866 115.434 39.0929 115.434 38.7757Z" fill="#3684C9" stroke="black" stroke-width="1.16303"/>
<path opacity="0.5" fill-rule="evenodd" clip-rule="evenodd" d="M243.816 37.1074C244.098 36.9469 244.446 36.9469 244.728 37.1074L260.402 46.024C260.684 46.1846 260.858 46.4813 260.858 46.8024V64.6356C260.858 64.9567 260.684 65.2534 260.402 65.4139L254.27 68.9023C253.935 69.0931 253.512 68.8082 253.527 68.4269C253.531 68.3335 253.533 68.2396 253.533 68.1454V66.8367C253.533 62.9161 250.307 59.7378 246.328 59.7378H242.122C238.143 59.7378 234.917 62.9161 234.917 66.8368V68.1454C234.917 68.223 234.919 68.3003 234.921 68.3773C234.933 68.7569 234.513 69.0382 234.179 68.8482L228.142 65.4139C227.86 65.2534 227.686 64.9567 227.686 64.6356V46.8024C227.686 46.4813 227.86 46.1846 228.142 46.024L243.816 37.1074ZM249.202 53.0554C249.202 55.7379 246.995 57.9125 244.272 57.9125C241.55 57.9125 239.343 55.7379 239.343 53.0554C239.343 50.3729 241.55 48.1983 244.272 48.1983C246.995 48.1983 249.202 50.3729 249.202 53.0554Z" fill="#82B3DF" stroke="black" stroke-width="1.16303"/>
<path opacity="0.5" d="M251.36 38.7757V37.4998C251.36 36.8016 252.133 36.37 252.741 36.7287L256.689 39.0578C256.964 39.2201 257.132 39.5129 257.132 39.8289V41.0845C257.132 41.7812 256.363 42.213 255.755 41.8574L251.807 39.5485C251.53 39.3866 251.36 39.0929 251.36 38.7757Z" fill="#82B3DF" stroke="black" stroke-width="1.16303"/>
<path opacity="0.5" fill-rule="evenodd" clip-rule="evenodd" d="M175.852 72.7074C176.135 72.5468 176.482 72.5468 176.764 72.7074L192.439 81.624C192.721 81.7845 192.895 82.0812 192.895 82.4023V100.236C192.895 100.557 192.721 100.853 192.439 101.014L186.307 104.502C185.971 104.693 185.549 104.408 185.564 104.027C185.567 103.933 185.569 103.84 185.569 103.745V102.437C185.569 98.5161 182.344 95.3378 178.364 95.3378H174.158C170.179 95.3378 166.954 98.5161 166.954 102.437V103.745C166.954 103.823 166.955 103.9 166.957 103.977C166.97 104.357 166.549 104.638 166.215 104.448L160.178 101.014C159.896 100.853 159.722 100.557 159.722 100.236V82.4023C159.722 82.0812 159.896 81.7845 160.178 81.624L175.852 72.7074ZM181.238 88.6553C181.238 91.3378 179.031 93.5124 176.308 93.5124C173.586 93.5124 171.379 91.3378 171.379 88.6553C171.379 85.9728 173.586 83.7983 176.308 83.7983C179.031 83.7983 181.238 85.9728 181.238 88.6553Z" fill="#82B3DF" stroke="black" stroke-width="1.16303"/>
<path opacity="0.5" d="M183.397 74.3757V73.0998C183.397 72.4016 184.169 71.97 184.777 72.3287L188.725 74.6578C189 74.8201 189.169 75.1129 189.169 75.4289V76.6846C189.169 77.3813 188.399 77.813 187.791 77.4574L183.843 75.1486C183.566 74.9866 183.397 74.6929 183.397 74.3757Z" fill="#82B3DF" stroke="black" stroke-width="1.16303"/>
<path opacity="0.5" fill-rule="evenodd" clip-rule="evenodd" d="M221.161 72.7074C221.444 72.5468 221.791 72.5468 222.074 72.7074L237.748 81.624C238.03 81.7845 238.204 82.0812 238.204 82.4023V100.236C238.204 100.557 238.03 100.853 237.748 101.014L231.616 104.502C231.28 104.693 230.858 104.408 230.873 104.027C230.876 103.933 230.878 103.84 230.878 103.745V102.437C230.878 98.5161 227.653 95.3378 223.674 95.3378H219.467C215.488 95.3378 212.263 98.5161 212.263 102.437V103.745C212.263 103.823 212.264 103.9 212.266 103.977C212.279 104.357 211.858 104.638 211.524 104.448L205.487 101.014C205.205 100.853 205.031 100.557 205.031 100.236V82.4023C205.031 82.0812 205.205 81.7845 205.487 81.624L221.161 72.7074ZM226.547 88.6553C226.547 91.3378 224.34 93.5124 221.617 93.5124C218.895 93.5124 216.688 91.3378 216.688 88.6553C216.688 85.9728 218.895 83.7983 221.617 83.7983C224.34 83.7983 226.547 85.9728 226.547 88.6553Z" fill="#82B3DF" stroke="black" stroke-width="1.16303"/>
<path opacity="0.5" d="M228.705 74.3757V73.0998C228.705 72.4016 229.478 71.97 230.086 72.3287L234.034 74.6578C234.309 74.8201 234.478 75.1129 234.478 75.4289V76.6846C234.478 77.3813 233.708 77.813 233.1 77.4574L229.152 75.1486C228.875 74.9866 228.705 74.6929 228.705 74.3757Z" fill="#82B3DF" stroke="black" stroke-width="1.16303"/>
<path fill-rule="evenodd" clip-rule="evenodd" d="M222.24 1.50768C222.522 1.34713 222.87 1.34713 223.152 1.50768L238.826 10.4243C239.109 10.5848 239.283 10.8815 239.283 11.2026V29.0358C239.283 29.3569 239.109 29.6536 238.826 29.8142L232.694 33.3026C232.359 33.4934 231.936 33.2085 231.952 32.8271C231.955 32.7338 231.957 32.6399 231.957 32.5457V31.237C231.957 27.3164 228.731 24.1381 224.752 24.1381H220.546C216.567 24.1381 213.342 27.3164 213.342 31.237V32.5457C213.342 32.6232 213.343 32.7005 213.345 32.7775C213.358 33.1572 212.937 33.4384 212.603 33.2485L206.566 29.8142C206.284 29.6536 206.11 29.3569 206.11 29.0358V11.2026C206.11 10.8815 206.284 10.5848 206.566 10.4243L222.24 1.50768ZM227.626 17.4557C227.626 20.1381 225.419 22.3127 222.696 22.3127C219.974 22.3127 217.767 20.1381 217.767 17.4557C217.767 14.7732 219.974 12.5986 222.696 12.5986C225.419 12.5986 227.626 14.7732 227.626 17.4557Z" fill="#43BFDA" stroke="black" stroke-width="1.16303"/>
<path d="M229.784 3.17601V1.90015C229.784 1.20191 230.557 0.770353 231.165 1.12904L235.113 3.45813C235.388 3.62046 235.556 3.91325 235.556 4.22924V5.48489C235.556 6.18159 234.787 6.61336 234.179 6.25776L230.231 3.94889C229.954 3.78697 229.784 3.49324 229.784 3.17601Z" fill="#43BFDA" stroke="black" stroke-width="1.16303"/>
<path opacity="0.5" fill-rule="evenodd" clip-rule="evenodd" d="M175.852 1.50768C176.135 1.34713 176.482 1.34713 176.764 1.50768L192.439 10.4243C192.721 10.5848 192.895 10.8815 192.895 11.2026V29.0358C192.895 29.3569 192.721 29.6536 192.439 29.8142L186.307 33.3026C185.971 33.4934 185.549 33.2085 185.564 32.8271C185.567 32.7338 185.569 32.6399 185.569 32.5457V31.237C185.569 27.3164 182.344 24.1381 178.364 24.1381H174.158C170.179 24.1381 166.954 27.3164 166.954 31.237V32.5457C166.954 32.6232 166.955 32.7005 166.957 32.7775C166.97 33.1572 166.549 33.4384 166.215 33.2485L160.178 29.8142C159.896 29.6536 159.722 29.3569 159.722 29.0358V11.2026C159.722 10.8815 159.896 10.5848 160.178 10.4243L175.852 1.50768ZM181.238 17.4557C181.238 20.1381 179.031 22.3127 176.308 22.3127C173.586 22.3127 171.379 20.1381 171.379 17.4557C171.379 14.7732 173.586 12.5986 176.308 12.5986C179.031 12.5986 181.238 14.7732 181.238 17.4557Z" fill="#82B3DF" stroke="black" stroke-width="1.16303"/>
<path opacity="0.5" d="M183.397 3.17601V1.90015C183.397 1.20191 184.169 0.770353 184.777 1.12904L188.725 3.45813C189 3.62046 189.169 3.91325 189.169 4.22924V5.48489C189.169 6.18159 188.399 6.61336 187.791 6.25776L183.843 3.94889C183.566 3.78697 183.397 3.49324 183.397 3.17601Z" fill="#82B3DF" stroke="black" stroke-width="1.16303"/>
<path opacity="0.5" fill-rule="evenodd" clip-rule="evenodd" d="M153.198 37.1074C153.48 36.9469 153.828 36.9469 154.11 37.1074L169.784 46.024C170.067 46.1846 170.241 46.4813 170.241 46.8024V64.6356C170.241 64.9567 170.067 65.2534 169.784 65.4139L163.652 68.9023C163.317 69.0931 162.894 68.8082 162.909 68.4269C162.913 68.3335 162.915 68.2396 162.915 68.1454V66.8367C162.915 62.9161 159.689 59.7378 155.71 59.7378H151.504C147.525 59.7378 144.299 62.9161 144.299 66.8368V68.1454C144.299 68.223 144.301 68.3003 144.303 68.3773C144.316 68.7569 143.895 69.0382 143.561 68.8482L137.524 65.4139C137.242 65.2534 137.068 64.9567 137.068 64.6356V46.8024C137.068 46.4813 137.242 46.1846 137.524 46.024L153.198 37.1074ZM158.584 53.0554C158.584 55.7379 156.377 57.9125 153.654 57.9125C150.932 57.9125 148.725 55.7379 148.725 53.0554C148.725 50.3729 150.932 48.1983 153.654 48.1983C156.377 48.1983 158.584 50.3729 158.584 53.0554Z" fill="#82B3DF" stroke="black" stroke-width="1.16303"/>
<path opacity="0.5" d="M160.742 38.7757V37.4998C160.742 36.8016 161.515 36.37 162.123 36.7287L166.071 39.0578C166.346 39.2201 166.515 39.5129 166.515 39.8289V41.0845C166.515 41.7812 165.745 42.213 165.137 41.8574L161.189 39.5485C160.912 39.3866 160.742 39.0929 160.742 38.7757Z" fill="#82B3DF" stroke="black" stroke-width="1.16303"/>
<path opacity="0.5" fill-rule="evenodd" clip-rule="evenodd" d="M130.544 1.50768C130.826 1.34713 131.174 1.34713 131.456 1.50768L147.13 10.4243C147.412 10.5848 147.586 10.8815 147.586 11.2026V29.0358C147.586 29.3569 147.412 29.6536 147.13 29.8142L140.998 33.3026C140.662 33.4934 140.24 33.2085 140.255 32.8271C140.259 32.7338 140.261 32.6399 140.261 32.5457V31.237C140.261 27.3164 137.035 24.1381 133.056 24.1381H128.85C124.871 24.1381 121.645 27.3164 121.645 31.237V32.5457C121.645 32.6232 121.646 32.7005 121.649 32.7775C121.661 33.1572 121.24 33.4384 120.907 33.2485L114.87 29.8142C114.587 29.6536 114.413 29.3569 114.413 29.0358V11.2026C114.413 10.8815 114.587 10.5848 114.87 10.4243L130.544 1.50768ZM135.929 17.4557C135.929 20.1381 133.722 22.3127 131 22.3127C128.277 22.3127 126.07 20.1381 126.07 17.4557C126.07 14.7732 128.277 12.5986 131 12.5986C133.722 12.5986 135.929 14.7732 135.929 17.4557Z" fill="#82B3DF" stroke="black" stroke-width="1.16303"/>
<path opacity="0.5" d="M138.088 3.17601V1.90015C138.088 1.20191 138.861 0.770353 139.469 1.12904L143.416 3.45813C143.692 3.62046 143.86 3.91325 143.86 4.22924V5.48489C143.86 6.18159 143.09 6.61336 142.482 6.25776L138.534 3.94889C138.258 3.78697 138.088 3.49324 138.088 3.17601Z" fill="#82B3DF" stroke="black" stroke-width="1.16303"/>
<path opacity="0.5" fill-rule="evenodd" clip-rule="evenodd" d="M85.2351 72.7074C85.5173 72.5468 85.865 72.5468 86.1472 72.7074L101.821 81.624C102.104 81.7845 102.277 82.0812 102.277 82.4023V100.236C102.277 100.557 102.104 100.853 101.821 101.014L95.6893 104.502C95.3538 104.693 94.9313 104.408 94.9464 104.027C94.9501 103.933 94.9519 103.84 94.9519 103.745V102.437C94.9519 98.5161 91.7263 95.3378 87.7472 95.3378H83.5411C79.562 95.3378 76.3364 98.5161 76.3364 102.437V103.745C76.3364 103.823 76.3376 103.9 76.3401 103.977C76.3525 104.357 75.9319 104.638 75.598 104.448L69.561 101.014C69.2788 100.853 69.1049 100.557 69.1049 100.236V82.4023C69.1049 82.0812 69.2788 81.7845 69.561 81.624L85.2351 72.7074ZM90.6206 88.6553C90.6206 91.3378 88.4136 93.5124 85.6912 93.5124C82.9687 93.5124 80.7617 91.3378 80.7617 88.6553C80.7617 85.9728 82.9687 83.7983 85.6912 83.7983C88.4136 83.7983 90.6206 85.9728 90.6206 88.6553Z" fill="#82B3DF" stroke="black" stroke-width="1.16303"/>
<path opacity="0.5" d="M92.7792 74.3757V73.0998C92.7792 72.4016 93.5519 71.97 94.1599 72.3287L98.1078 74.6578C98.3829 74.8201 98.5514 75.1129 98.5514 75.4289V76.6846C98.5514 77.3813 97.7817 77.813 97.1736 77.4574L93.2258 75.1486C92.9489 74.9866 92.7792 74.6929 92.7792 74.3757Z" fill="#82B3DF" stroke="black" stroke-width="1.16303"/>
<path opacity="0.5" fill-rule="evenodd" clip-rule="evenodd" d="M39.7847 72.7074C40.0669 72.5468 40.4146 72.5468 40.6969 72.7074L56.371 81.624C56.6532 81.7845 56.827 82.0812 56.827 82.4023V100.236C56.827 100.557 56.6532 100.853 56.371 101.014L50.2389 104.502C49.9035 104.693 49.4809 104.408 49.496 104.027C49.4997 103.933 49.5015 103.84 49.5015 103.745V102.437C49.5015 98.5161 46.2759 95.3378 42.2969 95.3378H38.0907C34.1116 95.3378 30.886 98.5161 30.886 102.437V103.745C30.886 103.823 30.8873 103.9 30.8898 103.977C30.9021 104.357 30.4815 104.638 30.1476 104.448L24.1106 101.014C23.8284 100.853 23.6545 100.557 23.6545 100.236V82.4023C23.6545 82.0812 23.8284 81.7845 24.1106 81.624L39.7847 72.7074ZM45.1702 88.6553C45.1702 91.3378 42.9632 93.5124 40.2408 93.5124C37.5183 93.5124 35.3114 91.3378 35.3114 88.6553C35.3114 85.9728 37.5183 83.7983 40.2408 83.7983C42.9632 83.7983 45.1702 85.9728 45.1702 88.6553Z" fill="#82B3DF" stroke="black" stroke-width="1.16303"/>
<path opacity="0.5" d="M47.3288 74.3757V73.0998C47.3288 72.4016 48.1015 71.97 48.7095 72.3287L52.6574 74.6578C52.9326 74.8201 53.101 75.1129 53.101 75.4289V76.6846C53.101 77.3813 52.3313 77.813 51.7233 77.4574L47.7754 75.1486C47.4985 74.9866 47.3288 74.6929 47.3288 74.3757Z" fill="#82B3DF" stroke="black" stroke-width="1.16303"/>
<path opacity="0.5" fill-rule="evenodd" clip-rule="evenodd" d="M313.021 72.7074C313.304 72.5468 313.651 72.5468 313.934 72.7074L329.608 81.624C329.89 81.7845 330.064 82.0812 330.064 82.4023V100.236C330.064 100.557 329.89 100.853 329.608 101.014L323.476 104.502C323.14 104.693 322.718 104.408 322.733 104.027C322.736 103.933 322.738 103.84 322.738 103.745V102.437C322.738 98.5161 319.513 95.3378 315.534 95.3378H311.327C307.348 95.3378 304.123 98.5161 304.123 102.437V103.745C304.123 103.823 304.124 103.9 304.126 103.977C304.139 104.357 303.718 104.638 303.384 104.448L297.347 101.014C297.065 100.853 296.891 100.557 296.891 100.236V82.4023C296.891 82.0812 297.065 81.7845 297.347 81.624L313.021 72.7074ZM318.407 88.6553C318.407 91.3378 316.2 93.5124 313.478 93.5124C310.755 93.5124 308.548 91.3378 308.548 88.6553C308.548 85.9728 310.755 83.7983 313.478 83.7983C316.2 83.7983 318.407 85.9728 318.407 88.6553Z" fill="#82B3DF" stroke="black" stroke-width="1.16303"/>
<path opacity="0.5" d="M320.565 74.3757V73.0998C320.565 72.4016 321.338 71.97 321.946 72.3287L325.894 74.6578C326.169 74.8201 326.338 75.1129 326.338 75.4289V76.6846C326.338 77.3813 325.568 77.813 324.96 77.4574L321.012 75.1486C320.735 74.9866 320.565 74.6929 320.565 74.3757Z" fill="#82B3DF" stroke="black" stroke-width="1.16303"/>
<path opacity="0.5" fill-rule="evenodd" clip-rule="evenodd" d="M358.472 72.7074C358.754 72.5468 359.102 72.5468 359.384 72.7074L375.058 81.624C375.34 81.7845 375.514 82.0812 375.514 82.4023V100.236C375.514 100.557 375.34 100.853 375.058 101.014L368.926 104.502C368.59 104.693 368.168 104.408 368.183 104.027C368.187 103.933 368.189 103.84 368.189 103.745V102.437C368.189 98.5161 364.963 95.3378 360.984 95.3378H356.778C352.799 95.3378 349.573 98.5161 349.573 102.437V103.745C349.573 103.823 349.574 103.9 349.577 103.977C349.589 104.357 349.169 104.638 348.835 104.448L342.798 101.014C342.515 100.853 342.342 100.557 342.342 100.236V82.4023C342.342 82.0812 342.515 81.7845 342.798 81.624L358.472 72.7074ZM363.857 88.6553C363.857 91.3378 361.65 93.5124 358.928 93.5124C356.205 93.5124 353.998 91.3378 353.998 88.6553C353.998 85.9728 356.205 83.7983 358.928 83.7983C361.65 83.7983 363.857 85.9728 363.857 88.6553Z" fill="#82B3DF" stroke="black" stroke-width="1.16303"/>
<path opacity="0.5" d="M366.016 74.3757V73.0998C366.016 72.4016 366.789 71.97 367.397 72.3287L371.344 74.6578C371.62 74.8201 371.788 75.1129 371.788 75.4289V76.6846C371.788 77.3813 371.018 77.813 370.41 77.4574L366.462 75.1486C366.186 74.9866 366.016 74.6929 366.016 74.3757Z" fill="#82B3DF" stroke="black" stroke-width="1.16303"/>
<path opacity="0.5" fill-rule="evenodd" clip-rule="evenodd" d="M403.922 72.7074C404.204 72.5468 404.552 72.5468 404.834 72.7074L420.508 81.624C420.791 81.7845 420.964 82.0812 420.964 82.4023V100.236C420.964 100.557 420.791 100.853 420.508 101.014L414.376 104.502C414.041 104.693 413.618 104.408 413.633 104.027C413.637 103.933 413.639 103.84 413.639 103.745V102.437C413.639 98.5161 410.413 95.3378 406.434 95.3378H402.228C398.249 95.3378 395.023 98.5161 395.023 102.437V103.745C395.023 103.823 395.025 103.9 395.027 103.977C395.04 104.357 394.619 104.638 394.285 104.448L388.248 101.014C387.966 100.853 387.792 100.557 387.792 100.236V82.4023C387.792 82.0812 387.966 81.7845 388.248 81.624L403.922 72.7074ZM409.308 88.6553C409.308 91.3378 407.101 93.5124 404.378 93.5124C401.656 93.5124 399.449 91.3378 399.449 88.6553C399.449 85.9728 401.656 83.7983 404.378 83.7983C407.101 83.7983 409.308 85.9728 409.308 88.6553Z" fill="#82B3DF" stroke="black" stroke-width="1.16303"/>
<path opacity="0.5" d="M411.466 74.3757V73.0998C411.466 72.4016 412.239 71.97 412.847 72.3287L416.795 74.6578C417.07 74.8201 417.238 75.1129 417.238 75.4289V76.6846C417.238 77.3813 416.469 77.813 415.861 77.4574L411.913 75.1486C411.636 74.9866 411.466 74.6929 411.466 74.3757Z" fill="#82B3DF" stroke="black" stroke-width="1.16303"/>
<path opacity="0.5" fill-rule="evenodd" clip-rule="evenodd" d="M62.5806 37.1074C62.8628 36.9469 63.2105 36.9469 63.4927 37.1074L79.1668 46.024C79.449 46.1846 79.6229 46.4813 79.6229 46.8024V64.6356C79.6229 64.9567 79.449 65.2534 79.1668 65.4139L73.0347 68.9023C72.6993 69.0931 72.2768 68.8082 72.2918 68.4269C72.2955 68.3335 72.2974 68.2396 72.2974 68.1454V66.8367C72.2974 62.9161 69.0718 59.7378 65.0927 59.7378H60.8865C56.9075 59.7378 53.6818 62.9161 53.6818 66.8368V68.1454C53.6818 68.223 53.6831 68.3003 53.6856 68.3773C53.698 68.7569 53.2773 69.0382 52.9435 68.8482L46.9065 65.4139C46.6242 65.2534 46.4504 64.9567 46.4504 64.6356V46.8024C46.4504 46.4813 46.6242 46.1846 46.9065 46.024L62.5806 37.1074ZM67.9661 53.0554C67.9661 55.7379 65.7591 57.9125 63.0366 57.9125C60.3142 57.9125 58.1072 55.7379 58.1072 53.0554C58.1072 50.3729 60.3142 48.1983 63.0366 48.1983C65.7591 48.1983 67.9661 50.3729 67.9661 53.0554Z" fill="#82B3DF" stroke="black" stroke-width="1.16303"/>
<path opacity="0.5" d="M70.1246 38.7757V37.4998C70.1246 36.8016 70.8974 36.37 71.5054 36.7287L75.4533 39.0578C75.7284 39.2201 75.8968 39.5129 75.8968 39.8289V41.0845C75.8968 41.7812 75.1271 42.213 74.5191 41.8574L70.5712 39.5485C70.2944 39.3866 70.1246 39.0929 70.1246 38.7757Z" fill="#82B3DF" stroke="black" stroke-width="1.16303"/>
<path opacity="0.5" fill-rule="evenodd" clip-rule="evenodd" d="M17.1302 37.1074C17.4124 36.9469 17.7601 36.9469 18.0423 37.1074L33.7164 46.024C33.9986 46.1846 34.1725 46.4813 34.1725 46.8024V64.6356C34.1725 64.9567 33.9986 65.2534 33.7164 65.4139L27.5844 68.9023C27.2489 69.0931 26.8264 68.8082 26.8415 68.4269C26.8452 68.3335 26.847 68.2396 26.847 68.1454V66.8367C26.847 62.9161 23.6214 59.7378 19.6423 59.7378H15.4362C11.4571 59.7378 8.23146 62.9161 8.23146 66.8368V68.1454C8.23146 68.223 8.23272 68.3003 8.23523 68.3773C8.2476 68.7569 7.82696 69.0382 7.4931 68.8482L1.45608 65.4139C1.17386 65.2534 1 64.9567 1 64.6356V46.8024C1 46.4813 1.17386 46.1846 1.45608 46.024L17.1302 37.1074ZM22.5157 53.0554C22.5157 55.7379 20.3087 57.9125 17.5863 57.9125C14.8638 57.9125 12.6568 55.7379 12.6568 53.0554C12.6568 50.3729 14.8638 48.1983 17.5863 48.1983C20.3087 48.1983 22.5157 50.3729 22.5157 53.0554Z" fill="#82B3DF" stroke="black" stroke-width="1.16303"/>
<path opacity="0.5" d="M24.6743 38.7757V37.4998C24.6743 36.8016 25.447 36.37 26.055 36.7287L30.0029 39.0578C30.278 39.2201 30.4465 39.5129 30.4465 39.8289V41.0845C30.4465 41.7812 29.6768 42.213 29.0687 41.8574L25.1208 39.5485C24.844 39.3866 24.6743 39.0929 24.6743 38.7757Z" fill="#82B3DF" stroke="black" stroke-width="1.16303"/>
<path fill-rule="evenodd" clip-rule="evenodd" d="M335.817 37.1074C336.099 36.9469 336.447 36.9469 336.729 37.1074L352.403 46.024C352.686 46.1846 352.86 46.4813 352.86 46.8024V64.6356C352.86 64.9567 352.686 65.2534 352.403 65.4139L346.271 68.9023C345.936 69.0931 345.513 68.8082 345.528 68.4269C345.532 68.3335 345.534 68.2396 345.534 68.1454V66.8367C345.534 62.9161 342.308 59.7378 338.329 59.7378H334.123C330.144 59.7378 326.918 62.9161 326.918 66.8368V68.1454C326.918 68.223 326.92 68.3003 326.922 68.3773C326.935 68.7569 326.514 69.0382 326.18 68.8482L320.143 65.4139C319.861 65.2534 319.687 64.9567 319.687 64.6356V46.8024C319.687 46.4813 319.861 46.1846 320.143 46.024L335.817 37.1074ZM341.203 53.0554C341.203 55.7379 338.996 57.9125 336.273 57.9125C333.551 57.9125 331.344 55.7379 331.344 53.0554C331.344 50.3729 333.551 48.1983 336.273 48.1983C338.996 48.1983 341.203 50.3729 341.203 53.0554Z" fill="black" stroke="black" stroke-width="1.16303"/>
<path d="M343.361 38.7757V37.4998C343.361 36.8016 344.134 36.37 344.742 36.7287L348.69 39.0578C348.965 39.2201 349.133 39.5129 349.133 39.8289V41.0845C349.133 41.7812 348.364 42.213 347.756 41.8574L343.808 39.5485C343.531 39.3866 343.361 39.0929 343.361 38.7757Z" fill="black" stroke="black" stroke-width="1.16303"/>
<path opacity="0.5" fill-rule="evenodd" clip-rule="evenodd" d="M381.268 37.1074C381.55 36.9469 381.898 36.9469 382.18 37.1074L397.854 46.024C398.136 46.1846 398.31 46.4813 398.31 46.8024V64.6356C398.31 64.9567 398.136 65.2534 397.854 65.4139L391.722 68.9023C391.386 69.0931 390.964 68.8082 390.979 68.4269C390.983 68.3335 390.984 68.2396 390.984 68.1454V66.8367C390.984 62.9161 387.759 59.7378 383.78 59.7378H379.574C375.595 59.7378 372.369 62.9161 372.369 66.8368V68.1454C372.369 68.223 372.37 68.3003 372.373 68.3773C372.385 68.7569 371.964 69.0382 371.631 68.8482L365.594 65.4139C365.311 65.2534 365.137 64.9567 365.137 64.6356V46.8024C365.137 46.4813 365.311 46.1846 365.594 46.024L381.268 37.1074ZM386.653 53.0554C386.653 55.7379 384.446 57.9125 381.724 57.9125C379.001 57.9125 376.794 55.7379 376.794 53.0554C376.794 50.3729 379.001 48.1983 381.724 48.1983C384.446 48.1983 386.653 50.3729 386.653 53.0554Z" fill="#82B3DF" stroke="black" stroke-width="1.16303"/>
<path opacity="0.5" d="M388.812 38.7757V37.4998C388.812 36.8016 389.584 36.37 390.192 36.7287L394.14 39.0578C394.415 39.2201 394.584 39.5129 394.584 39.8289V41.0845C394.584 41.7812 393.814 42.213 393.206 41.8574L389.258 39.5485C388.981 39.3866 388.812 39.0929 388.812 38.7757Z" fill="#82B3DF" stroke="black" stroke-width="1.16303"/>
<path opacity="0.5" fill-rule="evenodd" clip-rule="evenodd" d="M426.184 37.1074C426.466 36.9469 426.813 36.9469 427.096 37.1074L442.77 46.024C443.052 46.1846 443.226 46.4813 443.226 46.8024V64.6356C443.226 64.9567 443.052 65.2534 442.77 65.4139L436.638 68.9023C436.302 69.0931 435.88 68.8082 435.895 68.4269C435.899 68.3335 435.9 68.2396 435.9 68.1454V66.8367C435.9 62.9161 432.675 59.7378 428.696 59.7378H424.489C420.51 59.7378 417.285 62.9161 417.285 66.8368V68.1454C417.285 68.223 417.286 68.3003 417.289 68.3773C417.301 68.7569 416.88 69.0382 416.546 68.8482L410.509 65.4139C410.227 65.2534 410.053 64.9567 410.053 64.6356V46.8024C410.053 46.4813 410.227 46.1846 410.509 46.024L426.184 37.1074ZM431.569 53.0554C431.569 55.7379 429.362 57.9125 426.64 57.9125C423.917 57.9125 421.71 55.7379 421.71 53.0554C421.71 50.3729 423.917 48.1983 426.64 48.1983C429.362 48.1983 431.569 50.3729 431.569 53.0554Z" fill="#82B3DF" stroke="black" stroke-width="1.16303"/>
<path opacity="0.5" d="M433.728 38.7757V37.4998C433.728 36.8016 434.5 36.37 435.108 36.7287L439.056 39.0578C439.331 39.2201 439.5 39.5129 439.5 39.8289V41.0845C439.5 41.7812 438.73 42.213 438.122 41.8574L434.174 39.5485C433.897 39.3866 433.728 39.0929 433.728 38.7757Z" fill="#82B3DF" stroke="black" stroke-width="1.16303"/>
<g opacity="0.5">
<path fill-rule="evenodd" clip-rule="evenodd" d="M85.2351 1.50768C85.5173 1.34713 85.865 1.34713 86.1472 1.50768L101.821 10.4243C102.104 10.5848 102.277 10.8815 102.277 11.2026V29.0358C102.277 29.3569 102.104 29.6536 101.821 29.8142L95.6893 33.3026C95.3538 33.4934 94.9313 33.2085 94.9464 32.8271C94.9501 32.7338 94.9519 32.6399 94.9519 32.5457V31.237C94.9519 27.3164 91.7263 24.1381 87.7472 24.1381H83.5411C79.562 24.1381 76.3364 27.3164 76.3364 31.237V32.5457C76.3364 32.6232 76.3376 32.7005 76.3401 32.7775C76.3525 33.1572 75.9319 33.4384 75.598 33.2485L69.561 29.8142C69.2788 29.6536 69.1049 29.3569 69.1049 29.0358V11.2026C69.1049 10.8815 69.2788 10.5848 69.561 10.4243L85.2351 1.50768ZM90.6206 17.4557C90.6206 20.1381 88.4136 22.3127 85.6912 22.3127C82.9687 22.3127 80.7617 20.1381 80.7617 17.4557C80.7617 14.7732 82.9687 12.5986 85.6912 12.5986C88.4136 12.5986 90.6206 14.7732 90.6206 17.4557Z" fill="#82B3DF" stroke="black" stroke-width="1.16303"/>
<path d="M92.7792 3.17601V1.90015C92.7792 1.20191 93.5519 0.770353 94.1599 1.12904L98.1078 3.45813C98.3829 3.62046 98.5514 3.91325 98.5514 4.22924V5.48489C98.5514 6.18159 97.7817 6.61336 97.1736 6.25776L93.2258 3.94889C92.9489 3.78697 92.7792 3.49324 92.7792 3.17601Z" fill="#82B3DF" stroke="black" stroke-width="1.16303"/>
</g>
<path fill-rule="evenodd" clip-rule="evenodd" d="M39.565 1.50768C39.8473 1.34713 40.195 1.34713 40.4772 1.50768L56.1513 10.4243C56.4335 10.5848 56.6074 10.8815 56.6074 11.2026V29.0358C56.6074 29.3569 56.4335 29.6536 56.1513 29.8142L50.0192 33.3026C49.6838 33.4934 49.2612 33.2085 49.2763 32.8271C49.28 32.7338 49.2819 32.6399 49.2819 32.5457V31.237C49.2819 27.3164 46.0562 24.1381 42.0772 24.1381H37.871C33.892 24.1381 30.6663 27.3164 30.6663 31.237V32.5457C30.6663 32.6232 30.6676 32.7005 30.6701 32.7775C30.6825 33.1572 30.2618 33.4384 29.928 33.2485L23.8909 29.8142C23.6087 29.6536 23.4349 29.3569 23.4349 29.0358V11.2026C23.4349 10.8815 23.6087 10.5848 23.8909 10.4243L39.565 1.50768ZM44.9506 17.4557C44.9506 20.1381 42.7436 22.3127 40.0211 22.3127C37.2987 22.3127 35.0917 20.1381 35.0917 17.4557C35.0917 14.7732 37.2987 12.5986 40.0211 12.5986C42.7436 12.5986 44.9506 14.7732 44.9506 17.4557Z" fill="white" stroke="black" stroke-width="1.16303"/>
<path d="M47.1091 3.17601V1.90015C47.1091 1.20191 47.8819 0.770353 48.4899 1.12904L52.4378 3.45813C52.7129 3.62046 52.8813 3.91325 52.8813 4.22924V5.48489C52.8813 6.18159 52.1116 6.61336 51.5036 6.25776L47.5557 3.94889C47.2789 3.78697 47.1091 3.49324 47.1091 3.17601Z" fill="white" stroke="black" stroke-width="1.16303"/>
<g opacity="0.5">
<path fill-rule="evenodd" clip-rule="evenodd" d="M313.021 1.50768C313.304 1.34713 313.651 1.34713 313.934 1.50768L329.608 10.4243C329.89 10.5848 330.064 10.8815 330.064 11.2026V29.0358C330.064 29.3569 329.89 29.6536 329.608 29.8142L323.476 33.3026C323.14 33.4934 322.718 33.2085 322.733 32.8271C322.736 32.7338 322.738 32.6399 322.738 32.5457V31.237C322.738 27.3164 319.513 24.1381 315.534 24.1381H311.327C307.348 24.1381 304.123 27.3164 304.123 31.237V32.5457C304.123 32.6232 304.124 32.7005 304.126 32.7775C304.139 33.1572 303.718 33.4384 303.384 33.2485L297.347 29.8142C297.065 29.6536 296.891 29.3569 296.891 29.0358V11.2026C296.891 10.8815 297.065 10.5848 297.347 10.4243L313.021 1.50768ZM318.407 17.4557C318.407 20.1381 316.2 22.3127 313.478 22.3127C310.755 22.3127 308.548 20.1381 308.548 17.4557C308.548 14.7732 310.755 12.5986 313.478 12.5986C316.2 12.5986 318.407 14.7732 318.407 17.4557Z" fill="#82B3DF" stroke="black" stroke-width="1.16303"/>
<path d="M320.565 3.17601V1.90015C320.565 1.20191 321.338 0.770353 321.946 1.12904L325.894 3.45813C326.169 3.62046 326.338 3.91325 326.338 4.22924V5.48489C326.338 6.18159 325.568 6.61336 324.96 6.25776L321.012 3.94889C320.735 3.78697 320.565 3.49324 320.565 3.17601Z" fill="#82B3DF" stroke="black" stroke-width="1.16303"/>
</g>
<g opacity="0.5">
<path fill-rule="evenodd" clip-rule="evenodd" d="M358.472 1.50768C358.754 1.34713 359.102 1.34713 359.384 1.50768L375.058 10.4243C375.34 10.5848 375.514 10.8815 375.514 11.2026V29.0358C375.514 29.3569 375.34 29.6536 375.058 29.8142L368.926 33.3026C368.59 33.4934 368.168 33.2085 368.183 32.8271C368.187 32.7338 368.189 32.6399 368.189 32.5457V31.237C368.189 27.3164 364.963 24.1381 360.984 24.1381H356.778C352.799 24.1381 349.573 27.3164 349.573 31.237V32.5457C349.573 32.6232 349.574 32.7005 349.577 32.7775C349.589 33.1572 349.169 33.4384 348.835 33.2485L342.798 29.8142C342.515 29.6536 342.342 29.3569 342.342 29.0358V11.2026C342.342 10.8815 342.515 10.5848 342.798 10.4243L358.472 1.50768ZM363.857 17.4557C363.857 20.1381 361.65 22.3127 358.928 22.3127C356.205 22.3127 353.998 20.1381 353.998 17.4557C353.998 14.7732 356.205 12.5986 358.928 12.5986C361.65 12.5986 363.857 14.7732 363.857 17.4557Z" fill="#82B3DF" stroke="black" stroke-width="1.16303"/>
<path d="M366.016 3.17601V1.90015C366.016 1.20191 366.789 0.770353 367.397 1.12904L371.344 3.45813C371.62 3.62046 371.788 3.91325 371.788 4.22924V5.48489C371.788 6.18159 371.018 6.61336 370.41 6.25776L366.462 3.94889C366.186 3.78697 366.016 3.49324 366.016 3.17601Z" fill="#82B3DF" stroke="black" stroke-width="1.16303"/>
</g>
<g opacity="0.5">
<path fill-rule="evenodd" clip-rule="evenodd" d="M403.922 1.50768C404.204 1.34713 404.552 1.34713 404.834 1.50768L420.508 10.4243C420.791 10.5848 420.964 10.8815 420.964 11.2026V29.0358C420.964 29.3569 420.791 29.6536 420.508 29.8142L414.376 33.3026C414.041 33.4934 413.618 33.2085 413.633 32.8271C413.637 32.7338 413.639 32.6399 413.639 32.5457V31.237C413.639 27.3164 410.413 24.1381 406.434 24.1381H402.228C398.249 24.1381 395.023 27.3164 395.023 31.237V32.5457C395.023 32.6232 395.025 32.7005 395.027 32.7775C395.04 33.1572 394.619 33.4384 394.285 33.2485L388.248 29.8142C387.966 29.6536 387.792 29.3569 387.792 29.0358V11.2026C387.792 10.8815 387.966 10.5848 388.248 10.4243L403.922 1.50768ZM409.308 17.4557C409.308 20.1381 407.101 22.3127 404.378 22.3127C401.656 22.3127 399.449 20.1381 399.449 17.4557C399.449 14.7732 401.656 12.5986 404.378 12.5986C407.101 12.5986 409.308 14.7732 409.308 17.4557Z" fill="#82B3DF" stroke="black" stroke-width="1.16303"/>
<path d="M411.466 3.17601V1.90015C411.466 1.20191 412.239 0.770353 412.847 1.12904L416.795 3.45813C417.07 3.62046 417.238 3.91325 417.238 4.22924V5.48489C417.238 6.18159 416.469 6.61336 415.861 6.25776L411.913 3.94889C411.636 3.78697 411.466 3.49324 411.466 3.17601Z" fill="#82B3DF" stroke="black" stroke-width="1.16303"/>
</g>
<path fill-rule="evenodd" clip-rule="evenodd" d="M266.47 72.7074C266.752 72.5468 267.1 72.5468 267.382 72.7074L283.056 81.624C283.338 81.7845 283.512 82.0812 283.512 82.4023V100.236C283.512 100.557 283.338 100.853 283.056 101.014L276.924 104.502C276.589 104.693 276.166 104.408 276.181 104.027C276.185 103.933 276.187 103.84 276.187 103.745V102.437C276.187 98.5161 272.961 95.3378 268.982 95.3378H264.776C260.797 95.3378 257.571 98.5161 257.571 102.437V103.745C257.571 103.823 257.572 103.9 257.575 103.977C257.587 104.357 257.167 104.638 256.833 104.448L250.796 101.014C250.514 100.853 250.34 100.557 250.34 100.236V82.4023C250.34 82.0812 250.514 81.7845 250.796 81.624L266.47 72.7074ZM271.855 88.6553C271.855 91.3378 269.648 93.5124 266.926 93.5124C264.204 93.5124 261.997 91.3378 261.997 88.6553C261.997 85.9728 264.204 83.7983 266.926 83.7983C269.648 83.7983 271.855 85.9728 271.855 88.6553Z" fill="#DD4C80" stroke="black" stroke-width="1.16303"/>
<path d="M274.014 74.3757V73.0998C274.014 72.4016 274.787 71.97 275.395 72.3287L279.343 74.6578C279.618 74.8201 279.786 75.1129 279.786 75.4289V76.6846C279.786 77.3813 279.017 77.813 278.409 77.4574L274.461 75.1486C274.184 74.9866 274.014 74.6929 274.014 74.3757Z" fill="#DD4C80" stroke="black" stroke-width="1.16303"/>
<path opacity="0.5" fill-rule="evenodd" clip-rule="evenodd" d="M289.125 37.1074C289.407 36.9469 289.755 36.9469 290.037 37.1074L305.711 46.024C305.993 46.1846 306.167 46.4813 306.167 46.8024V64.6356C306.167 64.9567 305.993 65.2534 305.711 65.4139L299.579 68.9023C299.243 69.0931 298.821 68.8082 298.836 68.4269C298.84 68.3335 298.841 68.2396 298.841 68.1454V66.8367C298.841 62.9161 295.616 59.7378 291.637 59.7378H287.431C283.452 59.7378 280.226 62.9161 280.226 66.8368V68.1454C280.226 68.223 280.227 68.3003 280.23 68.3773C280.242 68.7569 279.821 69.0382 279.488 68.8482L273.45 65.4139C273.168 65.2534 272.994 64.9567 272.994 64.6356V46.8024C272.994 46.4813 273.168 46.1846 273.45 46.024L289.125 37.1074ZM294.51 53.0554C294.51 55.7379 292.303 57.9125 289.581 57.9125C286.858 57.9125 284.651 55.7379 284.651 53.0554C284.651 50.3729 286.858 48.1983 289.581 48.1983C292.303 48.1983 294.51 50.3729 294.51 53.0554Z" fill="#82B3DF" stroke="black" stroke-width="1.16303"/>
<path opacity="0.5" d="M296.669 38.7757V37.4998C296.669 36.8016 297.442 36.37 298.05 36.7287L301.997 39.0578C302.273 39.2201 302.441 39.5129 302.441 39.8289V41.0845C302.441 41.7812 301.671 42.213 301.063 41.8574L297.115 39.5485C296.839 39.3866 296.669 39.0929 296.669 38.7757Z" fill="#82B3DF" stroke="black" stroke-width="1.16303"/>
<path opacity="0.5" fill-rule="evenodd" clip-rule="evenodd" d="M267.549 1.50768C267.831 1.34713 268.179 1.34713 268.461 1.50768L284.135 10.4243C284.417 10.5848 284.591 10.8815 284.591 11.2026V29.0358C284.591 29.3569 284.417 29.6536 284.135 29.8142L278.003 33.3026C277.668 33.4934 277.245 33.2085 277.26 32.8271C277.264 32.7338 277.266 32.6399 277.266 32.5457V31.237C277.266 27.3164 274.04 24.1381 270.061 24.1381H265.855C261.876 24.1381 258.65 27.3164 258.65 31.237V32.5457C258.65 32.6232 258.651 32.7005 258.654 32.7775C258.666 33.1572 258.246 33.4384 257.912 33.2485L251.875 29.8142C251.592 29.6536 251.419 29.3569 251.419 29.0358V11.2026C251.419 10.8815 251.592 10.5848 251.875 10.4243L267.549 1.50768ZM272.934 17.4557C272.934 20.1381 270.727 22.3127 268.005 22.3127C265.282 22.3127 263.075 20.1381 263.075 17.4557C263.075 14.7732 265.282 12.5986 268.005 12.5986C270.727 12.5986 272.934 14.7732 272.934 17.4557Z" fill="#82B3DF" stroke="black" stroke-width="1.16303"/>
<path opacity="0.5" d="M275.093 3.17601V1.90015C275.093 1.20191 275.866 0.770353 276.474 1.12904L280.422 3.45813C280.697 3.62046 280.865 3.91325 280.865 4.22924V5.48489C280.865 6.18159 280.095 6.61336 279.487 6.25776L275.54 3.94889C275.263 3.78697 275.093 3.49324 275.093 3.17601Z" fill="#82B3DF" stroke="black" stroke-width="1.16303"/>
<path fill-rule="evenodd" clip-rule="evenodd" d="M130.544 72.7074C130.826 72.5468 131.174 72.5468 131.456 72.7074L147.13 81.624C147.412 81.7845 147.586 82.0812 147.586 82.4023V100.236C147.586 100.557 147.412 100.853 147.13 101.014L140.998 104.502C140.662 104.693 140.24 104.408 140.255 104.027C140.259 103.933 140.261 103.84 140.261 103.745V102.437C140.261 98.5161 137.035 95.3378 133.056 95.3378H128.85C124.871 95.3378 121.645 98.5161 121.645 102.437V103.745C121.645 103.823 121.646 103.9 121.649 103.977C121.661 104.357 121.24 104.638 120.907 104.448L114.87 101.014C114.587 100.853 114.413 100.557 114.413 100.236V82.4023C114.413 82.0812 114.587 81.7845 114.87 81.624L130.544 72.7074ZM135.929 88.6553C135.929 91.3378 133.722 93.5124 131 93.5124C128.277 93.5124 126.07 91.3378 126.07 88.6553C126.07 85.9728 128.277 83.7983 131 83.7983C133.722 83.7983 135.929 85.9728 135.929 88.6553Z" fill="#82DFB2" stroke="black" stroke-width="1.16303"/>
<path d="M138.088 74.3757V73.0998C138.088 72.4016 138.861 71.97 139.469 72.3287L143.416 74.6578C143.692 74.8201 143.86 75.1129 143.86 75.4289V76.6846C143.86 77.3813 143.09 77.813 142.482 77.4574L138.534 75.1486C138.258 74.9866 138.088 74.6929 138.088 74.3757Z" fill="#82DFB2" stroke="black" stroke-width="1.16303"/>
<path fill-rule="evenodd" clip-rule="evenodd" d="M198.507 37.1074C198.789 36.9469 199.137 36.9469 199.419 37.1074L215.093 46.024C215.375 46.1846 215.549 46.4813 215.549 46.8024V64.6356C215.549 64.9567 215.375 65.2534 215.093 65.4139L208.961 68.9023C208.626 69.0931 208.203 68.8082 208.218 68.4269C208.222 68.3335 208.224 68.2396 208.224 68.1454V66.8367C208.224 62.9161 204.998 59.7378 201.019 59.7378H196.813C192.834 59.7378 189.608 62.9161 189.608 66.8368V68.1454C189.608 68.223 189.609 68.3003 189.612 68.3773C189.624 68.7569 189.204 69.0382 188.87 68.8482L182.833 65.4139C182.551 65.2534 182.377 64.9567 182.377 64.6356V46.8024C182.377 46.4813 182.551 46.1846 182.833 46.024L198.507 37.1074ZM203.892 53.0554C203.892 55.7379 201.685 57.9125 198.963 57.9125C196.241 57.9125 194.034 55.7379 194.034 53.0554C194.034 50.3729 196.241 48.1983 198.963 48.1983C201.685 48.1983 203.892 50.3729 203.892 53.0554Z" fill="#FFBF60" stroke="black" stroke-width="1.16303"/>
<path d="M206.051 38.7757V37.4998C206.051 36.8016 206.824 36.37 207.432 36.7287L211.38 39.0578C211.655 39.2201 211.823 39.5129 211.823 39.8289V41.0845C211.823 41.7812 211.054 42.213 210.445 41.8574L206.498 39.5485C206.221 39.3866 206.051 39.0929 206.051 38.7757Z" fill="#FFBF60" stroke="black" stroke-width="1.16303"/>
</svg>
