<svg width="102" height="101" viewBox="0 0 102 101" fill="none" xmlns="http://www.w3.org/2000/svg">
<path fill-rule="evenodd" clip-rule="evenodd" d="M49.2356 1.62822C50.0949 1.13214 51.1535 1.13214 52.0127 1.62822L99.7333 29.1797C100.593 29.6758 101.122 30.5926 101.122 31.5847V86.6877C101.122 87.6799 100.593 88.5967 99.7333 89.0927L81.0639 99.8715C80.0427 100.461 78.7562 99.5808 78.8021 98.4024C78.8134 98.1139 78.819 97.824 78.819 97.5327V93.4891C78.819 81.3747 68.9984 71.5541 56.884 71.5541H44.0781C31.9637 71.5541 22.143 81.3748 22.143 93.4892V97.5327C22.143 97.7725 22.1469 98.0113 22.1545 98.2492C22.1922 99.4223 20.9115 100.291 19.8951 99.7045L1.51505 89.0927C0.655814 88.5967 0.126503 87.6799 0.126503 86.6877V31.5847C0.126503 30.5926 0.655815 29.6758 1.51505 29.1797L49.2356 1.62822ZM65.6321 50.906C65.6321 59.1946 58.9129 65.9139 50.6242 65.9139C42.3356 65.9139 35.6163 59.1946 35.6163 50.906C35.6163 42.6173 42.3356 35.8981 50.6242 35.8981C58.9129 35.8981 65.6321 42.6173 65.6321 50.906Z" fill="black"/>
<path d="M72.2039 6.78343V2.84113C72.2039 0.683651 74.5566 -0.649836 76.4077 0.458477L88.4272 7.65516C89.2649 8.15675 89.7777 9.06142 89.7777 10.0378V13.9176C89.7777 16.0704 87.4343 17.4045 85.5831 16.3058L73.5636 9.17154C72.7207 8.67123 72.2039 7.76363 72.2039 6.78343Z" fill="black"/>
</svg>
