<svg width="178" height="180" viewBox="0 0 178 180" fill="none" xmlns="http://www.w3.org/2000/svg">
<path d="M151.666 68.5711C149.859 68.7527 147.181 67.8812 146.669 67.707C146.619 67.6902 146.593 67.6382 146.606 67.5878L151.533 49.4143C151.546 49.3673 151.59 49.3363 151.638 49.3415C151.899 49.3697 152.716 49.4668 153.25 49.6309C153.892 49.8285 155.643 50.9255 156.341 51.9218L159.045 55.7785C159.087 55.8385 159.176 55.8358 159.213 55.7726C159.523 55.2473 160.677 53.3399 161.425 52.8156C162.295 52.2058 163.07 52.2312 164.116 52.4153C165.596 52.6755 166.2 53.592 167.208 54.706C167.846 55.4105 168.241 55.8207 168.605 56.6987C169.011 57.6804 169.189 58.3434 169.005 59.3899C168.821 60.4363 168.39 60.9657 167.711 61.783C166.8 62.8795 166.127 63.6384 164.722 63.8781C163.218 64.1346 161.152 62.6726 160.716 62.3484C160.67 62.3142 160.606 62.3244 160.573 62.371C160.202 62.8866 158.2 65.6047 156.35 66.774C154.694 67.8209 153.616 68.3753 151.666 68.5711Z" fill="#3D210F" stroke="#3D210F" stroke-width="0.5"/>
<path d="M147.579 66.9783C145.594 68.7748 144.692 73.2046 144.519 74.1509C144.505 74.2293 144.409 74.2588 144.351 74.2049L137.318 67.7379C137.277 67.6995 137.275 67.6341 137.315 67.5938L140.079 64.8122C140.094 64.7977 140.103 64.7791 140.107 64.759L140.392 63.136C140.397 63.1098 140.391 63.083 140.376 63.0612L137.641 59.1603C137.62 59.1293 137.617 59.0886 137.635 59.0553L140.187 54.3377C140.192 54.3282 140.195 54.318 140.197 54.3074L140.478 52.7094C140.487 52.6624 140.526 52.6278 140.574 52.626C140.923 52.6125 142.314 52.5408 143.184 52.2283C144.525 51.7461 144.875 50.7222 146.173 50.1332C147.89 49.354 150.798 49.3271 151.431 49.331C151.495 49.3313 151.54 49.3911 151.525 49.4537C151.411 49.9126 151.016 51.5747 150.959 52.7219C150.853 54.8443 151.274 56.0355 151.76 58.1042C152.104 59.5669 153.119 60.3117 152.859 61.7917C152.685 62.7776 151.69 64.03 151.575 64.1716C151.568 64.1806 151.561 64.1868 151.551 64.1928C151.348 64.3128 148.928 65.7567 147.579 66.9783Z" fill="#855D46" stroke="#855D46" stroke-width="0.5"/>
<circle cx="167.64" cy="109.892" r="4.8973" fill="#855D46"/>
<circle cx="111.206" cy="31.1461" r="4.8973" fill="#855D46"/>
<path d="M144.368 87.2772L130.875 106.553C130.717 106.779 130.404 106.834 130.177 106.674L108.688 91.5053C108.461 91.3451 108.408 91.0306 108.57 90.805L123.369 70.2155C123.369 70.2155 110.79 62.3411 108.276 58.4035C106.245 55.2238 106.639 42.2 106.865 37.3062C106.914 36.2517 107.786 35.4359 108.841 35.4359H113.494C114.599 35.4359 115.494 36.3313 115.494 37.4359V52.9081C115.494 53.063 115.565 53.2081 115.688 53.3021C116.868 54.2024 123.18 58.9651 127.307 61.0284C129.984 62.3672 135.764 66.0472 136.939 66.7991C137.074 66.8855 137.156 67.0285 137.188 67.1854C137.294 67.6994 137.686 68.9317 139.118 70.2155C141.332 72.2006 145.258 71.7046 146.152 71.5602C146.273 71.5408 146.391 71.5594 146.496 71.6224C147.615 72.2962 154.322 76.4527 155.524 80.0588C156.708 83.6116 153.618 96.2478 153.003 98.6818C152.943 98.9192 153.063 99.1621 153.287 99.2616L163.09 103.619C164.015 104.03 164.487 105.067 164.189 106.034L162.614 111.154C162.314 112.13 161.329 112.718 160.339 112.467C156.43 111.477 147.111 108.588 144.368 103.026C141.648 97.5103 144.368 87.2772 144.368 87.2772Z" fill="#D9E7EC" stroke="#DBE6EE" stroke-width="0.4" stroke-linecap="round"/>
<path d="M117.714 160.382L120.979 166.462C120.998 166.498 121.037 166.518 121.078 166.514L124.293 166.168L126.049 163.082C126.068 163.049 126.067 163.009 126.045 162.977L124.333 160.493C123.674 159.536 122.996 157.539 122.825 157.016C122.804 156.952 122.728 156.927 122.672 156.965L117.714 160.382Z" fill="#855D46" stroke="#855D46" stroke-width="0.5"/>
<path d="M117.69 172.543L119.912 166.403C119.929 166.357 119.974 166.33 120.022 166.337C120.428 166.394 122.254 166.599 123.349 165.845C124.476 165.068 125.98 162.48 126.238 162.026C126.262 161.985 126.307 161.966 126.351 161.98C126.869 162.142 129.922 163.164 130.164 164.886C130.274 165.663 129.845 166.831 129.779 167.005C129.773 167.02 129.764 167.032 129.752 167.043L119.282 176.116C119.255 176.14 119.218 176.147 119.185 176.134C118.901 176.028 117.575 175.49 117.294 174.69C117.023 173.916 117.642 172.643 117.686 172.554C117.688 172.55 117.689 172.547 117.69 172.543Z" fill="black" stroke="black" stroke-width="0.5"/>
<path d="M80.247 160.202L78.7127 166.931C78.7037 166.97 78.7196 167.011 78.7529 167.035L81.4043 168.886L84.7551 167.714C84.7914 167.702 84.817 167.67 84.8214 167.632L85.1631 164.635C85.2948 163.481 86.0965 161.53 86.3109 161.023C86.3372 160.961 86.296 160.892 86.2292 160.884L80.247 160.202Z" fill="#855D46" stroke="#855D46" stroke-width="0.5"/>
<path d="M72.2372 169.354L77.9468 166.185C77.9891 166.161 78.0416 166.17 78.0733 166.207C78.3417 166.517 79.5831 167.872 80.9042 168.022C82.2645 168.177 85.0989 167.214 85.5919 167.042C85.6358 167.027 85.6826 167.042 85.7069 167.082C85.9909 167.543 87.6208 170.32 86.6718 171.778C86.2435 172.436 85.1535 173.034 84.9892 173.122C84.9749 173.129 84.9598 173.133 84.9437 173.133L71.0893 173.092C71.0535 173.092 71.021 173.074 71.0041 173.043C70.8607 172.776 70.2142 171.499 70.5284 170.711C70.8324 169.95 72.1349 169.397 72.2268 169.359C72.2305 169.357 72.2337 169.356 72.2372 169.354Z" fill="black" stroke="black" stroke-width="0.5"/>
<path d="M131.498 106.684L108.564 90.7577C108.391 90.638 108.17 90.6337 107.999 90.7562C105.486 92.5613 86.5808 106.406 79.4031 119.432C78.2969 121.44 77.4346 122.057 76.7782 124.682C76.2006 126.992 78.1639 152.675 78.6436 158.808C78.7062 159.608 79.2412 160.282 80.0025 160.536L86.5346 162.714C87.6423 163.083 88.8249 162.431 89.0786 161.292C89.7822 158.131 91.0184 152.064 91.2151 147.649C91.4723 141.877 90.2061 133.223 89.9479 131.535C89.92 131.353 89.9941 131.174 90.1406 131.063L103.683 120.744C103.683 120.744 101.434 129.096 101.715 134.525C102.236 144.589 112.079 156.71 115.582 160.723C116.267 161.507 117.433 161.586 118.246 160.936L122.403 157.61C122.996 157.136 123.269 156.37 123.096 155.632C122.583 153.452 121.412 148.791 120.089 145.681C118.354 141.603 114.616 136.099 113.722 134.806C113.604 134.636 113.602 134.412 113.717 134.24L131.629 107.372C131.78 107.145 131.722 106.839 131.498 106.684Z" fill="#254080" stroke="#254080" stroke-width="0.4" stroke-linecap="round"/>
<path d="M175.209 111.443L163.343 108.429C163.034 108.35 162.877 108.007 163.018 107.722L164.84 104.05C164.946 103.836 165.188 103.727 165.419 103.79L176.67 106.826C176.947 106.901 177.104 107.193 177.014 107.466L175.807 111.115C175.724 111.364 175.463 111.507 175.209 111.443Z" fill="#3684C9" stroke="black" stroke-width="0.4" stroke-linecap="round"/>
<path d="M82.1988 1.61346C82.5776 0.917607 83.5766 0.917604 83.9554 1.61346L101.027 32.9734C101.389 33.6398 100.907 34.4515 100.148 34.4515H66.006C65.2474 34.4515 64.765 33.6398 65.1278 32.9734L82.1988 1.61346Z" fill="#3684C9"/>
<circle cx="82.684" cy="31.4985" r="1.31244" fill="white"/>
<path d="M84.117 9.18709H81.8891C81.6062 9.18709 81.3797 9.42159 81.3894 9.70432L82.0112 27.7347C82.0204 28.004 82.2414 28.2175 82.5109 28.2175H82.8735C83.1363 28.2175 83.3543 28.014 83.3724 27.7519L84.6158 9.72149C84.6358 9.43249 84.4067 9.18709 84.117 9.18709Z" fill="white" stroke="white" stroke-width="0.4" stroke-linecap="round"/>
<path d="M52.4924 166.679L43.5787 166.043C43.4114 166.031 43.2507 166.102 43.1532 166.238C42.5198 167.124 40.2446 170.548 41.3421 172.586C41.7689 173.378 42.8386 174.208 43.1939 174.47C43.2702 174.526 43.361 174.557 43.4556 174.561L58.2493 175.204C58.3499 175.208 58.4484 175.183 58.5321 175.127C59.0605 174.773 61.0394 173.351 61.0287 171.93C61.02 170.784 60.4248 170.205 59.7162 169.305C57.8818 166.973 52.614 166.686 52.4997 166.68L52.4924 166.679Z" fill="black" stroke="black" stroke-width="0.4" stroke-linecap="round"/>
<path d="M13.8098 163.707L5.78606 159.773C5.63541 159.699 5.45995 159.704 5.31829 159.794C4.39873 160.378 1.00537 162.698 1.25803 164.999C1.3563 165.894 2.03662 167.064 2.26771 167.44C2.3173 167.521 2.39007 167.583 2.47625 167.622L15.9481 173.769C16.0397 173.81 16.1405 173.824 16.2391 173.803C16.8618 173.673 19.2294 173.098 19.7529 171.776C20.1748 170.711 19.8399 169.951 19.5211 168.851C18.6955 166.001 13.9201 163.759 13.8164 163.71L13.8098 163.707Z" fill="black" stroke="black" stroke-width="0.4" stroke-linecap="round"/>
<path d="M47.6768 95.0783L26.0789 88.0907C25.8122 88.0044 25.5282 88.1519 25.4524 88.4218C25.0021 90.0252 23.6242 95.2462 23.6242 99.0892C23.6242 103.434 28.321 125.392 28.8295 127.756C28.8594 127.896 28.8259 128.029 28.7419 128.144L6.22488 159.024C6.05309 159.26 6.11851 159.592 6.36684 159.745L14.0969 164.502C14.2959 164.624 14.54 164.606 14.7031 164.439C17.6448 161.426 44.0036 134.379 44.6232 131.9L45.9357 126.65L48.5073 133.079C48.5421 133.167 48.5517 133.262 48.5351 133.354L42.7536 165.473C42.7008 165.767 42.9149 166.041 43.2124 166.061L52.0936 166.653C52.3293 166.669 52.5415 166.525 52.6052 166.298C53.5885 162.787 60.9852 136.146 60.3725 131.244C59.7475 126.244 49.0014 98.0244 47.9818 95.3546C47.9279 95.2134 47.8207 95.1248 47.6768 95.0783Z" fill="#656762" stroke="#656762" stroke-width="0.4" stroke-linecap="round"/>
<path d="M68.5111 67.0757L53.4314 72.5044C53.0451 72.6435 52.6651 72.2835 52.7831 71.8903L54.3839 66.5542C54.4352 66.3834 54.5735 66.2528 54.747 66.2115L67.7264 63.1212C68.0081 63.0541 68.2877 63.2397 68.3354 63.5254L68.835 66.5231C68.8747 66.7613 68.7384 66.9939 68.5111 67.0757Z" fill="#EDC3AF" stroke="#EDC3AF" stroke-width="0.4" stroke-linecap="round"/>
<circle cx="71.5286" cy="63.6533" r="4.59354" fill="#EDC3AF"/>
<circle cx="71.5286" cy="63.6533" r="4.59354" fill="#EDC3AF"/>
<circle cx="67.5911" cy="76.7777" r="4.59354" fill="#EDC3AF"/>
<circle cx="67.5911" cy="76.7777" r="4.59354" fill="#EDC3AF"/>
<path d="M41.1341 45.0262L40.3933 49.9715C40.3524 50.2446 40.5406 50.4991 40.8137 50.5401L47.8983 51.6013C48.1443 51.6382 48.3801 51.4885 48.4514 51.2501L49.8747 46.4906C49.9312 46.3017 50.0935 46.1636 50.2891 46.1381L55.4391 45.4669C55.6604 45.438 55.8359 45.2659 55.8689 45.0451L56.7269 39.3174C56.755 39.1301 56.8861 38.9751 57.0618 38.9044C57.5575 38.705 58.5253 38.2434 58.6142 37.6502C58.7342 36.8494 57.1926 35.0904 56.8116 33.2863C56.4379 31.5166 56.6954 28.7206 56.7274 28.3932C56.7284 28.3834 56.7182 28.3762 56.7118 28.3837C56.4164 28.7281 52.7005 32.9984 49.3646 33.8083C48.0976 34.1159 47.1999 33.5309 46.0415 34.1293C43.513 35.4353 45.6368 38.7829 44.1611 41.2164C43.2656 42.693 41.7137 44.3017 41.2766 44.743C41.2 44.8202 41.1502 44.9187 41.1341 45.0262Z" fill="#E6C5B3" stroke="#E6C5B3" stroke-width="0.4" stroke-linecap="round"/>
<path d="M53.3267 23.758C56.2002 24.9512 56.6744 27.9192 56.7256 28.3173C56.7294 28.3463 56.7219 28.3711 56.7015 28.392C56.3319 28.7712 52.5445 32.6061 49.3649 33.8084C47.7721 34.4107 46.3798 33.6633 45.121 34.8102C43.4848 36.3009 45.1137 38.3647 44.2813 40.4157C43.6736 41.9131 42.1799 43.7086 41.5028 44.479C41.3167 44.6908 40.996 44.6964 40.8029 44.4911C40.0708 43.7128 38.4114 41.8458 37.755 40.2568C36.642 37.5623 36.437 35.6144 37.2331 32.8098C38.0054 30.089 38.611 28.7788 40.5951 26.7632C42.4773 24.8509 44.309 23.4148 46.9204 22.7984C49.3825 22.2172 50.9904 22.7879 53.3267 23.758Z" fill="#573E30" stroke="#573E30" stroke-width="0.4" stroke-linecap="round"/>
<path d="M55.7789 61.6847C55.1743 65.3118 49.5576 90.6583 48.6765 94.6291C48.6123 94.9185 48.3158 95.0703 48.0345 94.9766L25.3796 87.4249C25.1302 87.3418 24.9855 87.0885 25.0518 86.8341C26.1177 82.7459 34.2535 51.7115 36.0923 49.8727C37.5374 48.4276 38.9825 47.6897 39.6489 47.3994C39.8679 47.304 40.1144 47.3956 40.242 47.5975C40.7872 48.4609 42.3102 50.6615 43.9669 51.1852C45.8845 51.7912 48.8165 50.4147 49.6468 49.9915C49.7906 49.9183 49.9584 49.9135 50.1013 49.9886C50.8598 50.3874 53.3122 51.7901 54.4664 53.81C55.9922 56.4801 56.4351 57.7474 55.7789 61.6847Z" fill="#4B0000" stroke="#4B0000" stroke-width="0.4" stroke-linecap="round"/>
<path d="M49.7788 69.3393L48.0758 65.3657C47.9776 65.1364 47.7254 65.0146 47.4847 65.0802L41.3405 66.7559C41.0156 66.8445 40.868 67.2182 41.0526 67.4999C42.1922 69.2388 45.7262 74.4878 47.9045 76.1215C50.2526 77.8826 63.1036 78.0683 65.7873 78.0878C66.0634 78.0899 66.2786 77.8663 66.2786 77.5902V74.5321C66.2786 74.3078 66.1293 74.111 65.9134 74.0506L50.1036 69.6238C49.9579 69.583 49.8384 69.4784 49.7788 69.3393Z" fill="#EDC3AF" stroke="#EDC3AF" stroke-width="0.4" stroke-linecap="round"/>
</svg>
