<svg width="16" height="16" viewBox="0 0 16 16" fill="none" xmlns="http://www.w3.org/2000/svg">
<path fill-rule="evenodd" clip-rule="evenodd" d="M8 16C12.4183 16 16 12.4183 16 8C16 3.58172 12.4183 0 8 0C3.58172 0 0 3.58172 0 8C0 12.4183 3.58172 16 8 16ZM6.89647 4.84609C7.09174 4.65083 7.40832 4.65083 7.60358 4.84609L10.6466 7.88906C10.8418 8.08432 10.8418 8.40091 10.6466 8.59617L10.1036 9.13909L10.1002 9.14246L7.6035 11.6392C7.40824 11.8344 7.09166 11.8344 6.8964 11.6392L6.35348 11.0963C6.15822 10.901 6.15822 10.5844 6.35348 10.3892L8.50004 8.2426L6.35356 6.09612C6.15829 5.90086 6.15829 5.58427 6.35355 5.38901L6.89647 4.84609Z" fill="white"/>
</svg>
