<svg width="157" height="181" viewBox="0 0 157 181" fill="none" xmlns="http://www.w3.org/2000/svg">
<path d="M11.6907 61.4849L15.2882 57.8873C15.5243 57.6513 15.4672 57.2547 15.1741 57.0948L6.59279 52.4141C6.38322 52.2998 6.12442 52.3474 5.97511 52.5337C5.03125 53.7113 1.77352 57.9253 1.0348 60.8798C0.245445 64.0368 13.1193 77.2612 15.4138 79.5869C15.6077 79.7835 15.9191 79.7786 16.1143 79.5833L18.9645 76.7331C19.1197 76.5779 19.1555 76.3396 19.0528 76.1456L11.6024 62.0724C11.4997 61.8784 11.5355 61.6401 11.6907 61.4849Z" fill="#E6C5B3" stroke="#E6C5B3" stroke-width="0.4" stroke-linecap="round"/>
<path d="M59.878 61.6L55.8255 51.874C55.7098 51.5964 55.377 51.483 55.1159 51.6322L49.6954 54.7296C49.5974 54.7856 49.5212 54.8732 49.4792 54.978L47.9159 58.8864C47.8511 59.0484 47.8752 59.232 47.9795 59.3719C49.9665 62.0359 52.6828 65.9228 54.6506 68.5546C54.7102 68.6342 54.7916 68.6933 54.8855 68.726L74.2498 75.4613C74.4871 75.5439 74.7488 75.4375 74.8612 75.2127L76.1948 72.5455C76.3097 72.3157 76.2318 72.0363 76.0146 71.8991L60.0725 61.8304C59.9855 61.7755 59.9175 61.695 59.878 61.6Z" fill="#E6C5B3" stroke="#E6C5B3" stroke-width="0.4" stroke-linecap="round"/>
<circle cx="77.2633" cy="74.7395" r="4.33116" fill="#E6C5B3"/>
<circle cx="77.2633" cy="74.7395" r="4.33116" fill="#E6C5B3"/>
<path d="M19.2253 168.293C18.5198 166.881 18.9636 163.746 19.1525 162.632C19.1923 162.397 19.3969 162.229 19.6352 162.229H28.7135C28.7404 162.229 28.763 162.23 28.7895 162.235C29.3272 162.328 35.7705 163.503 35.6837 166.56C35.6608 167.368 35.1786 168.437 34.9438 168.913C34.8675 169.067 34.722 169.164 34.5499 169.174C32.5523 169.281 20.0222 169.887 19.2253 168.293Z" fill="black" stroke="black" stroke-width="0.4" stroke-linecap="round"/>
<path d="M43.8654 169.159C43.1599 167.748 43.6037 164.613 43.7926 163.498C43.8325 163.263 44.037 163.095 44.2754 163.095H53.3536C53.3805 163.095 53.4032 163.097 53.4296 163.101C53.9674 163.194 60.4107 164.369 60.3239 167.426C60.3009 168.234 59.8188 169.303 59.584 169.779C59.5077 169.934 59.3621 170.031 59.1901 170.04C57.1924 170.147 44.6624 170.753 43.8654 169.159Z" fill="black" stroke="black" stroke-width="0.4" stroke-linecap="round"/>
<path d="M52.0299 163.095H44.3762C43.866 163.095 43.4376 162.711 43.3822 162.204L37.416 107.656L28.8973 162.176C28.8164 162.694 28.3489 163.061 27.8263 163.018L19.2965 162.307C18.7697 162.263 18.368 161.817 18.3798 161.288L20.0805 84.7569C20.0865 84.4852 20.3086 84.268 20.5804 84.268H54.2295C54.51 84.268 54.7356 84.4986 54.7294 84.779L53.0297 162.117C53.0177 162.661 52.5737 163.095 52.0299 163.095Z" fill="#656862" stroke="#656862" stroke-width="0.4" stroke-linecap="round"/>
<path d="M32.2192 28.9967V34.3927C32.2192 34.6689 32.4431 34.8927 32.7192 34.8927H40.4479C40.6967 34.8927 40.9077 34.7098 40.9429 34.4635L41.7019 29.1501C41.7298 28.9548 41.8699 28.7942 42.0596 28.74L47.4488 27.2003C47.6634 27.1389 47.8114 26.9427 47.8114 26.7195V20.4758C47.8114 20.2864 47.9186 20.1133 48.0822 20.0179C48.5694 19.7336 49.5439 19.084 49.5439 18.4343C49.5439 17.5681 47.6341 15.9515 46.9452 14.1032C46.2675 12.2852 46.0977 9.27482 46.0805 8.93689C46.08 8.92706 46.0688 8.92212 46.0636 8.93046C45.8134 9.32947 42.5546 14.4482 39.1491 15.8356C37.8574 16.3619 36.8149 15.8852 35.6842 16.7019C33.216 18.4844 35.9936 21.6895 34.8179 24.498C34.1002 26.2125 32.7007 28.1738 32.318 28.6958C32.2537 28.7836 32.2192 28.888 32.2192 28.9967Z" fill="#E6C5B3" stroke="#E6C5B3" stroke-width="0.4" stroke-linecap="round"/>
<path d="M41.7475 4.57495C44.9838 5.38371 45.9531 8.46027 46.0668 8.86262C46.0748 8.8907 46.0714 8.91638 46.0543 8.94007C45.7351 9.38383 42.3286 14.0565 39.1488 15.836C37.5591 16.7256 35.9676 16.1556 34.8176 17.5684C33.3228 19.405 35.3733 21.3302 34.8176 23.6321C34.4075 25.3312 33.0875 27.4963 32.5025 28.4015C32.3495 28.6383 32.0326 28.6909 31.8109 28.5167C30.9282 27.8232 28.8438 26.0917 27.8878 24.4983C26.2831 21.8239 25.7576 19.7956 26.1553 16.7022C26.5411 13.7012 26.9743 12.2191 28.7539 9.77212C30.4422 7.45069 32.1525 5.641 34.8176 4.57495C37.3303 3.56986 39.122 3.91881 41.7475 4.57495Z" fill="#573E30" stroke="#573E30" stroke-width="0.4" stroke-linecap="round"/>
<path d="M37.4163 85.1339C43.2872 85.1339 51.9944 84.4833 54.2121 84.3098C54.5009 84.2872 54.7042 84.0246 54.6608 83.7383L50.4612 56.021C50.4302 55.8167 50.5281 55.6144 50.7075 55.5119L56.184 52.3825C56.3593 52.2823 56.4574 52.0889 56.4319 51.8887C56.1636 49.7815 54.6617 38.1991 53.8748 36.6249C53.0085 34.8921 52.253 34.2981 50.4098 33.1603C47.8402 31.5741 42.9558 32.1293 41.9367 32.2667C41.8126 32.2834 41.7043 32.348 41.6235 32.4435C41.0608 33.1083 38.6836 35.7587 36.5501 35.7587C34.4389 35.7587 32.0891 33.1634 31.495 32.465C31.4024 32.3561 31.2717 32.2894 31.1288 32.2834C30.6557 32.2638 29.5336 32.2284 28.754 32.2937C24.6808 32.6351 22.6772 34.4356 19.2254 36.6249C13.121 40.4966 6.93785 49.7731 5.62159 51.8151C5.47534 52.0419 5.5441 52.336 5.7687 52.4857L15.4195 58.9196C15.6178 59.0518 15.8818 59.0256 16.0504 58.8571L20.0686 54.8388C20.3885 54.5189 20.9349 54.7545 20.922 55.2067L20.1052 83.7939C20.0976 84.0596 20.2986 84.2845 20.5636 84.3053C22.6852 84.4718 31.4939 85.1339 37.4163 85.1339Z" fill="#430000" stroke="#430000" stroke-width="0.4" stroke-linecap="round"/>
<circle cx="18.3595" cy="79.0707" r="4.33116" fill="#E6C5B3"/>
<circle cx="18.3595" cy="79.0707" r="4.33116" fill="#E6C5B3"/>
<path d="M122.49 22.963C121.403 24.314 119.019 25.5523 118.549 25.7888C118.502 25.8122 118.447 25.7945 118.42 25.7494L109.341 10.1966C109.316 10.1545 109.325 10.1013 109.363 10.0704C109.56 9.90892 110.171 9.42074 110.639 9.16832C111.205 8.86304 113.128 8.40559 114.277 8.59834L118.714 9.34333C118.787 9.35546 118.847 9.28953 118.828 9.21871C118.676 8.64568 118.155 6.59064 118.299 5.73212C118.467 4.72949 119.005 4.21847 119.833 3.62852C121.004 2.79421 122.034 2.99827 123.47 3.0586C124.379 3.09675 124.924 3.1026 125.766 3.44409C126.709 3.8259 127.28 4.14978 127.87 4.97776C128.46 5.80575 128.531 6.45527 128.633 7.46686C128.769 8.82405 128.834 9.79237 128.054 10.9114C127.222 12.1051 124.85 12.5333 124.327 12.6145C124.27 12.6233 124.233 12.6757 124.242 12.7322C124.347 13.3412 124.852 16.5216 124.409 18.5631C124.011 20.395 123.665 21.5025 122.49 22.963Z" fill="#3D210F" stroke="#3D210F" stroke-width="0.5"/>
<path d="M118.66 24.6808C118.551 27.2665 119.561 31.0902 119.764 31.8292C119.782 31.8933 119.733 31.9553 119.667 31.9552L112.803 31.9472C112.754 31.9471 112.712 31.9112 112.704 31.8626L112.151 28.3331C112.149 28.3178 112.143 28.3032 112.134 28.2906L111.216 27.0026C111.201 26.981 111.178 26.9664 111.151 26.962L106.661 26.2081C106.623 26.2018 106.593 26.175 106.582 26.1388L105.079 21.2352C105.076 21.2249 105.071 21.2152 105.065 21.2065L104.166 19.9455C104.139 19.9067 104.142 19.8543 104.174 19.8191C104.402 19.5681 105.283 18.5749 105.653 17.7752C106.224 16.5368 105.761 15.6112 106.231 14.3306C106.85 12.642 108.774 10.6486 109.21 10.2111C109.255 10.1654 109.33 10.1756 109.363 10.2305C109.604 10.6226 110.468 11.9995 111.209 12.8053C112.585 14.3021 113.679 14.8153 115.416 15.8726C116.644 16.6202 117.834 16.4281 118.668 17.599C119.223 18.3778 119.409 19.8934 119.429 20.071C119.43 20.0826 119.43 20.0921 119.427 20.1034C119.372 20.3266 118.733 22.9424 118.66 24.6808Z" fill="#855D46" stroke="#855D46" stroke-width="0.5"/>
<path d="M112.085 157.331L110.442 164.534C110.433 164.574 110.449 164.615 110.482 164.638L113.323 166.622L116.912 165.367C116.948 165.354 116.973 165.322 116.978 165.284L117.344 162.074C117.485 160.832 118.351 158.73 118.575 158.201C118.602 158.139 118.561 158.07 118.494 158.062L112.085 157.331Z" fill="#855D46" stroke="#855D46" stroke-width="0.5"/>
<path d="M103.515 167.122L109.629 163.729C109.671 163.705 109.723 163.714 109.755 163.751C110.034 164.073 111.367 165.535 112.787 165.697C114.248 165.864 117.297 164.825 117.808 164.647C117.852 164.631 117.898 164.646 117.922 164.686C118.217 165.164 119.976 168.15 118.957 169.715C118.498 170.421 117.327 171.062 117.156 171.153C117.142 171.161 117.127 171.164 117.11 171.164L102.283 171.121C102.248 171.121 102.215 171.103 102.198 171.071C102.049 170.794 101.35 169.42 101.687 168.574C102.013 167.759 103.409 167.167 103.505 167.127C103.508 167.125 103.512 167.124 103.515 167.122Z" fill="black" stroke="black" stroke-width="0.5"/>
<path d="M125.944 159.064L124.303 166.259C124.293 166.302 124.313 166.347 124.352 166.368L127.363 168.026L130.764 167.096C130.804 167.085 130.833 167.053 130.837 167.012L131.203 163.807C131.344 162.565 132.21 160.462 132.434 159.934C132.46 159.872 132.419 159.802 132.353 159.795L125.944 159.064Z" fill="#855D46" stroke="#855D46" stroke-width="0.5"/>
<path d="M117.375 168.854L123.489 165.461C123.531 165.438 123.584 165.447 123.615 165.483C123.894 165.806 125.228 167.268 126.648 167.43C128.108 167.596 131.158 166.558 131.668 166.379C131.712 166.364 131.758 166.379 131.782 166.419C132.077 166.897 133.836 169.883 132.818 171.447C132.358 172.153 131.187 172.795 131.016 172.886C131.002 172.893 130.987 172.897 130.971 172.897L116.144 172.854C116.108 172.854 116.075 172.835 116.058 172.804C115.909 172.526 115.21 171.152 115.548 170.307C115.873 169.491 117.269 168.899 117.365 168.859C117.369 168.858 117.372 168.856 117.375 168.854Z" fill="black" stroke="black" stroke-width="0.5"/>
<path d="M128.228 69.5423H102.565C102.462 69.5423 102.377 69.6191 102.367 69.7213C102.197 71.4606 100.88 85.4905 101.518 94.6631C102.356 106.708 105.893 113.025 107.582 124.981C109.051 135.386 109.881 150.819 110.113 155.58C110.155 156.449 110.75 157.187 111.59 157.416L117.56 159.044C118.707 159.357 119.873 158.605 120.061 157.431L123.174 137.975L124.002 158.67C124.023 159.207 124.464 159.631 125.001 159.631H132.733C133.217 159.631 133.629 159.289 133.71 158.812C134.146 156.21 135.438 147.965 135.301 142.306C135.135 135.466 132.991 131.817 132.702 124.981C132.588 122.277 132.65 120.757 132.702 118.051C132.866 109.569 134.886 104.868 134.435 96.3955C133.893 86.2134 128.924 71.1901 128.414 69.6679C128.386 69.5868 128.314 69.5423 128.228 69.5423Z" fill="#2A3F7B" stroke="#2A3F7B" stroke-width="0.4" stroke-linecap="round"/>
<path d="M104.983 79.9371C104.983 79.9371 104.971 83.2626 104.116 85.1345C103.414 86.6733 101.518 88.5995 101.518 88.5995" stroke="#556A9A" stroke-width="0.4" stroke-linecap="round"/>
<path d="M130.616 77.692L124.04 84.2683L124.906 85.1345L125.773 86.867L127.505 87.7332L129.237 88.5994L135.765 82.8877C135.983 82.6973 135.994 82.3624 135.789 82.1579L131.323 77.692C131.128 77.4967 130.812 77.4967 130.616 77.692Z" fill="#3684C9" stroke="#3684C9" stroke-width="0.4" stroke-linecap="round"/>
<path d="M124.04 84.2683L130.616 77.692C130.812 77.4967 131.128 77.4967 131.323 77.692L135.814 82.1823C136.009 82.3775 136.009 82.6941 135.814 82.8894L129.671 89.0326" stroke="black" stroke-width="0.4" stroke-linecap="round"/>
<path d="M121.441 79.0709C121.441 79.0709 123.205 84.5135 125.773 86.867C128.003 88.9115 132.702 90.3319 132.702 90.3319" stroke="#556A9A" stroke-width="0.4" stroke-linecap="round"/>
<circle cx="150.935" cy="83.9631" r="5.23908" fill="#855D46"/>
<circle cx="71.2415" cy="45.3295" r="5.23908" fill="#855D46"/>
<path d="M116.243 32.2943C113.857 32.5391 110.367 31.4852 110.188 31.4304C110.182 31.4287 110.178 31.4277 110.172 31.4265C109.99 31.3886 106.833 30.7486 104.983 31.4281C103.418 32.0032 101.571 33.9708 101.519 34.0256L101.516 34.0291C99.1067 36.4439 94.468 50.0057 93.8017 51.9783C93.7595 52.1033 93.6209 52.1509 93.511 52.078C91.8301 50.9635 80.5979 43.5556 78.9953 43.5554C77.2622 43.5551 72.9325 49.6192 72.9316 51.3514C72.9308 53.0837 73.797 55.6824 74.6641 56.5488C75.5312 57.4153 87.8827 65.0505 96.3199 62.6125C98.7173 61.9197 101.874 60.0128 102.907 59.3657C103.048 59.2773 103.23 59.3893 103.216 59.5552L102.402 69.3257C102.392 69.4423 102.484 69.5423 102.601 69.5423L128.152 69.5423C128.269 69.5423 128.361 69.4413 128.351 69.3242L126.734 51.5408C126.714 51.3207 127.012 51.2324 127.111 51.4301L131.835 60.88C136.571 70.352 141.84 85.8424 143.963 85.1345C146.086 84.4266 146.923 83.347 148.294 81.6696C149.73 79.9121 150.894 79.0706 150.893 76.4722C150.893 73.8737 143.628 64.5431 139.632 56.5488C135.024 47.3313 130.969 34.027 129.237 32.2943C127.592 30.6497 121.266 30.5663 120.627 30.5621C120.59 30.5618 120.559 30.5711 120.528 30.5901C120.176 30.8007 117.91 32.1233 116.243 32.2943Z" fill="#DDE7ED" stroke="#DDE7ED" stroke-width="0.4" stroke-linecap="round"/>
<path d="M137.757 81.7107C137.757 81.7107 138.057 82.9322 137.717 83.5772C137.377 84.2222 136.2 84.6653 136.2 84.6653" stroke="#D94747" stroke-width="0.6" stroke-linecap="round"/>
<path d="M139.378 80.9616C139.378 80.9616 140.041 82.9773 139.607 83.9829C139.173 84.9885 136.966 85.9462 136.966 85.9462" stroke="#D94747" stroke-width="0.6" stroke-linecap="round"/>
<path d="M140.771 80.0718C140.771 80.0718 141.743 82.9782 141.092 84.5906C140.442 86.2031 137.79 87.4579 137.79 87.4579" stroke="#D94747" stroke-width="0.6" stroke-linecap="round"/>
<path d="M128.596 76.7852C128.596 76.7852 129.399 75.8167 130.119 75.7056C130.84 75.5945 131.897 76.2764 131.897 76.2764" stroke="#D94747" stroke-width="0.6" stroke-linecap="round"/>
<path d="M127.028 75.9283C127.028 75.9283 128.253 74.1951 129.319 73.9448C130.385 73.6944 132.469 74.897 132.469 74.897" stroke="#D94747" stroke-width="0.6" stroke-linecap="round"/>
<path d="M125.486 75.3396C125.486 75.3396 127.241 72.8277 128.924 72.39C130.607 71.9524 133.194 73.335 133.194 73.335" stroke="#D94747" stroke-width="0.6" stroke-linecap="round"/>
</svg>
