<svg width="100" height="100" viewBox="0 0 100 100" fill="none" xmlns="http://www.w3.org/2000/svg">
<path fill-rule="evenodd" clip-rule="evenodd" d="M50 100C77.6142 100 100 77.6142 100 50C100 22.3858 77.6142 0 50 0C22.3858 0 0 22.3858 0 50C0 77.6142 22.3858 100 50 100ZM50.0002 18.2692C44.1587 18.2692 39.4233 23.0047 39.4233 28.8462V53.8462C39.4233 58.9246 43.0024 63.167 47.7757 64.1888V67.3295C44.8377 66.8894 42.0966 65.5197 39.9705 63.3936C37.9044 61.3275 36.5525 58.6805 36.0741 55.8364C35.8608 54.5689 34.8387 53.5197 33.5533 53.5197C32.268 53.5197 31.211 54.5658 31.3712 55.8411C31.8841 59.9231 33.7393 63.745 36.6792 66.685C39.6797 69.6855 43.5989 71.5561 47.7757 72.0229V82.4819H51.9131V72.0229C56.0899 71.5561 60.0091 69.6855 63.0097 66.685C65.9496 63.745 67.8048 59.9231 68.3177 55.8411C68.4779 54.5658 67.4209 53.5197 66.1356 53.5197C64.8502 53.5197 63.8281 54.5689 63.6148 55.8364C63.1363 58.6805 61.7845 61.3275 59.7184 63.3936C57.5922 65.5198 54.8511 66.8895 51.9131 67.3295V64.2505C56.8415 63.3503 60.5771 59.0345 60.5771 53.8461V28.8462C60.5771 23.0047 55.8417 18.2692 50.0002 18.2692Z" fill="#3684C9"/>
</svg>
